<svg width="342" height="484" viewBox="0 0 342 484" fill="none" xmlns="http://www.w3.org/2000/svg">
<g clip-path="url(#clip0_808_849)">
<path d="M341.891 -0.130005H-0.109375V483.87H341.891V-0.130005Z" fill="#EDEDED"/>
<path d="M341.891 180.64V483.87H193.281C193.041 482 192.741 480.13 192.471 478.25C190.571 464.9 183.591 454.94 172.601 447.51C164.271 441.88 155.071 438.09 145.611 434.92C135.041 431.38 124.351 428.22 113.681 424.98C106.861 422.92 100.431 419.63 93.9907 416.5C93.7907 416.4 93.6407 416.18 93.4707 416.02C100.211 414.07 107.201 413.84 114.111 413.06C124.871 411.85 135.701 412.18 146.501 411.65C159.131 411.02 171.571 409.28 183.821 406.06C186.441 405.37 187.801 404.11 188.951 401.72C194.591 389.94 202.121 379.68 213.421 372.62C216.991 370.4 220.631 368.29 224.481 366.58C226.481 365.7 227.401 364.44 227.261 362.15C227.121 359.62 226.841 357.13 226.491 354.64C224.861 343.2 219.371 334.14 209.831 327.59C207.661 326.1 205.391 324.77 203.161 323.36C203.161 315.71 204.381 308.31 207.821 301.4C212.461 292.07 220.261 286.68 230.081 284.03C234.351 282.87 238.741 282.16 243.081 281.21C244.361 280.93 245.641 280.58 246.891 280.18C257.831 276.68 264.461 269.31 266.551 258.01C267.841 251.06 269.021 244.08 270.071 237.09C273.101 216.93 283.421 201.43 299.971 189.86C303.301 187.53 306.571 185.07 310.381 183.51C310.551 184.83 310.441 186.11 310.131 187.42C307.881 197.14 304.481 206.47 301.011 215.79C297.921 224.1 294.471 232.27 291.831 240.75C289.291 248.91 288.431 257.36 287.501 265.78C286.911 271.12 288.621 276.22 290.071 281.27C291.161 285.05 292.261 288.87 294.401 292.26C294.841 292.95 295.131 293.88 296.161 293.83C297.221 293.77 297.371 292.85 297.661 292.05C299.771 286.19 301.971 280.36 304.011 274.47C307.301 264.97 309.791 255.23 312.351 245.5C314.851 236.05 315.511 226.43 316.281 216.8C316.501 214.06 316.521 211.32 317.031 208.59C318.431 201.11 322.581 195.11 327.581 189.73C330.411 186.69 334.021 184.31 337.841 182.57C339.181 181.96 340.511 181.22 341.891 180.64Z" fill="#FCDD34"/>
<path d="M193.281 483.87H-0.109375V236.76C3.29063 240.36 6.65062 244 9.73062 247.92C18.4906 259.05 23.2106 271.83 25.7506 285.57C27.2406 293.6 27.9406 301.72 28.5606 309.85C29.0906 316.67 29.8406 323.46 30.9506 330.2C31.2506 332.05 31.3306 334.05 32.7106 335.58C32.2106 336.25 32.4706 336.93 32.6206 337.64C33.6606 342.69 34.9906 347.66 36.6006 352.56C43.8906 374.74 56.2906 393.21 75.8606 406.42C81.4106 410.17 87.1406 413.66 93.4706 416.02C93.6406 416.18 93.7906 416.4 93.9906 416.5C100.431 419.63 106.861 422.92 113.681 424.98C124.351 428.22 135.041 431.38 145.611 434.92C155.071 438.09 164.271 441.88 172.601 447.51C183.591 454.94 190.571 464.9 192.471 478.25C192.741 480.13 193.041 482 193.281 483.87Z" fill="#76E1FB"/>
<path d="M341.89 24.05V180.64C340.51 181.22 339.18 181.96 337.84 182.57C334.02 184.31 330.41 186.69 327.58 189.73C322.58 195.11 318.43 201.11 317.03 208.59C316.52 211.32 316.5 214.06 316.28 216.8C315.51 226.43 314.85 236.05 312.35 245.5C309.79 255.23 307.3 264.97 304.01 274.47C301.97 280.36 299.77 286.19 297.66 292.05C297.37 292.85 297.22 293.77 296.16 293.83C295.13 293.88 294.84 292.95 294.4 292.26C292.26 288.87 291.16 285.05 290.07 281.27C288.62 276.22 286.91 271.12 287.5 265.78C288.43 257.36 289.29 248.91 291.83 240.75C294.47 232.27 297.92 224.1 301.01 215.79C304.48 206.47 307.88 197.14 310.13 187.42C310.44 186.11 310.55 184.83 310.38 183.51C312.32 179.55 312.76 175.2 313.26 170.95C314.33 161.77 314.66 152.52 314.75 143.27C314.85 132.22 314.73 121.16 314.98 110.11C315.36 93.86 317.13 77.78 322.06 62.18C326.45 48.24 332.74 35.36 341.89 24.05Z" fill="#BCD631"/>
<path d="M224.481 366.58C220.631 368.29 216.991 370.4 213.421 372.62C202.121 379.68 194.591 389.94 188.951 401.72C187.801 404.11 186.441 405.37 183.821 406.06C171.571 409.28 159.131 411.02 146.501 411.65C135.701 412.18 124.871 411.85 114.111 413.06C107.201 413.84 100.211 414.07 93.4707 416.02C87.1407 413.66 81.4107 410.17 75.8607 406.42C56.2907 393.21 43.8907 374.74 36.6007 352.56C34.9907 347.66 33.6607 342.69 32.6207 337.64C32.4707 336.93 32.2107 336.25 32.7107 335.58C40.7407 342.07 49.9107 345.4 60.2407 345.47C73.5607 345.57 86.4507 342.94 99.1607 339.27C110.001 336.13 120.381 331.76 130.891 327.7C145.201 322.18 159.911 318.6 175.371 318.67C184.081 318.71 192.541 320.23 200.761 323.06C201.541 323.33 202.291 323.84 203.161 323.36C205.391 324.77 207.661 326.1 209.831 327.59C219.371 334.14 224.861 343.2 226.491 354.64C226.841 357.13 227.121 359.62 227.261 362.15C227.401 364.44 226.481 365.7 224.481 366.58Z" fill="#FD44AC"/>
<path d="M341.891 -0.130005V24.05C332.741 35.36 326.451 48.24 322.061 62.18C317.131 77.78 315.361 93.86 314.981 110.11C314.731 121.16 314.851 132.22 314.751 143.27C314.661 152.52 314.331 161.77 313.261 170.95C312.761 175.2 312.321 179.55 310.381 183.51C306.571 185.07 303.301 187.53 299.971 189.86C283.421 201.43 273.101 216.93 270.071 237.09C269.021 244.08 267.841 251.06 266.551 258.01C264.461 269.31 257.831 276.68 246.891 280.18C245.641 280.58 244.361 280.93 243.081 281.21C238.741 282.16 234.351 282.87 230.081 284.03C220.261 286.68 212.461 292.07 207.821 301.4C204.381 308.31 203.161 315.71 203.161 323.36C202.291 323.84 201.541 323.33 200.761 323.06C192.541 320.23 184.081 318.71 175.371 318.67C159.911 318.6 145.201 322.18 130.891 327.7C120.381 331.76 110.001 336.13 99.1606 339.27C86.4506 342.94 73.5606 345.57 60.2406 345.47C49.9106 345.4 40.7406 342.07 32.7106 335.58C31.3306 334.05 31.2506 332.05 30.9506 330.2C29.8406 323.46 29.0906 316.67 28.5606 309.85C27.9406 301.72 27.2406 293.6 25.7506 285.57C23.2106 271.83 18.4906 259.05 9.73062 247.92C6.65062 244 3.29063 240.36 -0.109375 236.76V-0.130005H341.891Z" fill="white"/>
<g clip-path="url(#clip1_808_849)">
<path d="M163.582 198.951C163.206 198.824 162.715 198.938 162.413 199.184C162.106 199.429 161.94 199.824 162.005 200.197C161.922 200.504 161.997 200.815 162.246 201.048C162.496 201.284 162.86 201.346 163.188 201.298C163.872 201.192 164.375 200.618 164.371 199.92C164.371 199.434 164.016 199.096 163.587 198.951" fill="#FCDD34"/>
<mask id="mask0_808_849" style="mask-type:luminance" maskUnits="userSpaceOnUse" x="138" y="168" width="40" height="51">
<path d="M149.196 168.372C146.559 169.1 144.671 171.117 143.089 173.24C139.755 177.713 138.712 183.558 138.888 189.036C138.988 192.246 139.554 195.333 140.478 198.403C141.267 201.017 142.226 204.481 144.504 206.165C144.815 206.393 145.196 206.135 145.31 205.836C146.121 203.71 145.503 201.091 145.209 198.894C144.885 196.491 144.649 194.079 144.425 191.663C144.04 187.488 144.197 183.01 145.95 179.129C146.589 177.713 149.893 171.968 152.092 173.95C152.736 174.529 152.793 176.094 152.924 176.879C153.121 178.09 153.284 179.309 153.428 180.524C153.752 183.225 153.976 185.94 154.129 188.654C154.3 191.75 159.334 192.882 159.89 189.435C160.525 185.492 161.406 179.107 165.537 177.178C170.242 174.981 170.321 181.668 170.514 184.721C170.847 189.887 170.369 195.066 169.23 200.113C168.652 202.661 167.929 205.205 167.149 207.696C166.33 210.318 165.708 212.989 164.884 215.616C164.311 217.445 166.764 218.809 168.065 217.471C170.479 214.985 172.464 212.301 173.865 209.126C175.237 206.021 176.113 202.784 176.7 199.447C177.896 192.658 177.804 185.444 176.257 178.713C175.578 175.761 174.168 172.827 171.333 171.433C168.573 170.078 165.353 170.367 162.663 171.753C160.88 172.669 159.474 173.998 158.352 175.564C157.976 173.45 157.367 171.349 155.803 169.854C154.567 168.67 152.889 168.104 151.203 168.104C150.528 168.104 149.853 168.196 149.209 168.372" fill="white"/>
</mask>
<g mask="url(#mask0_808_849)">
<path d="M140.951 159.003L126.953 215.919L175.644 227.918L189.642 171.002L140.951 159.003Z" fill="url(#paint0_linear_808_849)"/>
</g>
<mask id="mask1_808_849" style="mask-type:luminance" maskUnits="userSpaceOnUse" x="180" y="174" width="7" height="20">
<path d="M183.013 175.038C181.712 175.682 181.593 176.805 181.313 178.147C180.989 179.708 180.743 181.265 180.608 182.852C180.367 185.685 179.648 190.044 181.212 192.531C182.794 195.048 185.374 193.654 186.044 191.794C186.075 191.825 186.106 191.856 186.136 191.886C186.636 190.29 186.15 189.005 185.909 187.409C185.685 185.9 185.567 184.374 185.492 182.852C185.418 181.339 185.361 179.826 185.335 178.313C185.308 177.05 185.44 176.125 184.441 175.222C184.191 174.998 183.907 174.888 183.613 174.888C183.411 174.888 183.21 174.937 183.013 175.038Z" fill="white"/>
</mask>
<g mask="url(#mask1_808_849)">
<path d="M180.057 173.268L174.984 193.896L186.249 196.672L191.322 176.044L180.057 173.268Z" fill="url(#paint1_linear_808_849)"/>
</g>
<mask id="mask2_808_849" style="mask-type:luminance" maskUnits="userSpaceOnUse" x="180" y="165" width="7" height="7">
<path d="M182.531 165.745C181.716 166.122 181.099 167.078 180.98 167.942C180.862 168.81 181.199 169.718 181.896 170.222C182.233 170.849 182.842 171.244 183.609 171.235C184.384 171.231 185.068 170.771 185.528 170.178C186.478 168.946 186.408 167.231 185.313 166.1C184.875 165.648 184.327 165.455 183.762 165.455C183.346 165.455 182.925 165.561 182.531 165.74" fill="white"/>
</mask>
<g mask="url(#mask2_808_849)">
<path d="M181.184 164.153L179.521 170.915L186.158 172.55L187.821 165.788L181.184 164.153Z" fill="url(#paint2_linear_808_849)"/>
</g>
<mask id="mask3_808_849" style="mask-type:luminance" maskUnits="userSpaceOnUse" x="188" y="173" width="21" height="24">
<path d="M191.462 174.055C189.447 176.45 189.158 180.011 188.759 183.015C188.321 186.295 188.22 189.58 188.391 192.882C188.545 195.807 192.777 197.452 194.279 194.478C195.05 192.948 195.282 191.176 194.809 189.496C194.735 189.224 194.59 189.005 194.406 188.834C194.336 187.141 194.327 185.449 194.398 183.751C194.428 183.05 194.511 182.326 194.608 181.594C195.173 181.475 195.734 181.317 196.378 181.116C197.328 180.813 198.397 180.449 199.396 180.761C201.333 181.366 201.723 184.457 201.972 186.172C202.27 188.238 201.114 190.566 202.305 192.456C203.874 194.939 207.418 192.987 208.22 190.908C209.845 186.69 207.611 179.774 204.128 177.033C201.657 175.086 197.85 174.945 195.055 176.406C195.028 175.91 194.967 175.423 194.858 174.95C194.647 174.042 193.714 173.45 192.816 173.45C192.312 173.45 191.817 173.634 191.467 174.051" fill="white"/>
</mask>
<g mask="url(#mask3_808_849)">
<path d="M189.455 168.434L182.654 196.088L208.608 202.484L215.409 174.83L189.455 168.434Z" fill="url(#paint3_linear_808_849)"/>
</g>
<mask id="mask4_808_849" style="mask-type:luminance" maskUnits="userSpaceOnUse" x="176" y="197" width="23" height="21">
<path d="M183.051 200.276C179.577 202.534 176.313 206.687 176.134 210.972C175.915 216.234 181.18 218.787 185.724 217.3C188.045 216.541 190.477 215.107 192.571 213.336C193.141 214.756 194.069 215.923 195.774 216.423C196.694 216.695 197.741 216.098 197.977 215.169C198.761 212.121 197.587 209.051 197.127 206.051C196.707 203.297 192.908 203.389 191.638 205.332C190.192 207.542 187.848 208.99 185.649 210.358C184.952 210.792 183.332 212.103 182.385 211.695C181.57 211.345 181.982 210.542 182.276 209.779C183.932 205.49 188.593 202.999 192.904 202.284C194.074 202.091 194.481 200.578 193.969 199.666C193.198 198.298 191.844 197.798 190.315 197.798C187.748 197.798 184.685 199.206 183.047 200.267" fill="white"/>
</mask>
<g mask="url(#mask4_808_849)">
<path d="M177.223 192.498L171.053 217.588L197.461 224.096L203.632 199.006L177.223 192.498Z" fill="url(#paint4_linear_808_849)"/>
</g>
<mask id="mask5_808_849" style="mask-type:luminance" maskUnits="userSpaceOnUse" x="199" y="196" width="18" height="20">
<path d="M208.172 201.166C209.254 201.214 209.63 202.109 208.61 202.697C207.528 203.319 206.056 203.473 204.824 203.723C205.394 202.28 206.406 201.087 208.172 201.166ZM200.807 200.534C198.2 205.306 197.946 212.516 203.926 214.717C207.834 216.155 215.093 215.66 216.351 210.81C216.622 209.766 215.702 209.025 214.73 209.187C213.77 209.349 212.732 209.244 211.755 209.384C210.599 209.551 209.455 209.683 208.285 209.696C206.082 209.726 203.953 209.266 204.198 206.543C204.207 206.424 204.22 206.301 204.237 206.174C205.985 207.889 208.719 207.599 210.945 206.665C213.705 205.512 214.244 202.832 213.175 200.232C212.132 197.693 209.924 196.566 207.611 196.566C204.965 196.566 202.174 198.035 200.807 200.53" fill="white"/>
</mask>
<g mask="url(#mask5_808_849)">
<path d="M199.015 192.232L193.406 215.039L215.557 220.498L221.166 197.691L199.015 192.232Z" fill="url(#paint5_linear_808_849)"/>
</g>
<mask id="mask6_808_849" style="mask-type:luminance" maskUnits="userSpaceOnUse" x="204" y="195" width="25" height="30">
<path d="M214.564 202.021C214.502 204.236 215.817 205.994 217.622 207.117C218.91 207.92 221.096 208.099 222.086 209.244C224.36 211.866 220.088 214.678 218.117 215.467C216.04 216.3 213.845 216.831 211.65 217.225C209.276 217.651 207.261 217.708 205.337 219.339C204.711 219.87 204.544 221.102 205.022 221.782C208.172 226.238 214.459 223.896 218.546 222.15C222.449 220.484 226.471 218.054 227.983 213.857C229.363 210.02 228.443 205.784 224.89 203.525C223.755 202.802 222.138 202.069 220.736 201.64C220.907 201.482 221.074 201.319 221.249 201.205C222.252 200.534 223.146 200.293 223.873 199.271C224.368 198.579 224.053 197.715 223.597 197.127C222.966 196.316 222.134 195.978 221.232 195.978C218.305 195.978 214.625 199.526 214.555 202.03" fill="white"/>
</mask>
<g mask="url(#mask6_808_849)">
<path d="M205.969 190.207L197.533 224.507L227.953 232.004L236.389 197.703L205.969 190.207Z" fill="url(#paint6_linear_808_849)"/>
</g>
<mask id="mask7_808_849" style="mask-type:luminance" maskUnits="userSpaceOnUse" x="224" y="189" width="21" height="25">
<path d="M233.605 191.531C232.137 192.053 230.507 192.829 228.943 192.952C228.33 193 227.752 192.895 227.173 192.79C226.468 192.658 225.772 192.531 225.027 192.685C224.519 192.79 224.006 193.413 224.063 193.948C224.396 197.009 227.287 197.956 230.1 198.022C229.701 199.57 229.815 201.504 229.776 202.705C229.671 205.964 229.964 209.56 231.804 212.358C232.457 213.349 233.929 213.173 234.297 212.033C235.024 209.775 235.177 207.301 235.449 204.955C235.716 202.644 236.514 200.026 235.743 197.767C235.677 197.57 235.589 197.39 235.497 197.219C238.963 196.241 242.327 194.54 244.386 191.544C245.092 190.514 244.119 189.387 243.09 189.286C242.743 189.251 242.402 189.233 242.064 189.233C239.059 189.233 236.435 190.527 233.605 191.536" fill="white"/>
</mask>
<g mask="url(#mask7_808_849)">
<path d="M225.217 184.333L218.42 211.969L243.893 218.247L250.689 190.61L225.217 184.333Z" fill="url(#paint7_linear_808_849)"/>
</g>
<mask id="mask8_808_849" style="mask-type:luminance" maskUnits="userSpaceOnUse" x="237" y="194" width="17" height="18">
<path d="M243.679 196.232C242.851 196.816 241.8 197.701 241.002 198.728C240.385 198.087 239.084 198.026 238.689 198.956C237.975 200.627 237.874 202.473 237.782 204.275C237.695 206.095 237.485 208.174 237.962 209.946C238.291 211.169 239.342 211.766 240.516 211.893C240.577 211.902 240.643 211.906 240.705 211.915C241.489 211.998 242.308 211.415 242.689 210.774C243.666 209.139 242.891 206.735 242.667 204.955C242.619 204.582 242.575 204.196 242.527 203.81C243.526 203.424 244.135 202.49 245.046 201.903C246.282 201.109 247.881 200.701 249.304 200.372C250.597 200.074 252.029 200.052 252.967 198.964C253.961 197.815 253.62 196.276 252.595 195.281C251.749 194.461 250.667 194.136 249.519 194.136C247.443 194.136 245.16 195.189 243.679 196.228" fill="white"/>
</mask>
<g mask="url(#mask8_808_849)">
<path d="M238.434 190.317L233.352 210.983L253.022 215.83L258.104 195.165L238.434 190.317Z" fill="url(#paint8_linear_808_849)"/>
</g>
<mask id="mask9_808_849" style="mask-type:luminance" maskUnits="userSpaceOnUse" x="245" y="199" width="18" height="18">
<path d="M250.159 209.463C249.126 208.538 251.465 206.88 252.21 206.253C253.165 205.446 254.037 204.894 255 204.442C255.04 204.635 255.092 204.832 255.171 205.038C255.789 206.639 255.325 207.459 254.067 208.617C253.349 209.279 252.433 210.011 251.487 210.011C251.049 210.011 250.602 209.854 250.164 209.463M247.951 204.166C245.13 206.613 243.956 210.481 246.782 213.419C247.982 214.664 249.682 215.651 251.373 215.962C253.55 216.362 255.408 215.375 257.112 214.125C260.442 211.687 263.197 207.49 261.808 203.201C261.178 201.254 259.403 200.618 257.817 200.89C257.739 200.811 257.655 200.732 257.563 200.662C256.906 200.184 256.188 199.982 255.447 199.982C252.749 199.982 249.721 202.635 247.956 204.166" fill="white"/>
</mask>
<g mask="url(#mask9_808_849)">
<path d="M245.06 195.513L240.162 215.429L262.104 220.837L267.002 200.92L245.06 195.513Z" fill="url(#paint9_linear_808_849)"/>
</g>
<mask id="mask10_808_849" style="mask-type:luminance" maskUnits="userSpaceOnUse" x="210" y="175" width="7" height="20">
<path d="M213.22 176.042C211.918 176.686 211.8 177.809 211.52 179.151C211.195 180.712 210.95 182.269 210.814 183.857C210.573 186.69 209.859 191.049 211.423 193.531C213.005 196.048 215.585 194.654 216.256 192.794C216.286 192.825 216.317 192.856 216.348 192.886C216.847 191.286 216.361 190.005 216.12 188.409C215.896 186.9 215.778 185.374 215.704 183.852C215.629 182.339 215.572 180.826 215.546 179.313C215.52 178.05 215.651 177.125 214.652 176.222C214.402 175.998 214.118 175.888 213.824 175.888C213.623 175.888 213.421 175.937 213.224 176.037" fill="white"/>
</mask>
<g mask="url(#mask10_808_849)">
<path d="M210.26 174.274L205.188 194.902L216.452 197.677L221.525 177.05L210.26 174.274Z" fill="url(#paint10_linear_808_849)"/>
</g>
<mask id="mask11_808_849" style="mask-type:luminance" maskUnits="userSpaceOnUse" x="211" y="166" width="6" height="7">
<path d="M212.732 166.745C211.917 167.122 211.3 168.078 211.181 168.942C211.063 169.815 211.4 170.718 212.097 171.227C212.434 171.854 213.043 172.248 213.81 172.24C214.585 172.235 215.269 171.775 215.729 171.183C216.68 169.95 216.609 168.236 215.514 167.104C215.076 166.648 214.524 166.46 213.963 166.46C213.547 166.46 213.127 166.565 212.732 166.745Z" fill="white"/>
</mask>
<g mask="url(#mask11_808_849)">
<path d="M211.388 165.154L209.725 171.916L216.361 173.552L218.024 166.79L211.388 165.154Z" fill="url(#paint11_linear_808_849)"/>
</g>
<path d="M192.857 222.168C192.69 222.76 192.839 223.369 193.325 223.826C193.812 224.286 194.517 224.409 195.157 224.312C196.488 224.111 197.465 222.992 197.452 221.633C197.443 220.686 196.76 220.032 195.928 219.747C195.192 219.497 194.237 219.725 193.649 220.194C193.058 220.668 192.725 221.435 192.861 222.168" fill="#BCD631"/>
<path d="M250.689 184.65C249.537 185.032 249.011 186.115 248.985 187.247C248.963 188.242 249.616 189.317 250.417 189.852C251.228 190.391 252.288 190.492 253.125 190.044C253.914 190.014 254.597 189.597 254.961 188.825C255.329 188.049 255.206 187.146 254.838 186.405C254.071 184.861 252.332 184.107 250.685 184.646" fill="#66CDF2"/>
<path d="M258.86 194.816C258.483 194.689 257.992 194.803 257.69 195.048C257.383 195.294 257.217 195.689 257.283 196.061C257.199 196.368 257.274 196.68 257.524 196.912C257.773 197.149 258.133 197.21 258.466 197.162C259.149 197.057 259.653 196.482 259.648 195.785C259.648 195.298 259.294 194.961 258.864 194.816" fill="#66CDF2"/>
<path d="M238.747 215.765C238.011 215.515 237.056 215.743 236.469 216.212C235.878 216.686 235.545 217.453 235.681 218.186C235.514 218.778 235.663 219.387 236.15 219.844C236.636 220.304 237.337 220.427 237.981 220.33C239.313 220.129 240.29 219.01 240.276 217.651C240.268 216.704 239.584 216.05 238.752 215.765" fill="#66CDF2"/>
<path d="M136.608 204.578C136.166 204.784 135.828 205.301 135.767 205.771C135.701 206.244 135.885 206.735 136.262 207.007C136.446 207.349 136.775 207.56 137.191 207.556C137.611 207.556 137.984 207.306 138.229 206.981C138.746 206.314 138.707 205.38 138.115 204.771C137.699 204.341 137.108 204.341 136.608 204.573" fill="#EE4F9C"/>
<path d="M143.128 215.046C142.392 214.796 141.437 215.024 140.85 215.493C140.259 215.967 139.926 216.734 140.062 217.467C139.895 218.059 140.044 218.668 140.53 219.124C141.017 219.585 141.718 219.708 142.362 219.611C143.693 219.409 144.67 218.291 144.657 216.932C144.648 215.984 143.965 215.331 143.133 215.046" fill="#EE4F9C"/>
<path d="M149.712 210.393C147.864 211.003 147.018 212.744 146.983 214.559C146.952 216.155 147.995 217.883 149.283 218.738C150.58 219.598 152.284 219.765 153.629 219.05C154.891 219.002 155.986 218.331 156.573 217.098C157.164 215.857 156.967 214.406 156.376 213.213C155.149 210.739 152.359 209.525 149.712 210.393Z" fill="#FCDD34"/>
<path d="M113.543 175.511C112.68 174.459 111.734 173.577 110.7 172.722C111.318 173.525 111.804 174.393 112.023 175.415C111.038 174.046 110.043 172.634 108.803 171.332C107.217 170.275 105.487 169.437 103.726 168.758C103.945 168.609 104.173 168.534 104.396 168.516C103.721 168.367 103.055 168.236 102.394 168.109C102.166 168.183 101.938 168.271 101.719 168.359C101.807 168.28 102.008 168.179 102.162 168.069C100.12 167.692 98.0479 167.424 96.0151 167.622C96.1728 167.591 96.2298 167.403 96.2824 167.245C96.1728 167.28 96.0633 167.306 95.9538 167.328C95.6646 167.442 95.3843 167.574 95.1039 167.644C95.3667 167.464 95.6603 167.389 95.9538 167.328C96.0721 167.28 96.1904 167.231 96.3043 167.183C96.3568 167.043 96.4313 166.955 96.5978 167.06C97.1454 166.859 97.6799 166.723 98.0786 166.898C98.8321 167.227 99.5287 167.214 100.23 167.214C100.922 167.218 101.618 167.227 102.188 167.626C102.46 167.78 102.346 167.933 102.157 168.069L102.394 168.109C102.915 167.951 103.458 167.859 103.94 167.995C104.203 168.087 104.457 168.201 104.711 168.319C104.965 168.429 105.211 168.56 105.452 168.696L105.754 168.81L105.592 168.775C106.832 169.472 107.888 170.376 108.803 171.336C109.456 171.77 110.096 172.235 110.7 172.726C109.824 171.586 108.702 170.613 107.638 169.494C108.724 169.665 109.789 170.139 110.652 170.836C110.148 170.323 109.592 169.836 109 169.376C108.632 168.907 108.234 168.455 108.067 167.916C108.676 168.411 109.189 168.762 109.793 168.951C108.843 168.065 107.747 167.188 106.508 166.416C107.187 166.802 107.953 167.104 108.645 167.495C109.338 167.885 109.969 168.367 110.345 169.073C110.148 169.047 109.969 169.003 109.793 168.951C111.533 170.564 112.882 172.178 114.262 173.722C114.345 172.112 112.255 171.788 111.874 170.218C112.891 170.906 113.767 171.744 114.569 172.617C114.915 172.998 115.265 173.411 115.616 173.849C116.071 173.358 116.531 172.867 116.991 172.38C116.632 171.836 116.286 171.314 115.971 170.814C115.235 169.657 114.455 168.411 113.495 167.183C114.363 167.104 114.656 167.534 114.774 168.03C114.902 168.525 114.866 169.095 115.16 169.354C116.036 170.021 116.742 170.687 117.495 171.516C117.548 171.573 117.6 171.634 117.648 171.696C118.165 171.156 118.691 170.621 119.212 170.091C119.02 169.863 118.831 169.639 118.639 169.437C118.306 169.082 117.986 168.775 117.627 168.464C117.267 168.157 116.882 167.863 116.461 167.587C114.661 166.78 112.97 165.697 111.02 164.776C110.126 163.991 108.553 163.039 107.791 162.978C105.666 163 103.647 163.302 101.75 163.701C99.8485 164.096 98.0654 164.622 96.3043 165.122C94.7096 165.412 93.0974 165.99 91.621 166.784C90.1402 167.569 88.7909 168.516 87.5248 169.499C86.2499 170.477 85.0495 171.481 83.7834 172.463C82.5129 173.446 81.1636 174.406 79.582 175.393C80.0157 175.235 80.41 175.007 80.7912 174.753C81.1855 174.507 81.5491 174.222 81.9346 173.968C82.6969 173.454 83.4767 173.016 84.331 172.998L84.4537 173.533C85.067 173.691 85.7855 173.301 86.32 173.27C86.3769 173.533 86.1141 173.551 85.8512 173.582C86.1141 173.551 86.1185 173.555 86.3769 173.529C85.9739 174.082 85.0626 174.687 84.4975 175.34C83.9236 175.985 83.7002 176.594 84.5632 176.844C84.9882 176.972 85.3825 176.95 85.7636 176.844C86.1316 176.735 86.4908 176.542 86.8457 176.318C87.551 175.871 88.2651 175.301 89.0012 174.989C89.0099 175.814 88.62 176.287 88.1951 176.787C87.7701 177.274 87.2663 177.77 87.1655 178.392C87.6299 178.283 88.2082 178.397 88.5324 178.147C88.953 177.835 89.4086 177.572 89.8467 177.331C90.1271 176.993 90.1709 176.458 91.104 176.77L91.2223 176.726C91.2311 176.629 91.1347 176.441 91.1829 176.375C91.5596 176.248 91.9189 176.551 91.9802 176.059C92.0547 176.138 92.0941 176.208 92.1248 176.27C92.1204 176.09 92.3745 176.125 92.3132 175.853C92.4446 176.002 92.576 176.156 92.6987 176.265C93.5267 176.059 94.3065 175.928 95.0294 175.823C95.2484 175.801 95.45 175.752 95.6515 175.735C95.7961 175.643 95.9582 175.577 96.1422 175.568C96.221 175.529 96.186 175.112 96.2035 175.002C96.3612 175.103 96.5102 175.204 96.6547 175.292C96.8037 175.384 96.9526 175.472 97.0972 175.524C97.1191 175.41 97.2067 175.388 97.2637 175.169C97.3382 175.323 97.4126 175.459 97.4827 175.568C97.8245 175.551 98.1662 175.555 98.5035 175.568V175.52C98.8408 175.437 99.2527 175.59 99.6207 175.66C99.9974 175.722 100.339 175.673 100.703 175.116C100.751 175.511 100.817 175.814 100.913 176.024C101.259 176.169 101.592 176.327 101.886 176.546C101.973 176.432 102.026 176.248 102.083 176.121C102.17 176.331 102.21 176.608 102.258 176.849C102.473 177.037 102.687 177.274 102.889 177.546C102.998 177.524 103.125 177.471 103.283 177.397C103.2 177.59 103.152 177.752 103.13 177.888C103.204 178.002 103.274 178.116 103.345 178.243C103.537 178.568 104.054 178.989 104.707 179.511C104.852 179.454 104.979 179.401 104.97 179.449C105.128 179.629 105.277 179.822 105.39 180.033C106.078 180.559 106.665 180.949 107.025 181.085C107.318 181.103 107.712 180.554 108.037 179.897C108.369 179.248 108.624 178.498 108.886 178.34C109.929 177.835 110.459 177.971 110.924 178.296C111.077 178.406 111.222 178.533 111.375 178.664C112.163 177.717 112.97 176.779 113.789 175.853C113.701 175.739 113.622 175.621 113.535 175.511" fill="#F5A326"/>
<path d="M106.883 193.781C106.769 192.891 106.318 192.448 105.656 191.93C104.841 191.299 103.961 190.746 103.028 190.303C105.63 185.949 108.775 181.712 112.223 177.664C112.052 177.599 111.877 177.546 111.702 177.498C111.321 177.397 110.94 177.344 110.563 177.331C108.946 176.713 107.198 176.375 105.367 176.375C103.68 176.375 102.068 176.665 100.561 177.191C100.193 176.844 99.7638 176.489 99.2512 176.134C98.9358 175.923 98.6072 175.722 98.2699 175.537C97.9281 175.349 97.5119 175.165 97.122 175.007C96.7409 174.849 96.2765 174.713 95.8428 174.599C95.4003 174.481 94.9534 174.406 94.4934 174.353C93.5515 174.239 92.7323 174.266 91.8429 174.371C90.9492 174.489 90.13 174.717 89.4422 174.981C88.658 175.261 88.0052 175.594 87.4795 175.901C86.9581 176.213 86.5463 176.502 86.2178 176.752C86.1783 176.783 86.1477 176.805 86.1126 176.831C86.1959 176.704 86.2703 176.568 86.358 176.441C86.5814 176.121 86.8048 175.796 87.0282 175.494C87.2561 175.217 87.4751 174.998 87.6722 174.849C87.8694 174.695 88.0446 174.634 88.1454 174.652C88.1717 174.652 88.1892 174.669 88.2067 174.682C88.1235 174.581 88.0227 174.485 87.9439 174.375C87.9702 174.41 87.9964 174.441 88.0227 174.476C88.1804 174.647 88.0841 174.551 88.0753 174.551C88.049 174.538 88.014 174.538 87.9789 174.529C87.8256 174.529 87.5978 174.612 87.3524 174.757C87.1027 174.897 86.8311 175.095 86.5463 175.301C86.2703 175.533 85.9856 175.744 85.6964 175.923L85.6307 175.02C85.2364 175.108 84.7545 175.52 84.2638 176.002C84.0097 176.239 83.7995 176.515 83.5892 176.774C83.3789 177.029 83.1774 177.27 82.9934 177.463C82.9408 177.055 83.2124 176.708 83.5191 176.384C83.2869 176.621 83.2387 176.673 82.9276 176.993C83.1993 176.125 83.8038 175.147 84.4216 174.169C85.0656 173.222 85.8629 172.459 86.4894 172.226C86.6427 172.161 86.7961 172.121 86.9187 172.095C86.9932 172.095 87.0721 172.082 87.1641 172.086C87.3481 172.086 87.5408 172.112 87.6985 172.121C87.8519 172.13 87.9921 172.108 88.1191 172.047C88.2505 171.981 88.4039 171.871 88.5134 171.661C88.6229 171.45 88.6404 171.196 88.5003 170.92C88.3688 170.643 88.0797 170.363 87.6372 170.152C87.4182 170.047 87.1553 169.972 86.8618 169.929C86.577 169.898 86.2134 169.902 85.8979 169.972C85.2452 170.086 84.5661 170.407 83.9791 170.841C83.3833 171.275 82.8751 171.819 82.4238 172.389C81.9594 172.959 81.6133 173.547 81.2234 174.147C81.0351 174.446 80.8379 174.748 80.6583 175.051C80.4918 175.362 80.3297 175.673 80.1676 175.98C80.0011 176.292 79.839 176.599 79.6769 176.897C79.5192 177.2 79.3966 177.511 79.2564 177.809C79.2608 177.524 79.2827 177.239 79.3089 176.95C79.3528 176.665 79.4141 176.384 79.4798 176.094C79.6244 175.529 79.7558 174.937 79.9968 174.38C80.4874 173.257 80.9518 172.174 81.8981 170.977C82.3625 170.393 82.9364 169.788 83.6943 169.271C84.0711 169.012 84.4873 168.775 84.9473 168.591C85.1795 168.494 85.3898 168.424 85.6658 168.345C85.9549 168.266 86.244 168.214 86.52 168.187C87.646 168.082 88.6492 168.284 89.5911 168.714C90.0599 168.929 90.5155 169.214 90.9361 169.608C91.3523 169.994 91.7466 170.494 91.9831 171.113C91.8736 170.49 91.6502 169.999 91.3961 169.538C91.142 169.104 90.8397 168.705 90.4761 168.363C89.7401 167.688 88.7806 167.052 87.0326 166.968C86.4806 166.946 85.8936 166.999 85.289 167.144C85.1269 167.179 85.0086 167.214 84.8947 167.249L84.5398 167.359C84.312 167.442 84.0798 167.53 83.8652 167.626C82.9934 168.021 82.2486 168.538 81.6572 169.06C80.4699 170.113 79.7164 171.174 79.1162 172.069C78.643 173.029 78.2181 173.946 77.8545 174.853C77.6573 175.301 77.4339 175.735 77.1623 176.151C76.9082 176.572 76.6234 176.989 76.251 177.393C76.1765 177.568 76.1064 177.743 76.032 177.919C76.0101 178.107 76.0276 178.305 76.0363 178.493C76.0583 178.686 76.0758 178.879 76.0363 179.063C75.7735 179.87 75.4931 180.34 75.2784 180.853C75.0944 181.366 74.9805 181.927 75.0506 182.883C74.9323 182.892 74.8535 182.813 74.7921 182.699C74.8535 183.282 74.6125 184.172 74.8579 184.826C74.6388 184.852 74.4198 184.874 74.2358 185.006C73.675 189.181 74.0737 193.522 75.3661 197.763C75.5369 198.399 75.7954 199.008 76.0276 199.622C76.2642 200.232 76.492 200.846 76.7943 201.429C77.0659 201.916 77.3419 202.411 77.6223 202.916C77.9026 203.416 78.2312 203.907 78.5247 204.424C78.8665 204.92 79.5061 205.144 79.7821 205.293C80.1194 205.981 80.4655 206.674 80.8511 207.393C81.2804 208.086 81.7623 208.792 82.3231 209.542C82.5947 209.674 83.081 210.152 83.8652 210.546C84.1193 210.994 84.4829 211.481 85.0261 211.989C85.8366 212.524 86.8705 213.072 88.1191 213.445C88.2724 213.493 88.4345 213.533 88.5923 213.577C88.75 213.616 88.9033 213.656 89.1224 213.695C89.5342 213.778 89.9372 213.831 90.3271 213.862C91.1157 213.923 91.8736 213.897 92.614 213.796C94.0904 213.586 95.5624 213.112 97.0519 212.099C97.7923 211.59 98.5327 210.91 99.1636 210.068C99.4002 209.753 99.6061 209.406 99.7988 209.051C99.9784 209.235 100.158 209.424 100.351 209.599L101.148 210.349C101.253 210.45 101.486 210.652 101.691 210.823C101.902 210.998 102.138 211.178 102.384 211.362C102.033 211.051 101.731 210.748 101.481 210.463L101.385 210.353L101.323 210.27L101.209 210.104C101.139 209.994 101.065 209.884 100.995 209.775C100.723 209.332 100.473 208.902 100.307 208.455C100.246 208.433 100.184 208.393 100.127 208.367C100.298 207.963 100.452 207.547 100.552 207.121C100.688 206.556 100.745 205.972 100.728 205.389C99.5842 206.117 98.3137 206.661 96.9818 207.021C94.8527 207.595 92.5614 207.705 90.3797 207.371C86.4762 206.771 82.9014 204.749 81.1884 201.398L81.0964 201.223C81.1796 201.39 81.1271 201.289 81.0964 201.223C80.7591 200.578 80.597 200.267 80.965 199.64C81.3768 198.938 81.7448 198.969 82.4545 199.035C82.4589 199.035 82.4633 199.035 82.6911 199.052C87.0764 199.35 87.5846 198.658 89.3984 196.158C89.7795 195.632 90.2132 195.035 90.7959 194.285C90.9098 194.141 90.9887 194.035 91.0456 193.974C93.0171 191.584 95.4091 190.466 97.8756 190.373C100.294 190.281 102.747 191.198 104.911 192.878C105.293 193.176 105.621 193.399 105.687 193.93C106.234 198.267 104.951 201.548 102.703 203.819C102.278 204.249 101.814 204.639 101.323 204.994C102.462 205.323 103.65 205.521 104.885 205.56C104.885 205.56 104.89 205.56 104.894 205.565C105.174 205.758 105.481 205.95 105.827 206.135C106.515 206.481 107.391 206.876 108.627 206.85C109.235 206.832 109.901 206.661 110.44 206.336C110.992 206.021 111.452 205.529 111.711 205.034C112 204.499 111.969 204.323 111.908 204.345C111.838 204.363 111.68 204.578 111.43 204.828C111.189 205.082 110.817 205.354 110.48 205.477C110.142 205.613 109.871 205.604 109.814 205.525C109.976 205.284 110.134 205.016 110.247 204.731C110.375 204.687 110.497 204.639 110.62 204.591C110.55 204.723 110.471 204.85 110.37 204.964C110.502 204.845 110.598 204.705 110.686 204.56C114.563 203.034 117.634 199.899 119.062 195.969C119.097 196.004 119.132 196.053 119.163 196.088C119.456 196.004 119.732 196.197 119.982 196.351C120.232 196.509 120.464 196.623 120.661 196.487C120.389 196.167 120.004 195.693 119.544 195.026C119.504 194.969 119.461 194.904 119.417 194.842C119.43 194.794 119.443 194.75 119.456 194.702C119.601 194.873 119.741 195.022 119.877 195.162C119.745 195.022 119.605 194.86 119.461 194.684C119.772 193.5 119.938 192.255 119.938 190.97C119.938 189.685 119.767 188.435 119.456 187.247C115.456 190.562 111.286 193.562 107.01 196.022C107.019 195.281 106.975 194.531 106.878 193.777M86.1301 195.382C86.1301 195.382 86.117 195.347 86.1082 195.329C86.117 195.347 86.1214 195.364 86.1301 195.382ZM84.1017 185.918C84.496 185.063 84.956 184.203 85.4861 183.365C85.5299 183.365 85.5738 183.365 85.6176 183.37C85.0349 184.181 84.5267 185.032 84.1017 185.913M85.4336 191.641C85.4993 190.786 85.6482 189.944 85.8673 189.115C85.933 189.154 85.9943 189.198 86.0644 189.233C85.749 190.093 85.5694 191.119 85.5694 192.224C85.5694 193.329 85.7534 194.36 86.0688 195.224C85.6307 194.105 85.3722 192.882 85.4336 191.645M86.818 197.517C86.5639 197.096 86.3098 196.675 86.0863 196.237C86.1564 196.114 86.3185 196.276 86.4981 196.513C86.428 196.294 86.3842 196.066 86.3273 195.838C86.3229 195.829 86.3185 195.816 86.3141 195.807C86.3141 195.816 86.3229 195.82 86.3273 195.829C86.3273 195.829 86.3273 195.833 86.3273 195.838C86.4543 196.118 86.5901 196.39 86.7391 196.658C86.8793 196.93 87.037 197.188 87.1991 197.447C87.0282 197.28 86.7347 196.833 86.4938 196.513C86.5858 196.851 86.6997 197.184 86.8136 197.517" fill="#FCDD34"/>
<path d="M104.922 192.877C105.023 192.956 105.119 193.031 105.211 193.11L105.294 192.939C105.706 192.886 106.113 192.829 106.525 192.79C106.17 192.737 105.816 192.671 105.461 192.601L105.675 192.163C105.781 192.171 105.881 192.193 105.986 192.202C105.881 192.11 105.772 192.022 105.658 191.93C104.843 191.299 103.962 190.746 103.029 190.303C105.478 186.203 108.413 182.208 111.625 178.375C111.52 178.327 111.414 178.274 111.309 178.226C111.441 178.243 111.572 178.261 111.704 178.283C114.109 175.419 116.667 172.652 119.305 169.994C119.186 169.898 119.068 169.797 118.95 169.7C118.49 169.556 117.557 169.012 116.334 168.376C115.09 167.727 113.382 166.885 111.287 166.337C109.237 165.806 107.13 165.67 105.342 165.793C103.555 165.911 102.083 166.258 101.216 166.455L100.918 166.574C99.9889 166.846 98.99 167.288 98.1182 167.885C97.2726 168.473 96.4534 169.271 95.9846 170.104C95.5991 170.95 95.3801 171.867 95.2793 172.753C95.7043 172.634 96.1161 172.564 96.4885 172.547C95.9715 173.055 95.5334 173.652 95.6385 174.051C95.5465 174.893 95.8532 175.209 96.2606 175.336C96.6725 175.463 97.2245 175.428 97.7984 175.542C98.0831 175.542 98.3241 175.739 98.5738 175.915C98.8235 176.09 99.0908 176.244 99.3974 176.222C99.2309 176.445 99.1433 176.564 99.0075 176.814C99.2003 176.941 99.2353 176.717 99.3098 176.533C99.393 176.353 99.4982 176.217 99.7523 176.515C99.4675 176.629 99.5727 177.037 99.4631 177.261C99.7523 177.362 99.8793 177.195 100.024 177.059C100.164 176.919 100.309 176.809 100.545 177.007C100.567 177.094 100.313 177.103 100.133 177.173C99.945 177.239 99.8487 177.357 100.168 177.555C100.3 177.634 100.405 177.445 100.466 177.357C100.436 177.55 100.466 177.739 100.541 177.906C100.488 177.932 100.436 177.954 100.379 177.985L100.409 178.02C99.1915 178.761 98.1138 179.708 97.2288 181.063C96.7907 181.743 96.4052 182.55 96.1555 183.501C95.9058 184.444 95.8138 185.558 95.9846 186.672C96.1555 187.812 96.5673 188.808 97.0273 189.553C97.2288 189.878 97.4347 190.154 97.6319 190.391C97.7151 190.387 97.7984 190.369 97.886 190.369C100.304 190.277 102.758 191.193 104.922 192.873M104.291 185.497C104.26 185.488 104.23 185.479 104.203 185.475C104.221 185.475 104.238 185.479 104.256 185.484C104.269 185.484 104.278 185.492 104.291 185.497ZM104.252 185.326C104.252 185.326 104.23 185.339 104.221 185.343C104.208 185.352 104.203 185.352 104.195 185.356C104.212 185.348 104.234 185.335 104.256 185.321M104.133 185.387C104.133 185.387 104.103 185.4 104.089 185.409C104.103 185.405 104.12 185.396 104.133 185.387ZM104.116 185.457C104.094 185.457 104.072 185.453 104.054 185.453C104.072 185.453 104.094 185.453 104.116 185.457ZM104.054 185.422C104.054 185.422 104.054 185.422 104.05 185.422L103.954 185.453C103.949 185.453 103.967 185.453 103.976 185.453C103.976 185.453 103.989 185.453 103.993 185.453C103.98 185.453 103.962 185.453 103.954 185.453L104.054 185.422Z" fill="#EE4F9C"/>
<path d="M114.945 192.145C114.709 192.255 114.358 192.299 114.008 192.342C114.117 192.404 114.577 192.597 114.573 192.654C114.49 192.746 114.472 192.856 114.481 192.97C114.761 192.641 114.967 192.299 115.138 191.952C114.985 191.943 114.814 191.926 114.617 191.9C114.845 192.022 114.84 192.084 114.954 192.145" fill="#BCD631"/>
<path d="M106.997 178.265C106.449 178.213 106.778 178.116 106.375 178.042C106.033 178.199 105.888 178.344 105.95 178.524L105.827 178.164C105.928 178.463 105.84 178.791 106.164 179.112C106.208 179.221 104.456 179.348 105.722 179.502C106.313 179.063 106.997 178.669 107.001 178.261" fill="#BCD631"/>
<path d="M107.037 177.748C107.037 177.708 107.029 177.669 107.015 177.625C106.941 177.656 106.98 177.699 107.037 177.748Z" fill="#BCD631"/>
<path d="M108.944 180.177C109.123 179.993 109.281 179.818 109.417 179.651C109.355 179.629 109.281 179.612 109.176 179.594C108.532 179.8 109.075 179.989 108.944 180.182" fill="#BCD631"/>
<path d="M111.049 178.932C110.493 179.068 110.274 179.234 110.331 179.392C110.423 179.23 110.616 179.072 111.049 178.932Z" fill="#BCD631"/>
<path d="M115.334 191.347L115.386 191.365C115.557 190.935 115.706 190.505 115.894 190.088C115.785 190.172 115.671 190.255 115.561 190.343C115.837 190.737 115.268 191.005 115.338 191.351" fill="#BCD631"/>
<path d="M87.8743 208.279L89.2718 210.827C89.9027 211.98 90.665 212.897 91.4973 213.704C92.3385 214.502 93.2629 215.186 94.3231 215.765C93.46 215.208 92.5838 214.555 91.7427 213.752C90.9015 212.945 90.0823 211.998 89.3945 210.753L88.0802 208.376C87.9575 208.148 87.8524 207.911 87.7647 207.665C87.6465 207.332 87.572 206.994 87.5369 206.657C87.4668 206.63 87.3967 206.6 87.3223 206.573C87.3967 207.152 87.5764 207.731 87.8787 208.279" fill="#66CDF2"/>
<path d="M92.5806 209.204L92.1074 209.56C92.1293 209.582 92.1556 209.608 92.1819 209.63L92.6463 209.283C92.6244 209.261 92.6025 209.231 92.5806 209.204Z" fill="#66CDF2"/>
<path d="M90.7131 216.44C89.6135 216.8 89.1141 217.839 89.0922 218.914C89.0746 219.861 89.6924 220.887 90.459 221.396C91.2301 221.909 92.2421 222.006 93.0394 221.58C93.7886 221.55 94.4413 221.155 94.7874 220.422C95.1379 219.686 95.024 218.822 94.6692 218.116C93.9419 216.647 92.2815 215.923 90.7131 216.44Z" fill="#66CDF2"/>
<path d="M87.2036 173.266C87.1864 173.309 87.1777 173.33 87.1777 173.33C87.1777 173.33 87.1864 173.313 87.2036 173.266Z" fill="#FCDD34"/>
<path d="M87.1215 172.639L87.1172 172.63L87.1301 172.664L87.1215 172.639Z" fill="#FCDD34"/>
<path d="M87.5469 173.792C87.6433 174.06 87.6214 173.994 87.5469 173.792Z" fill="#FCDD34"/>
<path d="M87.9216 174.361C87.9216 174.361 87.9302 174.374 87.9388 174.379C87.9216 174.357 87.9 174.327 87.8828 174.31C87.8957 174.327 87.9087 174.344 87.9259 174.361" fill="#FCDD34"/>
<path d="M87.458 173.56C87.4186 173.45 87.3616 173.305 87.3047 173.147C87.3573 173.288 87.4098 173.428 87.458 173.56Z" fill="#FCDD34"/>
<path d="M87.2867 173.104C87.221 172.933 87.1684 172.779 87.1333 172.683C87.1202 172.643 87.1114 172.621 87.1027 172.604C86.9493 172.183 87.0107 172.358 87.1333 172.683C87.1815 172.81 87.2341 172.954 87.2867 173.104Z" fill="#FCDD34"/>
<path d="M87.4883 173.647C87.497 173.678 87.5102 173.704 87.5189 173.731C87.5189 173.731 87.5058 173.691 87.4883 173.647Z" fill="#FCDD34"/>
<path d="M87.2168 173.24C87.2299 173.209 87.2518 173.165 87.2781 173.125C87.2694 173.147 87.2518 173.169 87.2431 173.187C87.2299 173.213 87.2299 173.222 87.2212 173.24" fill="#FCDD34"/>
<path d="M87.5234 173.735C87.5234 173.735 87.5234 173.731 87.5234 173.726C87.5234 173.726 87.5234 173.731 87.5234 173.735C87.5321 173.761 87.5364 173.774 87.5407 173.787C87.5364 173.769 87.5277 173.757 87.5234 173.735V173.744V173.731" fill="#FCDD34"/>
<path d="M87.2734 173.125C87.2734 173.125 87.2821 173.112 87.2864 173.104C87.2821 173.112 87.2777 173.121 87.2734 173.129" fill="#FCDD34"/>
<path d="M87.5293 173.753V173.77C87.5293 173.77 87.5465 173.796 87.5595 173.822C87.5508 173.804 87.5422 173.783 87.5379 173.774L87.5293 173.753Z" fill="#FCDD34"/>
<path d="M87.7166 174.082C87.7385 174.117 87.7648 174.152 87.7867 174.182C87.7385 174.117 87.6991 174.055 87.6641 174.003C87.6816 174.033 87.6991 174.06 87.7166 174.082Z" fill="#FCDD34"/>
<path d="M87.6113 173.915C87.6289 173.946 87.6464 173.972 87.6639 174.003C87.642 173.967 87.6245 173.941 87.6113 173.915Z" fill="#FCDD34"/>
<path d="M87.595 173.884C87.595 173.884 87.6079 173.901 87.6122 173.91C87.6036 173.892 87.595 173.875 87.582 173.858C87.5863 173.866 87.5906 173.875 87.595 173.884Z" fill="#FCDD34"/>
<path d="M87.1161 172.63V172.625L87.1074 172.612L87.1161 172.63Z" fill="#FCDD34"/>
<path d="M88.1423 172.349C88.1029 172.362 87.9715 172.397 87.8138 172.52C87.7919 172.538 87.77 172.56 87.748 172.577C87.8006 172.533 87.8576 172.49 87.9058 172.463C88.0328 172.384 88.1117 172.358 88.1423 172.354" fill="#FCDD34"/>
<path d="M88.1426 172.345C88.16 172.345 88.16 172.341 88.1426 172.345Z" fill="#FCDD34"/>
<path d="M87.2051 173.265C87.2051 173.265 87.2137 173.248 87.218 173.24C87.218 173.24 87.218 173.248 87.2137 173.248C87.2137 173.257 87.2137 173.257 87.2094 173.265" fill="#FCDD34"/>
<path d="M87.1081 172.604C87.0994 172.586 87.0994 172.582 87.1081 172.604Z" fill="#FCDD34"/>
<path d="M87.1786 172.889C87.1654 172.814 87.1479 172.748 87.1348 172.687C87.1698 172.81 87.2005 172.981 87.1961 173.108C87.1961 173.099 87.1961 173.095 87.1961 173.086C87.1961 173.025 87.1873 172.954 87.1786 172.889Z" fill="#FCDD34"/>
<path d="M86.3022 164.17C86.8104 164.508 87.4763 164.574 88.0021 164.293C88.4927 164.276 88.9221 164.013 89.1543 163.53C89.3864 163.043 89.3076 162.478 89.0754 162.013C88.5935 161.044 87.507 160.57 86.4731 160.912C85.7502 161.149 85.4217 161.829 85.4085 162.539C85.3954 163.162 85.8028 163.837 86.3066 164.17" fill="#FCDD34"/>
<path d="M77.8072 166.938C78.0744 167.117 78.4293 167.153 78.7097 167.003C78.9725 166.995 79.196 166.854 79.3186 166.6C79.4413 166.341 79.4019 166.043 79.2792 165.793C79.0251 165.28 78.4468 165.03 77.8992 165.21C77.5181 165.337 77.3384 165.697 77.3341 166.074C77.3297 166.403 77.5443 166.762 77.8116 166.938" fill="#FCDD34"/>
<path d="M111.387 193.303C110.927 193.61 110.467 193.912 110.003 194.211C109.88 194.29 109.757 194.364 109.63 194.443C109.267 194.676 108.903 194.904 108.535 195.127C108.031 195.434 107.523 195.737 107.015 196.031C107.024 195.289 106.976 194.54 106.884 193.785C106.77 192.895 106.318 192.452 105.657 191.935C104.842 191.303 103.961 190.751 103.028 190.308C103.431 189.637 103.848 188.97 104.277 188.303C104.378 188.146 104.478 187.992 104.579 187.834C104.973 187.225 105.381 186.615 105.797 186.014C105.828 185.966 105.863 185.918 105.893 185.874C106.888 184.436 107.935 183.015 109.021 181.611C108.991 181.585 108.965 181.559 108.947 181.528C108.938 181.55 108.934 181.576 108.929 181.598C108.776 181.576 108.618 181.563 108.461 181.563C108.382 181.563 108.307 181.567 108.233 181.576C108.321 181.353 108.364 181.138 108.334 180.932C107.238 181.217 108.557 181.326 107.677 181.629C107.287 181.326 107.392 180.932 107.361 180.568C107.33 180.195 107.164 179.848 106.218 179.502C106.126 179.765 106.038 180.028 105.56 180.331C105.652 180.274 105.547 180.221 105.468 180.164C105.504 180.353 105.442 180.532 105.534 180.721C105.517 180.721 105.508 180.721 105.495 180.721C105.53 181.024 105.232 181.361 104.873 181.717C104.824 181.703 104.781 181.695 104.732 181.681C104.426 181.388 104.452 181.05 104.321 180.756L104.487 181.125C104.404 180.94 104.531 180.769 104.846 180.559C105.258 180.589 104.947 180.73 105.495 180.717C105.464 180.467 105.223 180.239 104.614 180.011C104.22 179.787 103.125 179.866 102.647 179.98C102.647 179.98 102.647 179.98 102.638 179.984C102.494 180.019 102.406 180.059 102.415 180.09C102.546 180.432 102.362 180.787 102.275 181.133C101.736 180.923 102.121 180.826 101.688 180.607C101.215 180.813 100.974 181.024 100.96 181.348L100.982 180.699C100.969 181.059 100.855 181.418 100.842 181.809C100.663 182.002 100.426 182.181 100.075 182.326C100.211 182.269 100.124 182.138 100.067 182.01C100.032 182.186 99.966 182.348 99.9134 182.519C99.8696 182.523 99.8302 182.532 99.8039 182.545C99.7644 182.216 99.5761 181.848 99.1818 181.423C98.7393 180.756 96.6539 180.458 96.6496 180.668C96.6145 181.747 95.2082 182.309 95.8654 183.523C96.54 184.203 96.7547 184.76 96.965 185.313C96.7985 185.457 96.632 185.65 96.6233 185.834C95.1556 186.637 94.1699 188.106 94.1699 189.79C94.1699 190.303 94.2663 190.794 94.4328 191.25C94.9848 190.979 95.5543 190.772 96.1282 190.628C96.137 190.628 96.1501 190.628 96.1589 190.623C96.4349 190.558 96.7109 190.501 96.9913 190.461C97.2848 190.417 97.5827 190.391 97.8806 190.382C100.299 190.29 102.752 191.207 104.912 192.886C105.293 193.184 105.622 193.408 105.688 193.939C105.718 194.202 105.744 194.456 105.766 194.711C105.775 194.825 105.78 194.939 105.784 195.053C105.793 195.189 105.801 195.32 105.806 195.456C105.806 195.605 105.806 195.75 105.806 195.895C105.806 195.987 105.806 196.079 105.806 196.171C105.806 196.338 105.793 196.504 105.784 196.666C105.784 196.728 105.78 196.794 105.775 196.851C105.762 197.035 105.744 197.215 105.723 197.39C105.723 197.43 105.714 197.469 105.709 197.508C105.688 197.701 105.657 197.89 105.626 198.079C105.626 198.101 105.622 198.118 105.617 198.14C105.582 198.337 105.543 198.535 105.499 198.728C105.499 198.736 105.499 198.741 105.495 198.75C105.447 198.951 105.398 199.149 105.341 199.342C105.661 199.197 105.977 199.021 106.275 198.811C106.353 198.754 106.419 198.675 106.415 198.517C106.555 198.714 106.695 198.907 106.835 199.048C107.497 198.868 108.123 198.6 108.71 198.272C109.276 197.951 109.81 197.561 110.239 197.171C110.507 196.925 110.721 196.702 110.936 196.456C111.028 196.224 111.151 195.978 111.304 195.794C111.348 195.675 110.958 195.36 110.87 195.254C111.286 195.14 111.711 195.004 112.014 194.79C111.961 194.737 111.944 194.68 111.909 194.61C112.101 194.526 112.294 194.443 112.478 194.355C112.592 194.298 112.706 194.241 112.82 194.189C112.71 194.162 112.588 194.127 112.456 194.088C112.548 193.891 112.631 193.702 112.71 193.522L112.658 193.505C112.649 192.983 113.31 192.737 112.872 192.29C112.395 192.623 111.913 192.952 111.431 193.277C111.413 193.29 111.396 193.298 111.378 193.312M99.8302 182.962C99.8302 182.962 99.7995 182.949 99.7863 182.944C99.5892 183.69 98.5903 184.194 97.6879 184.699C96.321 183.975 98.3932 184.414 98.3976 184.194C98.1917 183.532 98.437 183.006 98.4545 182.466L98.4326 183.115C98.4458 182.791 98.6823 182.589 99.1555 182.392C99.6023 182.624 99.1686 182.712 99.7863 182.949C99.8083 182.87 99.817 182.787 99.817 182.699C99.8302 182.712 99.8433 182.725 99.8608 182.738C99.8477 182.813 99.8345 182.887 99.8302 182.966M102.003 182.37C101.964 182.221 101.907 182.063 101.819 181.901C102.003 181.734 102.143 181.554 102.24 181.366C102.222 181.589 102.297 181.8 102.564 181.993C102.367 182.098 102.178 182.225 102.003 182.37Z" fill="#BCD631"/>
<path d="M110.975 193.575C110.691 193.763 110.406 193.952 110.121 194.136C110.38 194.031 110.634 193.895 110.853 193.702C110.901 193.662 110.932 193.614 110.975 193.575Z" fill="#EE4F9C"/>
<path d="M119.151 188.716C119.037 188.751 118.924 188.786 118.818 188.83C118.932 188.817 119.046 188.777 119.151 188.716Z" fill="#EE4F9C"/>
<path d="M119.15 188.716C119.234 188.689 119.312 188.659 119.4 188.632L119.304 188.615L119.273 188.641C119.234 188.672 119.194 188.694 119.15 188.716Z" fill="#EE4F9C"/>
<path d="M92.5312 186.554C93.6966 185.848 94.656 185.58 95.5235 185.352C95.449 185.229 95.2343 185.124 95.3351 184.922C94.4852 185.286 93.6002 185.729 92.5356 186.554" fill="#EE4F9C"/>
<path d="M108.167 195.364C108.115 195.386 108.067 195.412 108.014 195.439C107.681 195.636 107.348 195.838 107.011 196.031C107.011 196.009 107.011 195.987 107.011 195.965C106.564 196.232 106.152 196.526 105.78 196.833C105.574 199.763 104.422 202.087 102.704 203.819C101.197 205.341 99.2653 206.38 97.1755 206.977C97.1186 207.218 97.0704 207.459 97.0353 207.7C96.939 207.525 96.8732 207.349 96.8382 207.174C96.8469 207.135 96.8557 207.099 96.8645 207.064C95.3267 207.463 93.7102 207.626 92.1111 207.551C91.9753 208.007 92.041 208.516 92.3521 208.933C92.4265 209.033 92.5054 209.117 92.5799 209.204L93.7102 208.362C93.7277 208.393 93.7452 208.419 93.7584 208.45L92.6412 209.279C93.0443 209.726 93.4473 209.998 93.7496 210.112C94.0519 210.218 94.2578 210.178 94.3673 209.998C94.4155 210.314 94.4725 210.625 94.5425 210.897C94.6126 211.174 94.7003 211.463 94.7966 211.739C93.846 211.13 92.9698 210.419 92.1768 209.625L91.248 210.314C91.4014 210.511 91.5766 210.722 91.7781 210.937C93.0048 212.204 94.4024 213.248 95.962 214.068C95.962 214.068 95.962 214.072 95.9664 214.077C96.1328 214.322 96.3081 214.563 96.4921 214.796C96.6717 215.024 96.8382 215.208 97.0178 215.41C98.4372 216.905 99.7603 217.725 101.368 218.423C101.692 218.55 102.012 218.668 102.376 218.778C102.547 218.831 102.739 218.888 102.893 218.927L103.318 219.028C103.887 219.155 104.452 219.243 105 219.295C106.095 219.401 107.103 219.37 107.953 219.273C108.816 219.181 109.521 219.028 110.104 218.879C110.691 218.73 111.054 218.589 111.51 218.44L112.816 217.993C113.245 217.826 113.674 217.642 114.099 217.462C114.958 217.12 115.777 216.69 116.592 216.261C119.86 214.528 122.555 212.178 124.675 209.783C125.989 208.529 127.365 206.959 128.425 205.512C129.477 204.065 130.261 202.758 130.602 201.955C130.76 201.53 130.9 201.118 131.036 200.706C131.176 200.289 131.317 199.881 131.444 199.478C131.579 199.065 131.715 198.653 131.847 198.241C132 197.789 132.197 197.254 132.399 196.627C132.797 195.395 133.253 193.671 133.157 191.715C133.047 189.759 132.403 188.045 131.632 186.742C131.106 185.848 130.541 185.133 129.976 184.51C129.954 184.361 129.937 184.216 129.91 184.067C129.209 182.62 128.373 181.269 127.435 180.011C121.477 185.839 114.958 191.242 108.15 195.329C108.15 195.333 108.15 195.338 108.15 195.346M94.2797 208.069L94.1351 208.178C94.1264 208.143 94.1176 208.108 94.1045 208.073L94.2841 207.937C94.2841 207.981 94.2841 208.025 94.2797 208.069ZM97.0178 207.836C96.9959 208.042 96.9828 208.248 96.974 208.459C96.8864 208.393 96.7988 208.332 96.7155 208.266C96.7155 208.24 96.7155 208.213 96.7155 208.187C96.7199 208.016 96.7418 207.841 96.7637 207.656C96.8513 207.705 96.939 207.744 97.0266 207.779C97.0266 207.797 97.0178 207.814 97.0178 207.836ZM126.673 200.89H126.681C126.462 201.219 126.243 201.552 126.02 201.89L125.967 201.872C126.208 201.543 126.441 201.219 126.673 200.89ZM119.19 199.679L118.401 199.425C118.432 199.368 118.454 199.315 118.472 199.267L119.374 199.447C119.313 199.521 119.26 199.6 119.19 199.675M123.786 199.021L124.627 199.136C124.596 199.179 124.57 199.228 124.539 199.271C124.425 199.478 124.294 199.684 124.171 199.885H124.158L124.272 199.679C124.228 199.745 124.176 199.815 124.132 199.881L123.317 199.771C123.475 199.521 123.632 199.271 123.786 199.021ZM123.058 200.175L123.821 200.324C123.659 200.556 123.501 200.789 123.334 201.017L122.647 200.793C122.787 200.587 122.923 200.377 123.058 200.17M120.049 198.522C119.987 198.627 119.922 198.728 119.865 198.833C119.746 198.973 119.637 199.118 119.527 199.263L118.515 199.127C118.55 199.004 118.555 198.886 118.542 198.793C118.511 198.583 118.441 198.469 118.266 198.28L120.049 198.522ZM106.008 213.108C105.71 213.248 105.39 213.371 105.061 213.485C104.86 213.432 104.654 213.375 104.409 213.283C104.387 213.274 104.365 213.265 104.343 213.257C104.912 213.235 105.477 213.186 106.012 213.108M103.554 213.265C103.795 213.384 104.045 213.493 104.317 213.59C104.382 213.612 104.444 213.634 104.505 213.651C104.207 213.73 103.9 213.796 103.589 213.849C103.169 213.669 102.783 213.454 102.411 213.204C102.796 213.239 103.177 213.261 103.559 213.265M97.6049 212.134C97.526 211.98 97.4559 211.836 97.3902 211.687C97.4866 211.739 97.5917 211.783 97.6881 211.831C97.7494 211.963 97.8108 212.09 97.8721 212.209L97.7188 212.279C97.7188 212.279 97.7626 212.296 97.7845 212.305L97.894 212.257C97.9159 212.301 97.9422 212.34 97.9641 212.38C97.9071 212.353 97.8414 212.331 97.7845 212.305L97.7188 212.336C97.6793 212.266 97.6399 212.2 97.6005 212.13M98.5643 213.48C98.5336 213.472 98.4986 213.458 98.4679 213.45C98.2226 213.143 97.9816 212.792 97.7451 212.38C97.8414 212.423 97.9422 212.463 98.0386 212.507C98.2664 212.893 98.4986 213.226 98.7352 213.524C98.6782 213.507 98.6212 213.498 98.5687 213.48M110.371 217.133L111.878 216.831C112.382 216.739 112.881 216.594 113.381 216.449C113.876 216.3 114.384 216.173 114.87 215.993C114.419 216.362 113.946 216.629 113.482 216.875C113.017 217.12 112.553 217.313 112.093 217.432C111.633 217.559 111.182 217.655 110.743 217.721C110.34 217.787 109.793 217.831 109.188 217.857C107.97 217.901 106.393 217.817 104.737 217.366C104.325 217.256 103.913 217.12 103.506 216.967C102.993 216.778 102.525 216.568 102.087 216.34C101.657 216.112 101.254 215.87 100.86 215.603C100.926 215.607 100.987 215.616 101.053 215.62C101.351 215.813 101.653 215.998 101.973 216.164C102.257 216.313 102.569 216.454 102.88 216.581C103.199 216.708 103.576 216.835 103.821 216.905C104.373 217.072 104.93 217.19 105.46 217.269C106.538 217.432 107.515 217.432 108.343 217.375C109.158 217.318 109.854 217.212 110.362 217.12" fill="#66CDF2"/>
</g>
<path d="M101.43 59.92C97.81 67.07 93.43 73.78 88.44 80.1C79.19 91.82 68.57 101.88 55.18 108.82C50.07 111.47 45.15 114.5 40.18 117.41C33.75 121.19 28.83 126.49 25.03 132.87C21.65 138.54 18.79 144.49 15.81 150.37C12.66 156.59 9.39 162.75 5.09 168.26C3.4 170.43 1.8 172.69 0 174.77V0H94.38C99.34 4.44 103.02 9.98 105.34 16.72C110.52 31.72 108.44 46.08 101.43 59.92Z" fill="#F5A326"/>
<path d="M145.01 0C144.8 1.01 144.59 2.02 144.37 3.03C144.17 3.96 143.96 4.9 143.75 5.83C143.7 6.05 143.65 6.28 143.59 6.5C143.4 7.36 143.2 8.21 142.99 9.05C142.51 11.07 142 13.08 141.47 15.08C141.26 15.89 141.05 16.69 140.83 17.49C140.25 19.67 139.65 21.84 139.04 24.01C136.93 31.51 134.52 38.91 132 46.28C127.34 59.91 121.94 73.23 114.97 85.85C110.38 94.15 105.26 102.11 98.16 108.56C92.11 114.05 85.54 118.84 78.43 122.86C73.42 125.69 68.31 128.34 63.36 131.27C54.2 136.69 48.19 144.93 43.19 154.1C38.44 162.82 34.59 172.03 28.95 180.29C22.23 190.15 14.1 198.38 3.46 203.97C3.17 204.12 2.88 204.29 2.59 204.46C2.57 204.46 2.55 204.48 2.53 204.49C2.22 204.67 1.92 204.85 1.62 205.04C1.08 205.37 0.55 205.7 0 206V174.77C1.8 172.69 3.4 170.43 5.09 168.26C9.39 162.75 12.66 156.59 15.81 150.37C18.79 144.49 21.65 138.54 25.03 132.87C28.83 126.49 33.75 121.19 40.18 117.41C45.15 114.5 50.07 111.47 55.18 108.82C68.57 101.88 79.19 91.82 88.44 80.1C93.43 73.78 97.81 67.07 101.43 59.92C108.44 46.08 110.52 31.72 105.34 16.72C103.02 9.98 99.34 4.44 94.38 0L145.01 0Z" fill="#BCD631"/>
</g>
<defs>
<linearGradient id="paint0_linear_808_849" x1="135.719" y1="186.675" x2="252.938" y2="215.503" gradientUnits="userSpaceOnUse">
<stop stop-color="#EE4F9C"/>
<stop offset="0.24" stop-color="#F5A326"/>
<stop offset="0.5" stop-color="#FCDD34"/>
<stop offset="0.75" stop-color="#BCD631"/>
<stop offset="1" stop-color="#66CDF2"/>
</linearGradient>
<linearGradient id="paint1_linear_808_849" x1="139.129" y1="173.659" x2="256.348" y2="202.486" gradientUnits="userSpaceOnUse">
<stop stop-color="#EE4F9C"/>
<stop offset="0.24" stop-color="#F5A326"/>
<stop offset="0.5" stop-color="#FCDD34"/>
<stop offset="0.75" stop-color="#BCD631"/>
<stop offset="1" stop-color="#66CDF2"/>
</linearGradient>
<linearGradient id="paint2_linear_808_849" x1="143.258" y1="157.033" x2="260.477" y2="185.861" gradientUnits="userSpaceOnUse">
<stop stop-color="#EE4F9C"/>
<stop offset="0.24" stop-color="#F5A326"/>
<stop offset="0.5" stop-color="#FCDD34"/>
<stop offset="0.75" stop-color="#BCD631"/>
<stop offset="1" stop-color="#66CDF2"/>
</linearGradient>
<linearGradient id="paint3_linear_808_849" x1="140.016" y1="169.582" x2="257.236" y2="198.409" gradientUnits="userSpaceOnUse">
<stop stop-color="#EE4F9C"/>
<stop offset="0.24" stop-color="#F5A326"/>
<stop offset="0.5" stop-color="#FCDD34"/>
<stop offset="0.75" stop-color="#BCD631"/>
<stop offset="1" stop-color="#66CDF2"/>
</linearGradient>
<linearGradient id="paint4_linear_808_849" x1="133.778" y1="194.793" x2="250.997" y2="223.621" gradientUnits="userSpaceOnUse">
<stop stop-color="#EE4F9C"/>
<stop offset="0.24" stop-color="#F5A326"/>
<stop offset="0.5" stop-color="#FCDD34"/>
<stop offset="0.75" stop-color="#BCD631"/>
<stop offset="1" stop-color="#66CDF2"/>
</linearGradient>
<linearGradient id="paint5_linear_808_849" x1="135.263" y1="188.326" x2="252.482" y2="217.153" gradientUnits="userSpaceOnUse">
<stop stop-color="#EE4F9C"/>
<stop offset="0.24" stop-color="#F5A326"/>
<stop offset="0.5" stop-color="#FCDD34"/>
<stop offset="0.75" stop-color="#BCD631"/>
<stop offset="1" stop-color="#66CDF2"/>
</linearGradient>
<linearGradient id="paint6_linear_808_849" x1="134.981" y1="190.294" x2="252.2" y2="219.121" gradientUnits="userSpaceOnUse">
<stop stop-color="#EE4F9C"/>
<stop offset="0.24" stop-color="#F5A326"/>
<stop offset="0.5" stop-color="#FCDD34"/>
<stop offset="0.75" stop-color="#BCD631"/>
<stop offset="1" stop-color="#66CDF2"/>
</linearGradient>
<linearGradient id="paint7_linear_808_849" x1="138.438" y1="176.545" x2="255.658" y2="205.373" gradientUnits="userSpaceOnUse">
<stop stop-color="#EE4F9C"/>
<stop offset="0.24" stop-color="#F5A326"/>
<stop offset="0.5" stop-color="#FCDD34"/>
<stop offset="0.75" stop-color="#BCD631"/>
<stop offset="1" stop-color="#66CDF2"/>
</linearGradient>
<linearGradient id="paint8_linear_808_849" x1="138.472" y1="175.615" x2="255.691" y2="204.443" gradientUnits="userSpaceOnUse">
<stop stop-color="#EE4F9C"/>
<stop offset="0.24" stop-color="#F5A326"/>
<stop offset="0.5" stop-color="#FCDD34"/>
<stop offset="0.75" stop-color="#BCD631"/>
<stop offset="1" stop-color="#66CDF2"/>
</linearGradient>
<linearGradient id="paint9_linear_808_849" x1="137.941" y1="178.285" x2="255.16" y2="207.112" gradientUnits="userSpaceOnUse">
<stop stop-color="#EE4F9C"/>
<stop offset="0.24" stop-color="#F5A326"/>
<stop offset="0.5" stop-color="#FCDD34"/>
<stop offset="0.75" stop-color="#BCD631"/>
<stop offset="1" stop-color="#66CDF2"/>
</linearGradient>
<linearGradient id="paint10_linear_808_849" x1="140.344" y1="167.747" x2="257.563" y2="196.575" gradientUnits="userSpaceOnUse">
<stop stop-color="#EE4F9C"/>
<stop offset="0.24" stop-color="#F5A326"/>
<stop offset="0.5" stop-color="#FCDD34"/>
<stop offset="0.75" stop-color="#BCD631"/>
<stop offset="1" stop-color="#66CDF2"/>
</linearGradient>
<linearGradient id="paint11_linear_808_849" x1="144.466" y1="150.962" x2="261.685" y2="179.79" gradientUnits="userSpaceOnUse">
<stop stop-color="#EE4F9C"/>
<stop offset="0.24" stop-color="#F5A326"/>
<stop offset="0.5" stop-color="#FCDD34"/>
<stop offset="0.75" stop-color="#BCD631"/>
<stop offset="1" stop-color="#66CDF2"/>
</linearGradient>
<clipPath id="clip0_808_849">
<rect width="342" height="484" fill="white"/>
</clipPath>
<clipPath id="clip1_808_849">
<rect width="193" height="73" fill="white" transform="translate(74 159)"/>
</clipPath>
</defs>
</svg>
