<svg width="35" height="35" viewBox="0 0 35 35" fill="none" xmlns="http://www.w3.org/2000/svg">
<g clip-path="url(#clip0_190_3464)">
<path d="M28.1517 34.2389C30.2527 34.2389 31.9559 32.5357 31.9559 30.4346C31.9559 28.3336 30.2527 26.6304 28.1517 26.6304C26.0506 26.6304 24.3474 28.3336 24.3474 30.4346C24.3474 32.5357 26.0506 34.2389 28.1517 34.2389Z" fill="black"/>
<path d="M12.9346 34.2389C15.0357 34.2389 16.7389 32.5357 16.7389 30.4346C16.7389 28.3336 15.0357 26.6304 12.9346 26.6304C10.8336 26.6304 9.13037 28.3336 9.13037 30.4346C9.13037 32.5357 10.8336 34.2389 12.9346 34.2389Z" fill="black"/>
<path d="M34.8092 5.58332C34.7378 5.50243 34.65 5.43767 34.5516 5.39334C34.4532 5.349 34.3465 5.32611 34.2386 5.32617H6.84769C6.42749 5.3261 6.08674 5.66663 6.08667 6.08684C6.08667 6.13798 6.09181 6.18906 6.10208 6.2392L9.14553 21.4563C9.18062 21.6282 9.274 21.7826 9.40987 21.8936C9.54574 22.0045 9.71576 22.065 9.89115 22.065C9.92461 22.0672 9.95813 22.0672 9.99158 22.065L32.8173 19.0216C32.9841 18.9993 33.1387 18.9224 33.2571 18.8029C33.3755 18.6834 33.4509 18.528 33.4716 18.3611L34.9933 6.18735C35.0077 6.07935 34.9987 5.96953 34.9669 5.86532C34.9352 5.76111 34.8814 5.66494 34.8092 5.58332Z" fill="#FFC107"/>
<path d="M12.9346 19.0216C12.7545 19.0215 12.5803 18.9575 12.4429 18.8411C12.3056 18.7246 12.214 18.5632 12.1844 18.3855L10.6627 9.25522C10.6063 8.8388 10.8981 8.45554 11.3146 8.39912C11.5067 8.37309 11.7015 8.42137 11.8592 8.53411C12.0169 8.64684 12.1256 8.81552 12.1632 9.00571L13.6849 18.136C13.7536 18.5503 13.4737 18.9419 13.0594 19.011C13.0182 19.0181 12.9765 19.0216 12.9346 19.0216ZM16.739 18.2607C16.5485 18.2615 16.3646 18.1908 16.2238 18.0626C16.0829 17.9344 15.9952 17.758 15.9781 17.5683L15.2172 9.19887C15.1778 8.78052 15.485 8.40946 15.9035 8.37009L15.9096 8.36951C16.3281 8.33164 16.698 8.64029 16.7359 9.05878L17.4968 17.4283C17.5346 17.8468 17.226 18.2167 16.8075 18.2546H16.8074L16.739 18.2607ZM20.5432 17.4998C20.123 17.4998 19.7823 17.1591 19.7823 16.7389V9.1304C19.7823 8.71019 20.123 8.36951 20.5432 8.36951C20.9634 8.36951 21.3041 8.71019 21.3041 9.1304V16.739C21.3041 17.1592 20.9634 17.4998 20.5432 17.4998ZM24.3475 16.739H24.2622C23.8444 16.6948 23.5415 16.3202 23.5858 15.9022L23.5866 15.8944L24.3475 9.04673C24.3969 8.62823 24.7728 8.32679 25.192 8.36959C25.6097 8.41581 25.9108 8.79179 25.8647 9.2095L25.1038 16.0573C25.0842 16.2443 24.9961 16.4174 24.8565 16.5433C24.7168 16.6692 24.5355 16.7389 24.3475 16.739ZM28.1518 15.9781C28.0363 15.9781 27.9222 15.9517 27.8183 15.901C27.7145 15.8504 27.6235 15.7767 27.5524 15.6856C27.4812 15.5945 27.4318 15.4884 27.4078 15.3754C27.3838 15.2623 27.3858 15.1453 27.4138 15.0331L28.9355 8.94629C29.0277 8.53636 29.4349 8.27878 29.8448 8.37101C30.2547 8.46324 30.5123 8.8704 30.4201 9.28033C30.4175 9.29182 30.4146 9.30323 30.4115 9.31457L28.8898 15.4014C28.8488 15.5661 28.7538 15.7123 28.6201 15.8168C28.4864 15.9213 28.3215 15.9781 28.1518 15.9781Z" fill="#FAFAFA"/>
<path d="M31.1952 25.1085H13.633C11.0967 25.1026 8.91417 23.3138 8.4105 20.8279L4.7021 2.28275H0.760882C0.340674 2.28275 0 1.94208 0 1.52187C0 1.10166 0.340674 0.760986 0.760882 0.760986H5.32603C5.50143 0.760946 5.67145 0.821509 5.80732 0.932425C5.9432 1.04334 6.03657 1.1978 6.07165 1.36965L9.90331 20.5281C10.2625 22.3039 11.8212 23.5822 13.633 23.5867H31.1952C31.6154 23.5867 31.956 23.9274 31.956 24.3476C31.956 24.7678 31.6154 25.1085 31.1952 25.1085Z" fill="black"/>
</g>
<defs>
<clipPath id="clip0_190_3464">
<rect width="35" height="35" fill="white"/>
</clipPath>
</defs>
</svg>
