<svg width="36" height="36" viewBox="0 0 36 36" fill="none" xmlns="http://www.w3.org/2000/svg">
<circle cx="18" cy="18" r="18" fill="#FD44AC"/>
<g clip-path="url(#clip0_478_2081)">
<path d="M11.5167 25.8998C11.1245 25.9226 10.7387 25.7922 10.4407 25.536C9.8531 24.9449 9.8531 23.9902 10.4407 23.3991L23.3075 10.5322C23.9187 9.96035 24.8777 9.99214 25.4496 10.6033C25.9668 11.156 25.9969 12.0055 25.5202 12.5934L12.5776 25.536C12.2835 25.7885 11.9038 25.9186 11.5167 25.8998Z" fill="white"/>
<path d="M24.3684 25.8998C23.9708 25.8981 23.5898 25.7403 23.3075 25.4603L10.4406 12.5934C9.89619 11.9576 9.97021 11.0009 10.6059 10.4565C11.1733 9.97057 12.0101 9.97057 12.5775 10.4565L25.5201 23.3234C26.1312 23.8954 26.1628 24.8545 25.5907 25.4655C25.5679 25.4898 25.5444 25.5133 25.5201 25.5361C25.3633 25.6724 25.1802 25.7751 24.982 25.8376C24.7839 25.9002 24.575 25.9214 24.3684 25.8998Z" fill="white"/>
</g>
<defs>
<clipPath id="clip0_478_2081">
<rect width="16" height="16" fill="white" transform="translate(10 10)"/>
</clipPath>
</defs>
</svg>
