<svg width="26" height="26" viewBox="0 0 26 26" fill="none" xmlns="http://www.w3.org/2000/svg">
<path d="M13 21.125C4.49452 21.125 0.277649 13.7101 0.102352 13.3947C0.035227 13.2739 0 13.1381 0 12.9999C0 12.8617 0.035227 12.7259 0.102352 12.6051C0.277649 12.2899 4.49452 4.875 13 4.875C21.5054 4.875 25.7223 12.2899 25.8976 12.6053C25.9647 12.7261 26 12.8619 26 13.0001C26 13.1383 25.9647 13.2741 25.8976 13.3949C25.7223 13.7101 21.5054 21.125 13 21.125ZM1.76859 12.9988C2.73505 14.4635 6.52963 19.5 13 19.5C19.4908 19.5 23.2686 14.4676 24.2314 13.0012C23.2649 11.5365 19.4703 6.5 13 6.5C6.50912 6.5 2.7314 11.5324 1.76859 12.9988ZM13 17.875C10.3118 17.875 8.12498 15.6882 8.12498 13C8.12498 10.3118 10.3118 8.125 13 8.125C15.6881 8.125 17.875 10.3118 17.875 13C17.875 15.6882 15.6881 17.875 13 17.875ZM13 9.75C11.208 9.75 9.74998 11.208 9.74998 13C9.74998 14.792 11.208 16.25 13 16.25C14.7919 16.25 16.25 14.792 16.25 13C16.25 11.208 14.7919 9.75 13 9.75Z" fill="#B9B9B9"/>
</svg>
