<svg width="24" height="24" viewBox="0 0 24 24" fill="none" xmlns="http://www.w3.org/2000/svg">
<path d="M12 2.03906C17.4998 2.03906 21.9997 6.52881 22 12.0586C22.0054 14.4442 21.158 16.7539 19.6104 18.5693C18.0626 20.3848 15.916 21.5868 13.5596 21.959V14.959H15.8896L16.3398 12.0586H13.5596V10.1787C13.5597 9.38883 13.9506 8.61914 15.1904 8.61914H16.4502V6.14941C16.4502 6.14941 15.3097 5.95898 14.2197 5.95898C11.93 5.95909 10.4406 7.33901 10.4404 9.84863V12.0586H7.90039V14.959H10.4404V21.959C5.66043 21.209 2 17.0586 2 12.0586C2.00025 6.52881 6.50016 2.03906 12 2.03906Z" fill="black"/>
</svg>
