<svg width="342" height="484" viewBox="0 0 342 484" fill="none" xmlns="http://www.w3.org/2000/svg">
<g clip-path="url(#clip0_808_857)">
<path d="M342 0H0V484H342V0Z" fill="#EDEDED"/>
<path d="M219.43 314.02C219.48 316.68 219.16 319.29 218.49 321.86C215.91 321.83 213.88 323.07 212.21 324.83C209.99 327.17 207.78 329.53 205.84 332.1C198.4 341.95 194.68 353.34 192.48 365.32C191.68 369.66 191.26 374.03 190.84 378.42C190.45 382.49 190.15 386.44 190.86 390.5C191.18 392.36 191.86 394.54 190.1 396.25C188.97 395.36 187.84 394.48 186.72 393.58C178.96 387.33 170.24 382.86 160.69 380.11C141.31 374.54 122.02 375.61 102.94 381.58C90.29 385.55 78.64 391.77 67.48 398.83C53.28 407.8 39.26 417.03 25.12 426.08C16.74 431.45 8.49 437.03 0 442.24V206C0.55 205.7 1.08 205.37 1.62 205.04C1.92 204.85 2.22 204.67 2.53 204.49C2.55 204.48 2.57 204.46 2.59 204.46C2.88 204.29 3.17 204.12 3.46 203.97C14.1 198.38 22.23 190.15 28.95 180.29C34.59 172.03 38.44 162.82 43.19 154.1C48.19 144.93 54.2 136.69 63.36 131.27C68.31 128.34 73.42 125.69 78.43 122.86C85.54 118.84 92.11 114.05 98.16 108.56C105.26 102.11 110.38 94.15 114.97 85.85C121.94 73.23 127.34 59.91 132 46.28C134.52 38.91 136.93 31.51 139.04 24.01C139.65 21.84 140.25 19.67 140.83 17.49C141.05 16.69 141.26 15.89 141.47 15.08C142 13.08 142.51 11.07 142.99 9.05C143.2 8.21 143.4 7.36 143.59 6.5C143.65 6.28 143.7 6.05 143.75 5.83C143.96 4.9 144.17 3.96 144.37 3.03C144.59 2.02 144.8 1.01 145.01 0H186.31C185.17 0.78 184.05 1.58 182.95 2.41C182.44 2.78 181.94 3.16 181.45 3.55C181.4 3.59 181.36 3.62 181.31 3.66C180.67 4.16 180.03 4.67 179.4 5.19C178.72 5.74 178.05 6.3 177.39 6.87C176.73 7.43 176.07 8.01 175.42 8.6C174.77 9.18 174.12 9.77 173.48 10.37C168.49 15.04 164.01 20.15 160.06 25.77C154.99 32.97 150.95 40.66 147.84 48.86C145.46 55.14 144.03 61.69 142.85 68.29C141.41 76.37 141.54 84.59 142.24 92.66C142.95 100.83 144.79 108.91 147.93 116.64C150.97 124.12 154.79 131.08 159.78 137.44C161.58 139.74 164.03 141.82 163.74 145.23C163.04 145.41 162.35 145.63 161.64 145.75C150.79 147.52 140.47 150.98 130.45 155.44C121.92 159.24 114.26 164.3 107.7 170.98C100.14 178.68 94.5 187.69 89.46 197.16C85.83 203.97 83.77 211.12 83.66 218.84C83.63 220.64 83.38 222.43 83.23 224.22C82.43 233.56 81.94 242.9 82.3 252.27C82.4 255.03 82.73 257.77 83.34 260.48C85.06 268.18 88.39 275.22 92.36 281.95C103.43 300.74 118.67 314.79 139.11 322.91C151.02 327.64 163.37 329.74 176.12 328.75C187.98 327.82 199.12 324.09 209.68 318.66C212.48 317.22 215.27 315.75 218.18 314.53C218.59 314.35 219.01 314.18 219.43 314.02Z" fill="#FCDD34"/>
<path d="M342 57.19V230.14C341.43 229.78 340.85 229.42 340.28 229.07C339.85 228.81 339.42 228.55 338.99 228.31C338.6 228.08 338.2 227.86 337.8 227.64C337.75 227.62 337.71 227.59 337.66 227.57C337.46 227.45 337.25 227.35 337.04 227.24C335.59 226.49 334.09 225.82 332.52 225.28C332.16 225.15 331.78 225.03 331.4 224.91C331.06 224.81 330.72 224.71 330.37 224.62C329.95 224.51 329.52 224.41 329.08 224.32C324.12 223.29 319.56 220.53 314.36 220.06C314.03 220.03 313.67 219.83 313.4 219.61C311.72 218.21 309.75 218.06 307.67 217.95C306.03 217.87 304.35 217.42 302.8 216.84C292.4 212.92 282.07 208.82 271.63 205.02C268.85 204.01 266.24 202.44 263.21 202.13C262.51 201.41 262.35 200.43 261.98 199.55C255.82 184.59 246.16 172.61 232.21 164.13C223.16 158.63 213.7 154 203.97 149.93C193.75 145.65 183.02 144.03 171.96 144.54C169.21 144.66 166.52 145.52 163.74 145.23C164.03 141.82 161.58 139.74 159.78 137.44C154.79 131.08 150.97 124.12 147.93 116.64C144.79 108.91 142.95 100.83 142.24 92.66C141.54 84.59 141.41 76.37 142.85 68.29C144.03 61.69 145.46 55.14 147.84 48.86C150.95 40.66 154.99 32.97 160.06 25.77C164.01 20.15 168.49 15.04 173.48 10.37C174.12 9.77 174.77 9.18 175.42 8.6C176.07 8.02 176.73 7.44 177.39 6.87C178.05 6.3 178.72 5.74 179.4 5.19C180.03 4.67 180.67 4.16 181.31 3.66C181.36 3.62 181.4 3.59 181.45 3.55C181.94 3.16 182.44 2.78 182.95 2.41C184.05 1.58 185.17 0.78 186.31 0H289.14C290.22 2.54 291.36 5.05 292.66 7.47C297.83 17.11 304.88 25.4 312.3 33.37C316.3 37.66 320.89 41.3 325.33 45.12C329.88 49.03 334.65 52.6 339.74 55.73C340.5 56.2 341.25 56.69 342 57.19Z" fill="#BCD631"/>
<path d="M342 234.9V484H307.74C307.74 484 307.65 483.91 307.6 483.86C306.81 483.04 306.01 482.23 305.2 481.43C304.87 481.11 304.55 480.79 304.23 480.47C303.29 479.54 302.34 478.62 301.38 477.7C299.22 475.63 297.04 473.59 294.84 471.56C283.49 461.05 271.91 450.77 261.41 439.37C250.57 427.59 240.64 415.16 233.46 400.74C222.03 377.79 217.27 353.48 218.48 327.93C218.58 325.92 218.98 323.88 218.49 321.86C219.16 319.29 219.48 316.68 219.43 314.03C224.09 310.65 228.85 307.43 233.21 303.64C254.1 285.48 266.28 262.86 268.4 235.08C270.29 234.32 272.19 233.57 274.07 232.79C283.11 229.02 292.54 226.73 302.28 226.09C314.48 225.28 326.07 228.21 337.31 232.75C338.91 233.4 340.45 234.16 342 234.9Z" fill="#76E1FB"/>
<path d="M209.83 459.15C206.92 469.04 202.17 477.54 194.57 484H0V442.24C8.49 437.03 16.74 431.45 25.12 426.08C39.26 417.03 53.28 407.8 67.48 398.83C78.64 391.77 90.29 385.55 102.94 381.58C122.02 375.61 141.31 374.54 160.69 380.11C170.24 382.86 178.96 387.33 186.72 393.58C187.84 394.48 188.97 395.36 190.1 396.25C195.74 402.16 200.69 408.56 204.56 415.81C211.92 429.61 214.32 443.92 209.83 459.15Z" fill="#FD44AC"/>
<path d="M101.43 59.92C97.81 67.07 93.43 73.78 88.44 80.1C79.19 91.82 68.57 101.88 55.18 108.82C50.07 111.47 45.15 114.5 40.18 117.41C33.75 121.19 28.83 126.49 25.03 132.87C21.65 138.54 18.79 144.49 15.81 150.37C12.66 156.59 9.39 162.75 5.09 168.26C3.4 170.43 1.8 172.69 0 174.77V0H94.38C99.34 4.44 103.02 9.98 105.34 16.72C110.52 31.72 108.44 46.08 101.43 59.92Z" fill="#76E1FB"/>
<path d="M209.83 459.15C214.32 443.92 211.92 429.61 204.56 415.81C200.69 408.56 195.74 402.16 190.1 396.25C191.86 394.54 191.18 392.36 190.86 390.5C190.15 386.44 190.45 382.49 190.84 378.42C191.26 374.03 191.68 369.66 192.48 365.32C194.68 353.34 198.4 341.95 205.84 332.1C207.78 329.53 209.99 327.17 212.21 324.83C213.88 323.07 215.91 321.83 218.49 321.86C218.98 323.88 218.58 325.92 218.48 327.93C217.27 353.48 222.03 377.79 233.46 400.74C240.64 415.16 250.57 427.59 261.41 439.37C271.91 450.77 283.49 461.05 294.84 471.56C297.04 473.59 299.22 475.63 301.38 477.7C302.33 478.62 303.29 479.54 304.23 480.47C304.55 480.79 304.87 481.11 305.2 481.43C306 482.23 306.81 483.04 307.6 483.86C307.65 483.91 307.69 483.95 307.74 484H194.57C202.17 477.54 206.92 469.04 209.83 459.15Z" fill="#BCD631"/>
<path d="M145.01 0C144.8 1.01 144.59 2.02 144.37 3.03C144.17 3.96 143.96 4.9 143.75 5.83C143.7 6.05 143.65 6.28 143.59 6.5C143.4 7.36 143.2 8.21 142.99 9.05C142.51 11.07 142 13.08 141.47 15.08C141.26 15.89 141.05 16.69 140.83 17.49C140.25 19.67 139.65 21.84 139.04 24.01C136.93 31.51 134.52 38.91 132 46.28C127.34 59.91 121.94 73.23 114.97 85.85C110.38 94.15 105.26 102.11 98.16 108.56C92.11 114.05 85.54 118.84 78.43 122.86C73.42 125.69 68.31 128.34 63.36 131.27C54.2 136.69 48.19 144.93 43.19 154.1C38.44 162.82 34.59 172.03 28.95 180.29C22.23 190.15 14.1 198.38 3.46 203.97C3.17 204.12 2.88 204.29 2.59 204.46C2.57 204.46 2.55 204.48 2.53 204.49C2.22 204.67 1.92 204.85 1.62 205.04C1.08 205.37 0.55 205.7 0 206V174.77C1.8 172.69 3.4 170.43 5.09 168.26C9.39 162.75 12.66 156.59 15.81 150.37C18.79 144.49 21.65 138.54 25.03 132.87C28.83 126.49 33.75 121.19 40.18 117.41C45.15 114.5 50.07 111.47 55.18 108.82C68.57 101.88 79.19 91.82 88.44 80.1C93.43 73.78 97.81 67.07 101.43 59.92C108.44 46.08 110.52 31.72 105.34 16.72C103.02 9.98 99.34 4.44 94.38 0L145.01 0Z" fill="#BCD631"/>
<path d="M342.001 0V57.19C341.251 56.69 340.501 56.2 339.741 55.73C334.651 52.6 329.881 49.03 325.331 45.12C320.891 41.3 316.301 37.66 312.301 33.37C304.881 25.4 297.831 17.11 292.661 7.47C291.361 5.05 290.221 2.54 289.141 0L342.001 0Z" fill="#F5A326"/>
<path d="M340.281 229.07C340.851 229.42 341.431 229.78 342.001 230.14V234.9C340.451 234.16 338.911 233.4 337.311 232.75C326.071 228.21 314.481 225.28 302.281 226.09C292.541 226.73 283.111 229.02 274.071 232.79C272.191 233.57 270.291 234.32 268.401 235.08C268.051 230.93 268.181 226.76 267.771 222.6C267.081 215.58 265.181 208.85 263.211 202.13C266.241 202.44 268.851 204.01 271.631 205.02C282.071 208.82 292.401 212.92 302.801 216.84C304.351 217.42 306.031 217.87 307.671 217.95C309.751 218.06 311.721 218.21 313.401 219.61C313.671 219.83 314.031 220.03 314.361 220.06C319.561 220.53 324.121 223.29 329.081 224.32C329.521 224.41 329.951 224.51 330.371 224.62C330.721 224.71 331.061 224.81 331.401 224.91C331.781 225.03 332.161 225.15 332.521 225.28C334.091 225.82 335.591 226.49 337.041 227.24C337.251 227.35 337.461 227.45 337.661 227.57C337.711 227.59 337.751 227.62 337.801 227.64C338.201 227.86 338.601 228.08 338.991 228.31C339.421 228.56 339.851 228.81 340.281 229.07Z" fill="#F5A326"/>
<path d="M218.18 314.53C218.59 314.36 219.01 314.19 219.43 314.03C219.01 314.18 218.59 314.35 218.18 314.53Z" fill="#FFFFFE"/>
<path d="M268.4 235.08C266.28 262.86 254.1 285.48 233.21 303.64C228.85 307.43 224.09 310.65 219.43 314.03C219.01 314.18 218.59 314.35 218.18 314.53C215.27 315.75 212.48 317.22 209.68 318.66C199.12 324.09 187.98 327.82 176.12 328.75C163.37 329.74 151.02 327.64 139.11 322.91C118.67 314.79 103.43 300.74 92.3598 281.95C88.3898 275.22 85.0598 268.18 83.3398 260.48C82.7298 257.77 82.3998 255.03 82.2998 252.27C81.9398 242.9 82.4298 233.56 83.2298 224.22C83.3798 222.43 83.6298 220.64 83.6598 218.84C83.7698 211.12 85.8298 203.97 89.4598 197.16C94.4998 187.69 100.14 178.68 107.7 170.98C114.26 164.3 121.92 159.24 130.45 155.44C140.47 150.98 150.79 147.52 161.64 145.75C162.35 145.63 163.04 145.41 163.74 145.23C166.52 145.52 169.21 144.66 171.96 144.54C183.02 144.03 193.75 145.65 203.97 149.93C213.7 154 223.16 158.63 232.21 164.13C246.16 172.61 255.82 184.59 261.98 199.55C262.35 200.43 262.51 201.41 263.21 202.13C265.18 208.85 267.08 215.58 267.77 222.6C268.18 226.76 268.05 230.93 268.4 235.08Z" fill="white"/>
<g clip-path="url(#clip1_808_857)">
<path d="M169.03 239.837C168.718 239.732 168.313 239.826 168.063 240.028C167.809 240.23 167.672 240.554 167.726 240.86C167.657 241.113 167.719 241.369 167.925 241.56C168.132 241.754 168.432 241.805 168.704 241.765C169.268 241.679 169.685 241.206 169.681 240.633C169.681 240.233 169.388 239.956 169.033 239.837" fill="#FCDD34"/>
<mask id="mask0_808_857" style="mask-type:luminance" maskUnits="userSpaceOnUse" x="148" y="214" width="33" height="42">
<path d="M157.142 214.703C154.962 215.301 153.402 216.959 152.095 218.704C149.34 222.38 148.478 227.185 148.623 231.687C148.706 234.325 149.173 236.863 149.937 239.386C150.589 241.534 151.381 244.382 153.264 245.766C153.521 245.953 153.836 245.741 153.93 245.496C154.6 243.748 154.09 241.596 153.847 239.79C153.579 237.815 153.384 235.832 153.199 233.846C152.88 230.415 153.011 226.734 154.459 223.544C154.987 222.38 157.717 217.658 159.535 219.288C160.067 219.763 160.114 221.05 160.223 221.695C160.385 222.69 160.519 223.692 160.639 224.691C160.907 226.911 161.091 229.142 161.218 231.373C161.359 233.918 165.519 234.848 165.979 232.015C166.504 228.775 167.232 223.526 170.646 221.94C174.534 220.135 174.599 225.631 174.758 228.14C175.034 232.386 174.639 236.643 173.698 240.792C173.22 242.886 172.622 244.977 171.978 247.024C171.301 249.179 170.787 251.375 170.106 253.534C169.632 255.037 171.659 256.158 172.735 255.058C174.73 253.015 176.37 250.809 177.528 248.199C178.661 245.647 179.385 242.987 179.871 240.244C180.859 234.664 180.783 228.735 179.505 223.202C178.944 220.776 177.778 218.365 175.436 217.219C173.155 216.105 170.494 216.343 168.271 217.482C166.797 218.235 165.635 219.327 164.708 220.614C164.397 218.877 163.894 217.15 162.601 215.921C161.58 214.948 160.194 214.483 158.8 214.483C158.242 214.483 157.685 214.559 157.152 214.703" fill="white"/>
</mask>
<g mask="url(#mask0_808_857)">
<path d="M150.329 207.002L138.762 253.783L179 263.645L190.567 216.864L150.329 207.002Z" fill="url(#paint0_linear_808_857)"/>
</g>
<mask id="mask1_808_857" style="mask-type:luminance" maskUnits="userSpaceOnUse" x="182" y="220" width="6" height="16">
<path d="M185.087 220.182C184.012 220.711 183.914 221.634 183.682 222.737C183.414 224.02 183.211 225.3 183.099 226.605C182.9 228.933 182.306 232.516 183.599 234.56C184.906 236.629 187.038 235.483 187.592 233.954C187.617 233.979 187.643 234.005 187.668 234.03C188.081 232.718 187.679 231.662 187.48 230.35C187.295 229.11 187.197 227.855 187.136 226.605C187.074 225.361 187.027 224.118 187.006 222.874C186.984 221.836 187.092 221.075 186.267 220.333C186.061 220.149 185.825 220.059 185.583 220.059C185.416 220.059 185.25 220.099 185.087 220.182Z" fill="white"/>
</mask>
<g mask="url(#mask1_808_857)">
<path d="M182.643 218.728L178.451 235.681L187.76 237.963L191.952 221.009L182.643 218.728Z" fill="url(#paint1_linear_808_857)"/>
</g>
<mask id="mask2_808_857" style="mask-type:luminance" maskUnits="userSpaceOnUse" x="183" y="212" width="5" height="6">
<path d="M184.688 212.544C184.014 212.854 183.504 213.639 183.406 214.35C183.308 215.063 183.587 215.809 184.163 216.224C184.441 216.739 184.945 217.064 185.578 217.056C186.219 217.053 186.784 216.674 187.164 216.188C187.95 215.175 187.892 213.766 186.987 212.836C186.624 212.464 186.172 212.306 185.705 212.306C185.361 212.306 185.013 212.392 184.688 212.54" fill="white"/>
</mask>
<g mask="url(#mask2_808_857)">
<path d="M183.574 211.235L182.199 216.793L187.683 218.137L189.058 212.579L183.574 211.235Z" fill="url(#paint2_linear_808_857)"/>
</g>
<mask id="mask3_808_857" style="mask-type:luminance" maskUnits="userSpaceOnUse" x="189" y="218" width="18" height="20">
<path d="M192.07 219.374C190.404 221.342 190.165 224.269 189.836 226.738C189.474 229.434 189.391 232.134 189.532 234.848C189.659 237.252 193.156 238.604 194.398 236.16C195.035 234.902 195.227 233.446 194.836 232.065C194.774 231.842 194.655 231.662 194.503 231.521C194.445 230.13 194.437 228.739 194.495 227.344C194.521 226.767 194.59 226.172 194.669 225.57C195.136 225.473 195.6 225.343 196.132 225.177C196.917 224.929 197.801 224.629 198.626 224.885C200.227 225.383 200.549 227.924 200.755 229.333C201.001 231.031 200.045 232.945 201.03 234.498C202.326 236.539 205.255 234.935 205.918 233.226C207.261 229.759 205.415 224.074 202.536 221.822C200.494 220.221 197.348 220.106 195.038 221.306C195.017 220.899 194.966 220.499 194.876 220.109C194.702 219.363 193.931 218.877 193.188 218.877C192.772 218.877 192.363 219.028 192.073 219.371" fill="white"/>
</mask>
<g mask="url(#mask3_808_857)">
<path d="M190.411 214.754L184.791 237.483L206.239 242.74L211.859 220.011L190.411 214.754Z" fill="url(#paint3_linear_808_857)"/>
</g>
<mask id="mask4_808_857" style="mask-type:luminance" maskUnits="userSpaceOnUse" x="179" y="238" width="19" height="18">
<path d="M185.119 240.925C182.248 242.782 179.55 246.195 179.402 249.717C179.221 254.042 183.573 256.14 187.327 254.918C189.246 254.294 191.255 253.116 192.986 251.659C193.456 252.827 194.224 253.786 195.632 254.197C196.393 254.42 197.258 253.93 197.453 253.166C198.101 250.661 197.131 248.138 196.751 245.672C196.403 243.409 193.265 243.484 192.215 245.081C191.02 246.898 189.083 248.087 187.265 249.212C186.69 249.569 185.35 250.647 184.568 250.311C183.895 250.023 184.235 249.363 184.478 248.736C185.846 245.211 189.698 243.164 193.261 242.576C194.228 242.418 194.564 241.174 194.141 240.424C193.503 239.3 192.385 238.889 191.121 238.889C189 238.889 186.469 240.046 185.115 240.918" fill="white"/>
</mask>
<g mask="url(#mask4_808_857)">
<path d="M180.302 234.533L175.203 255.155L197.027 260.504L202.126 239.882L180.302 234.533Z" fill="url(#paint4_linear_808_857)"/>
</g>
<mask id="mask5_808_857" style="mask-type:luminance" maskUnits="userSpaceOnUse" x="198" y="237" width="15" height="17">
<path d="M205.878 241.657C206.772 241.697 207.083 242.432 206.24 242.915C205.346 243.427 204.129 243.553 203.112 243.758C203.582 242.572 204.419 241.592 205.878 241.657ZM199.792 241.138C197.638 245.06 197.428 250.985 202.37 252.795C205.599 253.977 211.598 253.57 212.637 249.583C212.862 248.725 212.101 248.116 211.298 248.25C210.505 248.383 209.647 248.296 208.839 248.412C207.884 248.549 206.939 248.657 205.972 248.668C204.151 248.693 202.391 248.314 202.594 246.076C202.601 245.979 202.612 245.878 202.627 245.773C204.071 247.183 206.33 246.945 208.17 246.177C210.45 245.229 210.896 243.027 210.012 240.889C209.151 238.802 207.326 237.876 205.414 237.876C203.228 237.876 200.921 239.083 199.792 241.134" fill="white"/>
</mask>
<g mask="url(#mask5_808_857)">
<path d="M198.311 234.314L193.676 253.06L211.981 257.546L216.616 238.8L198.311 234.314Z" fill="url(#paint5_linear_808_857)"/>
</g>
<mask id="mask6_808_857" style="mask-type:luminance" maskUnits="userSpaceOnUse" x="203" y="237" width="20" height="24">
<path d="M211.16 242.36C211.109 244.18 212.195 245.625 213.687 246.548C214.751 247.208 216.558 247.356 217.376 248.296C219.255 250.452 215.725 252.762 214.096 253.411C212.38 254.096 210.566 254.532 208.752 254.857C206.79 255.206 205.125 255.253 203.535 256.594C203.018 257.03 202.88 258.043 203.275 258.602C205.878 262.264 211.073 260.339 214.451 258.904C217.677 257.535 221 255.538 222.249 252.088C223.39 248.934 222.63 245.452 219.693 243.596C218.756 243.001 217.42 242.399 216.261 242.046C216.402 241.916 216.54 241.783 216.685 241.689C217.514 241.138 218.252 240.94 218.853 240.1C219.263 239.53 219.002 238.82 218.625 238.337C218.104 237.67 217.416 237.393 216.67 237.393C214.252 237.393 211.211 240.309 211.153 242.367" fill="white"/>
</mask>
<g mask="url(#mask6_808_857)">
<path d="M204.057 232.649L197.086 260.842L222.225 267.003L229.196 238.811L204.057 232.649Z" fill="url(#paint6_linear_808_857)"/>
</g>
<mask id="mask7_808_857" style="mask-type:luminance" maskUnits="userSpaceOnUse" x="219" y="231" width="18" height="21">
<path d="M226.895 233.738C225.682 234.167 224.335 234.805 223.043 234.906C222.536 234.945 222.058 234.859 221.58 234.772C220.997 234.664 220.421 234.56 219.806 234.686C219.386 234.772 218.962 235.284 219.009 235.724C219.285 238.24 221.674 239.019 223.998 239.073C223.669 240.345 223.763 241.935 223.73 242.922C223.644 245.6 223.886 248.556 225.407 250.856C225.946 251.67 227.163 251.526 227.467 250.589C228.068 248.733 228.194 246.7 228.419 244.771C228.64 242.872 229.299 240.72 228.661 238.864C228.607 238.701 228.535 238.554 228.459 238.413C231.322 237.609 234.103 236.211 235.805 233.749C236.387 232.902 235.584 231.975 234.733 231.892C234.447 231.864 234.164 231.849 233.886 231.849C231.402 231.849 229.233 232.913 226.895 233.742" fill="white"/>
</mask>
<g mask="url(#mask7_808_857)">
<path d="M219.962 227.822L214.346 250.537L235.396 255.696L241.013 232.981L219.962 227.822Z" fill="url(#paint7_linear_808_857)"/>
</g>
<mask id="mask8_808_857" style="mask-type:luminance" maskUnits="userSpaceOnUse" x="230" y="235" width="14" height="16">
<path d="M235.222 237.602C234.538 238.081 233.669 238.809 233.01 239.653C232.5 239.127 231.424 239.076 231.099 239.84C230.508 241.214 230.425 242.731 230.349 244.213C230.277 245.708 230.103 247.417 230.498 248.873C230.769 249.879 231.638 250.369 232.608 250.474C232.659 250.481 232.713 250.484 232.764 250.492C233.412 250.56 234.089 250.081 234.404 249.554C235.211 248.21 234.57 246.235 234.386 244.771C234.346 244.465 234.31 244.148 234.27 243.83C235.095 243.513 235.599 242.746 236.352 242.263C237.373 241.61 238.694 241.275 239.871 241.005C240.939 240.759 242.123 240.741 242.897 239.848C243.719 238.903 243.437 237.638 242.59 236.82C241.891 236.146 240.997 235.879 240.048 235.879C238.332 235.879 236.446 236.744 235.222 237.598" fill="white"/>
</mask>
<g mask="url(#mask8_808_857)">
<path d="M230.887 232.74L226.688 249.726L242.943 253.71L247.143 236.724L230.887 232.74Z" fill="url(#paint8_linear_808_857)"/>
</g>
<mask id="mask9_808_857" style="mask-type:luminance" maskUnits="userSpaceOnUse" x="236" y="240" width="15" height="14">
<path d="M240.577 248.477C239.722 247.716 241.656 246.354 242.271 245.838C243.06 245.175 243.781 244.721 244.577 244.35C244.61 244.508 244.653 244.67 244.718 244.84C245.229 246.155 244.845 246.829 243.806 247.781C243.212 248.325 242.456 248.927 241.674 248.927C241.312 248.927 240.942 248.797 240.58 248.477M238.752 244.122C236.42 246.134 235.45 249.313 237.785 251.728C238.777 252.752 240.182 253.563 241.58 253.818C243.379 254.146 244.914 253.335 246.322 252.308C249.074 250.304 251.351 246.855 250.203 243.329C249.682 241.729 248.216 241.206 246.905 241.43C246.84 241.365 246.771 241.3 246.695 241.242C246.152 240.85 245.558 240.684 244.947 240.684C242.716 240.684 240.215 242.864 238.756 244.122" fill="white"/>
</mask>
<g mask="url(#mask9_808_857)">
<path d="M236.362 237.011L232.314 253.38L250.447 257.825L254.495 241.455L236.362 237.011Z" fill="url(#paint9_linear_808_857)"/>
</g>
<mask id="mask10_808_857" style="mask-type:luminance" maskUnits="userSpaceOnUse" x="207" y="220" width="6" height="17">
<path d="M210.05 221.007C208.974 221.537 208.877 222.46 208.645 223.563C208.377 224.846 208.174 226.125 208.062 227.43C207.863 229.759 207.273 233.341 208.565 235.382C209.872 237.451 212.005 236.304 212.559 234.776C212.584 234.801 212.609 234.826 212.635 234.852C213.047 233.536 212.646 232.484 212.446 231.172C212.262 229.932 212.164 228.677 212.102 227.427C212.041 226.183 211.994 224.939 211.972 223.696C211.95 222.658 212.059 221.897 211.234 221.155C211.027 220.971 210.792 220.881 210.549 220.881C210.383 220.881 210.216 220.92 210.053 221.003" fill="white"/>
</mask>
<g mask="url(#mask10_808_857)">
<path d="M207.604 219.554L203.412 236.508L212.721 238.79L216.913 221.836L207.604 219.554Z" fill="url(#paint10_linear_808_857)"/>
</g>
<mask id="mask11_808_857" style="mask-type:luminance" maskUnits="userSpaceOnUse" x="208" y="213" width="5" height="5">
<path d="M209.648 213.366C208.975 213.676 208.465 214.461 208.367 215.171C208.269 215.889 208.548 216.631 209.124 217.049C209.402 217.565 209.906 217.889 210.539 217.882C211.18 217.878 211.745 217.5 212.125 217.013C212.91 216 212.853 214.591 211.947 213.661C211.585 213.286 211.129 213.131 210.666 213.131C210.322 213.131 209.974 213.218 209.648 213.366Z" fill="white"/>
</mask>
<g mask="url(#mask11_808_857)">
<path d="M208.538 212.058L207.164 217.616L212.648 218.96L214.022 213.402L208.538 212.058Z" fill="url(#paint11_linear_808_857)"/>
</g>
<path d="M193.222 258.919C193.085 259.405 193.208 259.906 193.609 260.281C194.011 260.66 194.594 260.761 195.123 260.681C196.223 260.516 197.031 259.596 197.02 258.479C197.013 257.7 196.448 257.163 195.76 256.929C195.152 256.724 194.363 256.911 193.877 257.297C193.389 257.686 193.113 258.317 193.226 258.919" fill="#BCD631"/>
<path d="M241.014 228.083C240.062 228.396 239.628 229.286 239.606 230.216C239.588 231.035 240.127 231.918 240.79 232.357C241.46 232.801 242.336 232.884 243.027 232.516C243.679 232.491 244.244 232.148 244.544 231.514C244.848 230.876 244.747 230.133 244.443 229.524C243.809 228.256 242.372 227.636 241.011 228.079" fill="#66CDF2"/>
<path d="M247.768 236.438C247.456 236.333 247.051 236.427 246.801 236.629C246.548 236.831 246.41 237.155 246.464 237.461C246.396 237.714 246.457 237.97 246.664 238.161C246.87 238.355 247.167 238.406 247.442 238.366C248.007 238.28 248.423 237.807 248.419 237.234C248.419 236.834 248.126 236.557 247.771 236.438" fill="#66CDF2"/>
<path d="M231.145 253.656C230.537 253.451 229.748 253.638 229.262 254.024C228.774 254.413 228.499 255.044 228.611 255.646C228.473 256.132 228.596 256.634 228.998 257.008C229.4 257.387 229.979 257.488 230.511 257.408C231.612 257.243 232.419 256.324 232.409 255.206C232.401 254.428 231.837 253.891 231.149 253.656" fill="#66CDF2"/>
<path d="M146.739 244.461C146.373 244.631 146.095 245.056 146.044 245.442C145.99 245.831 146.142 246.235 146.453 246.458C146.605 246.739 146.877 246.912 147.221 246.909C147.568 246.909 147.876 246.703 148.079 246.436C148.506 245.889 148.473 245.121 147.985 244.62C147.641 244.267 147.152 244.267 146.739 244.458" fill="#EE4F9C"/>
<path d="M152.126 253.065C151.517 252.86 150.728 253.047 150.243 253.433C149.754 253.822 149.479 254.453 149.591 255.055C149.454 255.541 149.577 256.042 149.979 256.417C150.38 256.796 150.96 256.897 151.492 256.817C152.593 256.652 153.4 255.732 153.389 254.615C153.382 253.836 152.817 253.299 152.129 253.065" fill="#EE4F9C"/>
<path d="M157.569 249.241C156.041 249.742 155.342 251.173 155.313 252.665C155.288 253.977 156.149 255.397 157.214 256.1C158.285 256.807 159.694 256.944 160.805 256.356C161.848 256.316 162.753 255.765 163.238 254.752C163.727 253.732 163.564 252.539 163.075 251.558C162.061 249.526 159.755 248.527 157.569 249.241Z" fill="#FCDD34"/>
<path d="M127.679 220.571C126.966 219.706 126.183 218.981 125.329 218.278C125.84 218.938 126.241 219.652 126.422 220.492C125.608 219.367 124.786 218.206 123.761 217.136C122.451 216.267 121.021 215.579 119.565 215.02C119.746 214.897 119.935 214.836 120.119 214.822C119.562 214.699 119.011 214.591 118.465 214.486C118.277 214.548 118.088 214.62 117.907 214.692C117.98 214.627 118.146 214.544 118.273 214.454C116.586 214.144 114.873 213.924 113.193 214.086C113.324 214.061 113.371 213.906 113.414 213.776C113.324 213.805 113.233 213.827 113.143 213.845C112.904 213.939 112.672 214.047 112.44 214.104C112.658 213.957 112.9 213.895 113.143 213.845C113.241 213.805 113.338 213.766 113.432 213.726C113.476 213.611 113.537 213.538 113.675 213.625C114.128 213.459 114.569 213.347 114.899 213.492C115.521 213.762 116.097 213.751 116.676 213.751C117.248 213.755 117.824 213.762 118.295 214.09C118.519 214.216 118.425 214.342 118.269 214.454L118.465 214.486C118.896 214.357 119.345 214.281 119.743 214.393C119.96 214.468 120.17 214.562 120.38 214.659C120.59 214.75 120.793 214.858 120.992 214.969L121.242 215.063L121.108 215.034C122.132 215.607 123.005 216.35 123.761 217.139C124.301 217.496 124.829 217.878 125.329 218.282C124.605 217.345 123.678 216.545 122.798 215.625C123.696 215.766 124.576 216.155 125.289 216.728C124.873 216.307 124.413 215.907 123.924 215.528C123.62 215.142 123.291 214.771 123.153 214.328C123.656 214.735 124.08 215.024 124.58 215.179C123.794 214.45 122.889 213.73 121.864 213.095C122.426 213.412 123.059 213.661 123.631 213.982C124.203 214.303 124.724 214.699 125.036 215.279C124.873 215.258 124.724 215.222 124.58 215.179C126.017 216.505 127.132 217.831 128.272 219.1C128.341 217.777 126.614 217.511 126.299 216.22C127.139 216.786 127.863 217.475 128.526 218.192C128.812 218.505 129.102 218.844 129.391 219.205C129.768 218.801 130.148 218.397 130.528 217.997C130.231 217.55 129.945 217.121 129.684 216.71C129.076 215.759 128.432 214.735 127.639 213.726C128.356 213.661 128.598 214.014 128.696 214.422C128.801 214.829 128.772 215.297 129.015 215.51C129.739 216.058 130.322 216.606 130.944 217.287C130.988 217.334 131.031 217.384 131.071 217.435C131.498 216.992 131.933 216.552 132.364 216.116C132.204 215.928 132.049 215.744 131.889 215.579C131.614 215.287 131.35 215.034 131.053 214.778C130.756 214.526 130.437 214.285 130.09 214.058C128.602 213.394 127.204 212.504 125.593 211.747C124.855 211.102 123.555 210.32 122.925 210.269C121.169 210.287 119.5 210.536 117.933 210.864C116.361 211.188 114.888 211.621 113.432 212.032C112.115 212.27 110.782 212.745 109.562 213.398C108.338 214.043 107.223 214.822 106.177 215.629C105.124 216.433 104.132 217.258 103.085 218.066C102.035 218.873 100.92 219.662 99.6133 220.473C99.9717 220.344 100.298 220.156 100.613 219.947C100.938 219.745 101.239 219.511 101.557 219.302C102.187 218.88 102.832 218.52 103.538 218.505L103.639 218.945C104.146 219.075 104.74 218.754 105.181 218.729C105.229 218.945 105.011 218.96 104.794 218.985C105.011 218.96 105.015 218.963 105.229 218.942C104.895 219.396 104.142 219.893 103.675 220.43C103.201 220.96 103.016 221.461 103.73 221.667C104.081 221.771 104.407 221.753 104.722 221.667C105.026 221.576 105.323 221.418 105.616 221.234C106.199 220.866 106.789 220.398 107.397 220.142C107.404 220.82 107.082 221.209 106.731 221.62C106.38 222.02 105.963 222.427 105.88 222.939C106.264 222.849 106.742 222.943 107.01 222.737C107.357 222.481 107.734 222.265 108.096 222.067C108.328 221.789 108.364 221.349 109.135 221.605L109.233 221.569C109.24 221.49 109.16 221.335 109.2 221.281C109.511 221.176 109.808 221.425 109.859 221.021C109.921 221.086 109.953 221.144 109.979 221.194C109.975 221.047 110.185 221.075 110.134 220.852C110.243 220.975 110.351 221.101 110.453 221.191C111.137 221.021 111.781 220.913 112.379 220.827C112.56 220.809 112.726 220.769 112.893 220.755C113.012 220.679 113.146 220.625 113.298 220.618C113.364 220.585 113.335 220.243 113.349 220.153C113.479 220.236 113.603 220.318 113.722 220.391C113.845 220.466 113.968 220.538 114.088 220.582C114.106 220.488 114.178 220.47 114.225 220.29C114.287 220.416 114.348 220.528 114.406 220.618C114.689 220.603 114.971 220.607 115.25 220.618V220.578C115.529 220.51 115.869 220.636 116.173 220.693C116.484 220.744 116.767 220.704 117.067 220.246C117.107 220.571 117.161 220.82 117.241 220.993C117.527 221.111 117.802 221.241 118.045 221.421C118.117 221.328 118.161 221.176 118.208 221.072C118.28 221.245 118.313 221.472 118.353 221.67C118.53 221.825 118.707 222.02 118.874 222.243C118.964 222.225 119.069 222.182 119.2 222.121C119.131 222.279 119.091 222.413 119.073 222.524C119.135 222.618 119.192 222.712 119.25 222.816C119.41 223.083 119.837 223.429 120.376 223.858C120.496 223.811 120.601 223.768 120.594 223.808C120.724 223.955 120.847 224.114 120.941 224.287C121.51 224.72 121.995 225.04 122.292 225.152C122.534 225.166 122.86 224.716 123.128 224.175C123.403 223.642 123.613 223.025 123.83 222.896C124.692 222.481 125.13 222.593 125.514 222.86C125.64 222.95 125.76 223.054 125.887 223.162C126.538 222.384 127.204 221.612 127.881 220.852C127.809 220.758 127.744 220.661 127.671 220.571" fill="#F5A326"/>
<path d="M122.174 235.587C122.08 234.855 121.707 234.491 121.16 234.066C120.487 233.547 119.759 233.093 118.988 232.729C121.139 229.149 123.738 225.668 126.587 222.341C126.446 222.287 126.301 222.243 126.157 222.204C125.842 222.121 125.527 222.078 125.215 222.067C123.879 221.558 122.435 221.281 120.921 221.281C119.528 221.281 118.195 221.519 116.95 221.951C116.646 221.667 116.291 221.375 115.867 221.083C115.607 220.91 115.335 220.744 115.056 220.592C114.774 220.437 114.43 220.286 114.108 220.156C113.793 220.027 113.409 219.915 113.051 219.821C112.685 219.724 112.316 219.663 111.936 219.619C111.157 219.526 110.48 219.547 109.745 219.634C109.007 219.731 108.33 219.918 107.761 220.135C107.113 220.365 106.574 220.639 106.139 220.892C105.708 221.148 105.368 221.385 105.097 221.591C105.064 221.616 105.039 221.634 105.01 221.656C105.078 221.551 105.14 221.44 105.212 221.335C105.397 221.072 105.582 220.805 105.766 220.556C105.955 220.329 106.136 220.149 106.299 220.027C106.461 219.9 106.606 219.85 106.69 219.864C106.711 219.864 106.726 219.879 106.74 219.89C106.671 219.807 106.588 219.727 106.523 219.637C106.545 219.666 106.566 219.691 106.588 219.72C106.719 219.861 106.639 219.781 106.632 219.781C106.61 219.771 106.581 219.771 106.552 219.763C106.425 219.763 106.237 219.832 106.034 219.951C105.828 220.066 105.603 220.228 105.368 220.398C105.14 220.589 104.905 220.762 104.666 220.91L104.611 220.167C104.286 220.239 103.887 220.578 103.482 220.975C103.272 221.169 103.098 221.396 102.924 221.609C102.751 221.818 102.584 222.016 102.432 222.175C102.389 221.84 102.613 221.555 102.866 221.288C102.675 221.483 102.635 221.526 102.378 221.789C102.602 221.075 103.102 220.272 103.612 219.468C104.144 218.689 104.803 218.062 105.321 217.871C105.448 217.817 105.574 217.785 105.676 217.763C105.737 217.763 105.803 217.752 105.879 217.756C106.031 217.756 106.19 217.777 106.32 217.785C106.447 217.792 106.563 217.774 106.668 217.723C106.776 217.669 106.903 217.579 106.994 217.406C107.084 217.233 107.099 217.024 106.983 216.797C106.874 216.57 106.635 216.339 106.27 216.166C106.089 216.08 105.871 216.018 105.629 215.982C105.393 215.957 105.093 215.961 104.832 216.018C104.293 216.112 103.732 216.375 103.247 216.732C102.754 217.089 102.334 217.536 101.961 218.004C101.578 218.473 101.292 218.956 100.969 219.45C100.814 219.695 100.651 219.944 100.502 220.192C100.365 220.448 100.231 220.704 100.097 220.957C99.9592 221.212 99.8253 221.465 99.6913 221.71C99.561 221.959 99.4596 222.214 99.3437 222.46C99.3474 222.225 99.3655 221.991 99.3872 221.753C99.4234 221.519 99.4741 221.288 99.5284 221.05C99.6479 220.585 99.7565 220.099 99.9556 219.641C100.361 218.718 100.745 217.828 101.527 216.844C101.911 216.364 102.385 215.867 103.011 215.442C103.323 215.229 103.667 215.034 104.047 214.883C104.239 214.804 104.412 214.746 104.64 214.681C104.879 214.616 105.118 214.573 105.346 214.551C106.277 214.465 107.106 214.631 107.884 214.984C108.272 215.161 108.648 215.395 108.996 215.719C109.34 216.036 109.666 216.447 109.861 216.956C109.771 216.444 109.586 216.04 109.376 215.662C109.166 215.305 108.916 214.977 108.616 214.696C108.007 214.14 107.215 213.618 105.77 213.549C105.314 213.531 104.829 213.575 104.329 213.694C104.195 213.722 104.097 213.751 104.003 213.78L103.71 213.87C103.522 213.939 103.33 214.011 103.152 214.09C102.432 214.414 101.816 214.84 101.328 215.269C100.347 216.134 99.7239 217.006 99.2279 217.741C98.8369 218.531 98.4857 219.284 98.1852 220.03C98.0223 220.398 97.8377 220.755 97.6132 221.097C97.4032 221.443 97.1679 221.786 96.8601 222.117C96.7986 222.261 96.7407 222.406 96.6791 222.55C96.661 222.705 96.6755 222.867 96.6827 223.022C96.7008 223.18 96.7153 223.339 96.6827 223.49C96.4655 224.154 96.2338 224.539 96.0564 224.961C95.9044 225.383 95.8102 225.844 95.8681 226.63C95.7704 226.637 95.7052 226.572 95.6545 226.479C95.7052 226.958 95.5061 227.69 95.7088 228.227C95.5278 228.248 95.3468 228.266 95.1948 228.375C94.7313 231.806 95.0608 235.374 96.1288 238.86C96.27 239.383 96.4836 239.884 96.6755 240.388C96.871 240.889 97.0593 241.394 97.3091 241.873C97.5335 242.273 97.7616 242.681 97.9933 243.095C98.225 243.506 98.4966 243.91 98.7391 244.335C99.0215 244.742 99.5501 244.926 99.7782 245.049C100.057 245.615 100.343 246.184 100.662 246.775C101.016 247.345 101.415 247.925 101.878 248.542C102.102 248.65 102.504 249.043 103.152 249.367C103.362 249.735 103.663 250.135 104.112 250.553C104.782 250.993 105.636 251.443 106.668 251.75C106.795 251.789 106.929 251.822 107.059 251.858C107.189 251.89 107.316 251.923 107.497 251.955C107.837 252.023 108.17 252.067 108.493 252.092C109.144 252.142 109.771 252.121 110.382 252.038C111.602 251.865 112.819 251.476 114.05 250.643C114.662 250.225 115.274 249.666 115.795 248.974C115.99 248.715 116.161 248.43 116.32 248.138C116.468 248.289 116.617 248.444 116.776 248.588L117.435 249.205C117.522 249.288 117.714 249.453 117.884 249.594C118.058 249.738 118.253 249.886 118.456 250.037C118.166 249.781 117.916 249.533 117.71 249.298L117.63 249.208L117.58 249.14L117.486 249.003C117.428 248.913 117.366 248.823 117.308 248.733C117.084 248.369 116.877 248.015 116.74 247.648C116.689 247.63 116.638 247.597 116.591 247.576C116.733 247.244 116.859 246.901 116.943 246.552C117.055 246.087 117.102 245.607 117.087 245.128C116.142 245.726 115.093 246.173 113.992 246.469C112.232 246.941 110.339 247.031 108.536 246.757C105.31 246.264 102.356 244.602 100.94 241.848L100.864 241.704C100.933 241.841 100.89 241.758 100.864 241.704C100.586 241.174 100.452 240.918 100.756 240.403C101.096 239.826 101.4 239.851 101.987 239.905C101.99 239.905 101.994 239.905 102.182 239.92C105.806 240.165 106.226 239.595 107.725 237.541C108.04 237.108 108.398 236.618 108.88 236.002C108.974 235.883 109.039 235.796 109.086 235.746C110.715 233.781 112.692 232.862 114.731 232.786C116.729 232.711 118.756 233.464 120.545 234.845C120.86 235.09 121.131 235.273 121.186 235.71C121.638 239.274 120.577 241.971 118.72 243.838C118.369 244.191 117.985 244.512 117.58 244.804C118.521 245.074 119.502 245.236 120.523 245.269C120.523 245.269 120.527 245.269 120.53 245.272C120.762 245.431 121.016 245.589 121.302 245.741C121.87 246.026 122.594 246.35 123.615 246.328C124.118 246.314 124.669 246.173 125.114 245.907C125.57 245.647 125.95 245.243 126.164 244.836C126.403 244.396 126.377 244.252 126.327 244.27C126.269 244.285 126.138 244.461 125.932 244.667C125.733 244.876 125.425 245.099 125.146 245.2C124.868 245.312 124.643 245.305 124.596 245.24C124.73 245.042 124.86 244.822 124.955 244.587C125.06 244.551 125.161 244.512 125.262 244.472C125.204 244.58 125.139 244.685 125.056 244.778C125.165 244.681 125.244 244.566 125.317 244.447C128.521 243.192 131.059 240.615 132.239 237.386C132.268 237.415 132.297 237.454 132.322 237.483C132.565 237.415 132.793 237.573 132.999 237.699C133.205 237.829 133.397 237.923 133.56 237.811C133.336 237.548 133.017 237.159 132.637 236.611C132.604 236.564 132.568 236.51 132.532 236.459C132.543 236.42 132.554 236.384 132.565 236.344C132.684 236.485 132.8 236.607 132.912 236.722C132.804 236.607 132.688 236.474 132.568 236.33C132.825 235.356 132.963 234.333 132.963 233.277C132.963 232.22 132.822 231.193 132.565 230.216C129.259 232.941 125.813 235.407 122.279 237.429C122.286 236.82 122.25 236.203 122.17 235.583M105.024 236.903C105.024 236.903 105.013 236.874 105.006 236.859C105.013 236.874 105.017 236.888 105.024 236.903ZM103.348 229.124C103.674 228.421 104.054 227.715 104.492 227.026C104.528 227.026 104.564 227.026 104.601 227.03C104.119 227.697 103.699 228.396 103.348 229.121M104.449 233.828C104.503 233.125 104.626 232.433 104.807 231.752C104.861 231.784 104.912 231.82 104.97 231.849C104.709 232.556 104.561 233.399 104.561 234.307C104.561 235.216 104.713 236.063 104.973 236.773C104.611 235.854 104.398 234.848 104.449 233.832M105.593 238.658C105.383 238.312 105.173 237.966 104.988 237.606C105.046 237.505 105.18 237.638 105.328 237.833C105.27 237.652 105.234 237.465 105.187 237.278C105.183 237.27 105.18 237.26 105.176 237.252C105.176 237.26 105.183 237.263 105.187 237.27C105.187 237.27 105.187 237.274 105.187 237.278C105.292 237.508 105.404 237.732 105.527 237.952C105.643 238.175 105.774 238.388 105.908 238.6C105.766 238.463 105.524 238.096 105.325 237.833C105.401 238.11 105.495 238.384 105.589 238.658" fill="#FCDD34"/>
<path d="M120.553 234.845C120.636 234.909 120.715 234.971 120.791 235.036L120.86 234.895C121.201 234.852 121.537 234.805 121.878 234.772C121.584 234.729 121.291 234.675 120.998 234.617L121.175 234.257C121.262 234.264 121.345 234.282 121.432 234.289C121.345 234.214 121.255 234.142 121.161 234.066C120.487 233.547 119.76 233.093 118.988 232.729C121.012 229.359 123.438 226.075 126.092 222.925C126.005 222.885 125.918 222.842 125.831 222.802C125.94 222.816 126.048 222.831 126.157 222.849C128.145 220.495 130.259 218.221 132.438 216.036C132.341 215.957 132.243 215.874 132.145 215.795C131.765 215.676 130.994 215.229 129.984 214.706C128.955 214.173 127.544 213.481 125.813 213.03C124.119 212.594 122.377 212.482 120.9 212.583C119.423 212.681 118.206 212.965 117.49 213.128L117.243 213.225C116.476 213.448 115.65 213.812 114.93 214.303C114.231 214.786 113.554 215.442 113.167 216.127C112.848 216.822 112.667 217.576 112.584 218.304C112.935 218.206 113.275 218.149 113.583 218.134C113.156 218.552 112.794 219.043 112.881 219.371C112.805 220.063 113.058 220.322 113.395 220.427C113.735 220.531 114.191 220.502 114.666 220.596C114.901 220.596 115.1 220.758 115.307 220.902C115.513 221.047 115.734 221.173 115.987 221.155C115.85 221.339 115.777 221.436 115.665 221.641C115.824 221.746 115.853 221.562 115.915 221.411C115.984 221.263 116.07 221.151 116.28 221.396C116.045 221.49 116.132 221.825 116.041 222.009C116.28 222.092 116.385 221.955 116.505 221.843C116.621 221.728 116.74 221.638 116.936 221.8C116.954 221.872 116.744 221.879 116.595 221.937C116.44 221.991 116.36 222.088 116.624 222.251C116.733 222.315 116.82 222.16 116.871 222.088C116.845 222.247 116.871 222.402 116.932 222.539C116.889 222.56 116.845 222.579 116.798 222.604L116.823 222.633C115.817 223.242 114.926 224.02 114.195 225.134C113.833 225.693 113.514 226.356 113.308 227.138C113.102 227.913 113.026 228.829 113.167 229.744C113.308 230.681 113.648 231.5 114.029 232.112C114.195 232.379 114.365 232.606 114.528 232.801C114.597 232.797 114.666 232.783 114.738 232.783C116.737 232.707 118.764 233.46 120.553 234.841M120.031 228.778C120.006 228.771 119.98 228.764 119.959 228.76C119.973 228.76 119.988 228.764 120.002 228.767C120.013 228.767 120.02 228.775 120.031 228.778ZM119.999 228.638C119.999 228.638 119.98 228.648 119.973 228.652C119.962 228.659 119.959 228.659 119.952 228.663C119.966 228.656 119.984 228.645 120.002 228.634M119.901 228.688C119.901 228.688 119.875 228.699 119.865 228.706C119.875 228.703 119.89 228.695 119.901 228.688ZM119.886 228.746C119.868 228.746 119.85 228.742 119.836 228.742C119.85 228.742 119.868 228.742 119.886 228.746ZM119.836 228.717C119.836 228.717 119.836 228.717 119.832 228.717L119.752 228.742C119.749 228.742 119.763 228.742 119.771 228.742C119.771 228.742 119.781 228.742 119.785 228.742C119.774 228.742 119.76 228.742 119.752 228.742L119.836 228.717Z" fill="#EE4F9C"/>
<path d="M128.837 234.243C128.642 234.333 128.352 234.369 128.062 234.405C128.153 234.455 128.533 234.614 128.53 234.661C128.461 234.736 128.446 234.826 128.454 234.92C128.685 234.65 128.855 234.369 128.997 234.084C128.87 234.077 128.729 234.062 128.566 234.041C128.754 234.142 128.75 234.192 128.845 234.243" fill="#BCD631"/>
<path d="M122.27 222.834C121.817 222.791 122.089 222.712 121.756 222.651C121.473 222.78 121.354 222.899 121.405 223.047L121.303 222.752C121.386 222.997 121.314 223.267 121.582 223.53C121.618 223.62 120.17 223.725 121.216 223.851C121.705 223.49 122.27 223.166 122.273 222.831" fill="#BCD631"/>
<path d="M122.302 222.409C122.302 222.377 122.295 222.344 122.284 222.308C122.222 222.333 122.255 222.369 122.302 222.409Z" fill="#BCD631"/>
<path d="M123.877 224.406C124.026 224.255 124.156 224.11 124.268 223.973C124.217 223.955 124.156 223.941 124.069 223.927C123.537 224.096 123.986 224.251 123.877 224.41" fill="#BCD631"/>
<path d="M125.619 223.382C125.159 223.494 124.978 223.631 125.025 223.761C125.101 223.627 125.26 223.498 125.619 223.382Z" fill="#BCD631"/>
<path d="M129.16 233.587L129.203 233.601C129.344 233.248 129.467 232.894 129.623 232.552C129.532 232.621 129.438 232.689 129.348 232.761C129.576 233.086 129.105 233.305 129.163 233.59" fill="#BCD631"/>
<path d="M106.466 247.503L107.621 249.598C108.142 250.546 108.772 251.299 109.46 251.962C110.155 252.618 110.919 253.18 111.795 253.656C111.082 253.199 110.358 252.661 109.663 252.002C108.968 251.339 108.291 250.56 107.722 249.536L106.636 247.583C106.535 247.395 106.448 247.201 106.375 246.999C106.278 246.725 106.216 246.447 106.187 246.17C106.129 246.148 106.071 246.123 106.01 246.101C106.071 246.577 106.22 247.053 106.47 247.503" fill="#66CDF2"/>
<path d="M110.354 248.264L109.963 248.556C109.981 248.574 110.003 248.596 110.024 248.614L110.408 248.329C110.39 248.311 110.372 248.286 110.354 248.264Z" fill="#66CDF2"/>
<path d="M108.813 254.211C107.904 254.507 107.491 255.361 107.473 256.244C107.458 257.023 107.969 257.866 108.603 258.284C109.24 258.706 110.076 258.785 110.735 258.436C111.354 258.411 111.893 258.086 112.179 257.484C112.469 256.879 112.375 256.169 112.082 255.588C111.481 254.381 110.109 253.786 108.813 254.211Z" fill="#66CDF2"/>
<path d="M105.912 218.725C105.898 218.761 105.891 218.779 105.891 218.779C105.891 218.779 105.898 218.764 105.912 218.725Z" fill="#FCDD34"/>
<path d="M105.843 218.21L105.84 218.203L105.851 218.231L105.843 218.21Z" fill="#FCDD34"/>
<path d="M106.193 219.158C106.273 219.378 106.255 219.324 106.193 219.158Z" fill="#FCDD34"/>
<path d="M106.505 219.626C106.505 219.626 106.512 219.636 106.519 219.64C106.505 219.622 106.487 219.597 106.473 219.583C106.483 219.597 106.494 219.612 106.508 219.626" fill="#FCDD34"/>
<path d="M106.123 218.967C106.09 218.877 106.043 218.758 105.996 218.628C106.04 218.743 106.083 218.859 106.123 218.967Z" fill="#FCDD34"/>
<path d="M105.981 218.592C105.927 218.451 105.883 218.325 105.854 218.246C105.844 218.213 105.836 218.195 105.829 218.181C105.702 217.835 105.753 217.979 105.854 218.246C105.894 218.35 105.938 218.469 105.981 218.592Z" fill="#FCDD34"/>
<path d="M106.146 219.039C106.154 219.064 106.165 219.086 106.172 219.107C106.172 219.107 106.161 219.075 106.146 219.039Z" fill="#FCDD34"/>
<path d="M105.922 218.704C105.933 218.678 105.951 218.642 105.973 218.61C105.965 218.628 105.951 218.646 105.944 218.66C105.933 218.682 105.933 218.689 105.925 218.704" fill="#FCDD34"/>
<path d="M106.176 219.111C106.176 219.111 106.176 219.107 106.176 219.104C106.176 219.104 106.176 219.107 106.176 219.111C106.183 219.132 106.186 219.143 106.19 219.153C106.186 219.139 106.179 219.129 106.176 219.111V219.118V219.107" fill="#FCDD34"/>
<path d="M105.971 218.61C105.971 218.61 105.978 218.599 105.981 218.592C105.978 218.599 105.974 218.606 105.971 218.613" fill="#FCDD34"/>
<path d="M106.18 219.125V219.14C106.18 219.14 106.194 219.161 106.205 219.182C106.197 219.168 106.19 219.15 106.187 219.143L106.18 219.125Z" fill="#FCDD34"/>
<path d="M106.336 219.396C106.355 219.425 106.376 219.453 106.394 219.479C106.355 219.425 106.322 219.374 106.293 219.331C106.307 219.356 106.322 219.378 106.336 219.396Z" fill="#FCDD34"/>
<path d="M106.248 219.259C106.263 219.284 106.277 219.306 106.291 219.331C106.273 219.302 106.259 219.28 106.248 219.259Z" fill="#FCDD34"/>
<path d="M106.233 219.233C106.233 219.233 106.244 219.247 106.248 219.254C106.24 219.24 106.233 219.226 106.223 219.212C106.226 219.219 106.23 219.226 106.233 219.233Z" fill="#FCDD34"/>
<path d="M105.839 218.203V218.199L105.832 218.188L105.839 218.203Z" fill="#FCDD34"/>
<path d="M106.687 217.972C106.655 217.983 106.546 218.012 106.416 218.113C106.398 218.127 106.379 218.145 106.361 218.159C106.405 218.123 106.452 218.087 106.492 218.066C106.597 218.001 106.662 217.979 106.687 217.976" fill="#FCDD34"/>
<path d="M106.688 217.968C106.702 217.968 106.702 217.965 106.688 217.968Z" fill="#FCDD34"/>
<path d="M105.912 218.725C105.912 218.725 105.919 218.711 105.923 218.704C105.923 218.704 105.923 218.711 105.919 218.711C105.919 218.718 105.919 218.718 105.916 218.725" fill="#FCDD34"/>
<path d="M105.832 218.181C105.824 218.167 105.824 218.163 105.832 218.181Z" fill="#FCDD34"/>
<path d="M105.89 218.415C105.879 218.354 105.864 218.3 105.854 218.25C105.882 218.35 105.908 218.491 105.904 218.596C105.904 218.588 105.904 218.585 105.904 218.578C105.904 218.527 105.897 218.469 105.89 218.415Z" fill="#FCDD34"/>
<path d="M105.167 211.25C105.587 211.527 106.137 211.581 106.571 211.351C106.977 211.336 107.332 211.12 107.523 210.723C107.715 210.323 107.65 209.858 107.458 209.476C107.06 208.68 106.162 208.29 105.308 208.572C104.71 208.766 104.439 209.325 104.428 209.909C104.417 210.421 104.754 210.976 105.17 211.25" fill="#FCDD34"/>
<path d="M98.1469 213.524C98.3678 213.672 98.661 213.701 98.8927 213.578C99.1099 213.571 99.2946 213.456 99.396 213.247C99.4973 213.034 99.4647 212.789 99.3634 212.583C99.1534 212.162 98.6755 211.956 98.2229 212.104C97.908 212.208 97.7595 212.504 97.7559 212.814C97.7523 213.084 97.9297 213.38 98.1505 213.524" fill="#FCDD34"/>
<path d="M125.896 235.194C125.516 235.446 125.136 235.695 124.752 235.94C124.651 236.005 124.549 236.066 124.444 236.131C124.144 236.322 123.843 236.51 123.539 236.694C123.123 236.946 122.703 237.195 122.283 237.436C122.29 236.827 122.25 236.211 122.174 235.591C122.08 234.859 121.707 234.495 121.161 234.07C120.487 233.551 119.76 233.096 118.988 232.732C119.322 232.181 119.665 231.633 120.02 231.085C120.104 230.955 120.187 230.829 120.27 230.699C120.596 230.198 120.933 229.697 121.277 229.204C121.302 229.164 121.331 229.124 121.356 229.088C122.178 227.906 123.043 226.738 123.941 225.585C123.916 225.563 123.894 225.541 123.88 225.516C123.872 225.534 123.869 225.556 123.865 225.574C123.738 225.556 123.608 225.545 123.478 225.545C123.413 225.545 123.351 225.549 123.289 225.556C123.362 225.372 123.398 225.195 123.373 225.026C122.468 225.26 123.557 225.35 122.83 225.599C122.507 225.35 122.594 225.026 122.569 224.727C122.544 224.42 122.406 224.136 121.624 223.851C121.548 224.067 121.476 224.283 121.081 224.532C121.157 224.485 121.07 224.442 121.005 224.395C121.034 224.55 120.983 224.698 121.059 224.853C121.045 224.853 121.038 224.853 121.027 224.853C121.056 225.102 120.81 225.379 120.513 225.671C120.473 225.66 120.437 225.653 120.397 225.642C120.143 225.401 120.165 225.123 120.056 224.882L120.194 225.185C120.125 225.033 120.23 224.893 120.491 224.72C120.831 224.745 120.574 224.86 121.027 224.849C121.001 224.644 120.802 224.456 120.299 224.269C119.973 224.085 119.068 224.15 118.673 224.244C118.673 224.244 118.673 224.244 118.666 224.247C118.547 224.276 118.474 224.309 118.482 224.334C118.59 224.615 118.438 224.907 118.366 225.192C117.92 225.019 118.239 224.939 117.881 224.759C117.49 224.929 117.29 225.102 117.28 225.368L117.298 224.835C117.287 225.13 117.193 225.426 117.182 225.747C117.033 225.905 116.838 226.053 116.548 226.172C116.661 226.125 116.588 226.017 116.541 225.913C116.512 226.057 116.458 226.19 116.414 226.331C116.378 226.334 116.346 226.342 116.324 226.352C116.291 226.082 116.136 225.779 115.81 225.43C115.444 224.882 113.721 224.637 113.717 224.81C113.688 225.696 112.526 226.158 113.069 227.156C113.627 227.715 113.804 228.173 113.978 228.627C113.84 228.746 113.703 228.904 113.695 229.056C112.483 229.715 111.668 230.923 111.668 232.307C111.668 232.729 111.748 233.132 111.885 233.507C112.341 233.284 112.812 233.114 113.286 232.995C113.294 232.995 113.304 232.995 113.312 232.992C113.54 232.938 113.768 232.891 114 232.858C114.242 232.822 114.488 232.801 114.734 232.794C116.733 232.718 118.76 233.471 120.545 234.852C120.86 235.097 121.132 235.281 121.186 235.717C121.211 235.933 121.233 236.142 121.251 236.351C121.258 236.445 121.262 236.539 121.266 236.632C121.273 236.744 121.28 236.852 121.284 236.964C121.284 237.087 121.284 237.205 121.284 237.324C121.284 237.4 121.284 237.476 121.284 237.551C121.284 237.688 121.273 237.825 121.266 237.959C121.266 238.009 121.262 238.063 121.258 238.11C121.248 238.262 121.233 238.409 121.215 238.554C121.215 238.586 121.208 238.618 121.204 238.651C121.186 238.809 121.161 238.964 121.135 239.119C121.135 239.137 121.132 239.152 121.128 239.17C121.099 239.332 121.067 239.494 121.03 239.653C121.03 239.66 121.03 239.664 121.027 239.671C120.987 239.837 120.947 239.999 120.9 240.158C121.164 240.039 121.425 239.894 121.671 239.721C121.736 239.675 121.791 239.61 121.787 239.48C121.903 239.642 122.019 239.801 122.135 239.916C122.681 239.768 123.199 239.548 123.684 239.278C124.151 239.015 124.593 238.694 124.948 238.373C125.168 238.171 125.346 237.988 125.523 237.786C125.599 237.595 125.701 237.393 125.827 237.241C125.864 237.144 125.541 236.885 125.469 236.798C125.813 236.704 126.164 236.593 126.414 236.416C126.37 236.373 126.356 236.326 126.327 236.268C126.486 236.2 126.646 236.131 126.798 236.059C126.892 236.012 126.986 235.966 127.08 235.922C126.99 235.901 126.888 235.872 126.78 235.839C126.856 235.677 126.924 235.522 126.99 235.374L126.946 235.36C126.939 234.931 127.486 234.729 127.124 234.362C126.729 234.635 126.331 234.906 125.932 235.173C125.918 235.183 125.903 235.191 125.889 235.201M116.346 226.695C116.346 226.695 116.32 226.684 116.309 226.68C116.146 227.293 115.321 227.708 114.575 228.122C113.446 227.527 115.158 227.888 115.162 227.708C114.992 227.163 115.194 226.731 115.209 226.288L115.191 226.821C115.201 226.554 115.397 226.388 115.788 226.226C116.157 226.417 115.799 226.489 116.309 226.684C116.327 226.619 116.335 226.551 116.335 226.479C116.346 226.489 116.356 226.5 116.371 226.511C116.36 226.572 116.349 226.634 116.346 226.698M118.141 226.208C118.109 226.086 118.062 225.956 117.989 225.823C118.141 225.686 118.257 225.538 118.337 225.383C118.322 225.567 118.384 225.74 118.605 225.898C118.442 225.985 118.286 226.089 118.141 226.208Z" fill="#BCD631"/>
<path d="M125.556 235.418C125.32 235.573 125.085 235.728 124.85 235.879C125.063 235.793 125.273 235.681 125.454 235.522C125.494 235.49 125.519 235.45 125.556 235.418Z" fill="#EE4F9C"/>
<path d="M132.312 231.424C132.218 231.453 132.124 231.482 132.037 231.518C132.131 231.507 132.225 231.474 132.312 231.424Z" fill="#EE4F9C"/>
<path d="M132.312 231.424C132.381 231.402 132.446 231.377 132.519 231.355L132.439 231.341L132.414 231.363C132.381 231.388 132.349 231.406 132.312 231.424Z" fill="#EE4F9C"/>
<path d="M110.314 229.647C111.277 229.067 112.07 228.847 112.787 228.659C112.726 228.558 112.548 228.472 112.632 228.306C111.929 228.605 111.198 228.969 110.318 229.647" fill="#EE4F9C"/>
<path d="M123.236 236.888C123.192 236.906 123.153 236.928 123.109 236.95C122.834 237.112 122.559 237.278 122.28 237.436C122.28 237.418 122.28 237.4 122.28 237.382C121.911 237.602 121.571 237.843 121.263 238.096C121.093 240.504 120.14 242.414 118.721 243.838C117.476 245.088 115.879 245.943 114.152 246.433C114.105 246.631 114.065 246.829 114.036 247.028C113.957 246.883 113.903 246.739 113.874 246.595C113.881 246.563 113.888 246.534 113.895 246.505C112.625 246.833 111.289 246.966 109.967 246.905C109.855 247.28 109.909 247.698 110.166 248.041C110.228 248.123 110.293 248.192 110.355 248.264L111.289 247.572C111.303 247.597 111.318 247.619 111.328 247.644L110.405 248.325C110.738 248.693 111.071 248.916 111.321 249.01C111.571 249.097 111.741 249.064 111.832 248.916C111.871 249.176 111.919 249.432 111.976 249.655C112.034 249.882 112.107 250.12 112.186 250.347C111.401 249.846 110.677 249.262 110.021 248.61L109.254 249.176C109.381 249.338 109.525 249.511 109.692 249.688C110.706 250.729 111.861 251.587 113.149 252.261C113.149 252.261 113.149 252.265 113.153 252.269C113.291 252.47 113.435 252.669 113.588 252.86C113.736 253.047 113.874 253.199 114.022 253.364C115.195 254.593 116.288 255.267 117.617 255.841C117.885 255.945 118.149 256.042 118.45 256.133C118.591 256.176 118.75 256.223 118.877 256.255L119.228 256.338C119.699 256.443 120.166 256.515 120.618 256.558C121.523 256.644 122.356 256.619 123.059 256.54C123.772 256.464 124.355 256.338 124.836 256.215C125.321 256.093 125.622 255.978 125.998 255.855L127.077 255.487C127.432 255.35 127.787 255.199 128.138 255.051C128.848 254.77 129.525 254.417 130.198 254.064C132.899 252.64 135.125 250.708 136.878 248.74C137.964 247.709 139.101 246.419 139.977 245.229C140.846 244.04 141.494 242.965 141.776 242.306C141.906 241.956 142.022 241.617 142.135 241.279C142.25 240.936 142.366 240.601 142.471 240.269C142.583 239.93 142.696 239.592 142.804 239.253C142.931 238.882 143.094 238.442 143.26 237.926C143.59 236.914 143.966 235.497 143.887 233.889C143.796 232.282 143.264 230.872 142.627 229.802C142.192 229.067 141.725 228.479 141.258 227.967C141.24 227.845 141.226 227.726 141.204 227.603C140.625 226.414 139.933 225.304 139.159 224.269C134.235 229.059 128.848 233.5 123.221 236.859C123.221 236.863 123.221 236.867 123.221 236.874M111.759 247.33L111.64 247.421C111.633 247.392 111.625 247.363 111.614 247.334L111.763 247.222C111.763 247.258 111.763 247.294 111.759 247.33ZM114.022 247.139C114.004 247.309 113.993 247.478 113.986 247.651C113.913 247.597 113.841 247.547 113.772 247.493C113.772 247.471 113.772 247.449 113.772 247.428C113.776 247.287 113.794 247.143 113.812 246.992C113.884 247.031 113.957 247.064 114.029 247.093C114.029 247.107 114.022 247.121 114.022 247.139ZM138.529 241.43H138.536C138.355 241.7 138.174 241.974 137.989 242.252L137.946 242.237C138.145 241.967 138.337 241.7 138.529 241.43ZM132.345 240.435L131.693 240.226C131.719 240.179 131.737 240.136 131.751 240.096L132.497 240.244C132.446 240.305 132.403 240.37 132.345 240.431M136.143 239.894L136.838 239.988C136.812 240.024 136.791 240.064 136.765 240.1C136.671 240.269 136.563 240.439 136.461 240.605H136.45L136.545 240.435C136.508 240.489 136.465 240.547 136.429 240.601L135.755 240.511C135.886 240.305 136.016 240.1 136.143 239.894ZM135.542 240.842L136.172 240.965C136.038 241.156 135.907 241.347 135.77 241.534L135.201 241.351C135.317 241.181 135.429 241.008 135.542 240.839M133.055 239.484C133.004 239.57 132.95 239.653 132.902 239.739C132.805 239.855 132.714 239.974 132.624 240.093L131.787 239.981C131.816 239.88 131.82 239.783 131.809 239.707C131.784 239.534 131.726 239.44 131.581 239.285L133.055 239.484ZM121.451 251.472C121.205 251.587 120.941 251.688 120.669 251.782C120.503 251.739 120.332 251.692 120.13 251.616C120.112 251.609 120.093 251.602 120.075 251.595C120.546 251.577 121.013 251.537 121.455 251.472M119.424 251.602C119.623 251.699 119.829 251.789 120.054 251.868C120.108 251.886 120.159 251.905 120.209 251.919C119.963 251.984 119.71 252.038 119.453 252.081C119.105 251.933 118.786 251.757 118.479 251.551C118.797 251.58 119.112 251.598 119.427 251.602M114.507 250.672C114.442 250.546 114.384 250.427 114.33 250.304C114.409 250.347 114.496 250.383 114.576 250.423C114.627 250.531 114.677 250.636 114.728 250.733L114.601 250.791C114.601 250.791 114.637 250.805 114.656 250.812L114.746 250.773C114.764 250.809 114.786 250.841 114.804 250.874C114.757 250.852 114.703 250.834 114.656 250.812L114.601 250.838C114.569 250.78 114.536 250.726 114.504 250.668M115.3 251.778C115.275 251.771 115.246 251.76 115.22 251.753C115.018 251.501 114.818 251.212 114.623 250.874C114.703 250.91 114.786 250.942 114.866 250.978C115.054 251.295 115.246 251.569 115.441 251.814C115.394 251.8 115.347 251.793 115.304 251.778M125.057 254.781L126.302 254.532C126.719 254.456 127.132 254.338 127.544 254.219C127.953 254.096 128.373 253.992 128.775 253.844C128.402 254.146 128.011 254.366 127.628 254.568C127.244 254.77 126.86 254.929 126.48 255.026C126.1 255.131 125.727 255.21 125.365 255.264C125.032 255.318 124.579 255.354 124.079 255.376C123.073 255.412 121.77 255.343 120.401 254.972C120.061 254.882 119.721 254.77 119.384 254.644C118.96 254.489 118.573 254.316 118.211 254.128C117.856 253.941 117.523 253.743 117.197 253.523C117.251 253.527 117.302 253.534 117.356 253.537C117.603 253.696 117.852 253.847 118.117 253.984C118.352 254.107 118.609 254.222 118.866 254.327C119.13 254.431 119.442 254.536 119.644 254.593C120.101 254.73 120.56 254.828 120.999 254.893C121.889 255.026 122.697 255.026 123.381 254.979C124.054 254.932 124.63 254.846 125.05 254.77" fill="#66CDF2"/>
</g>
</g>
<defs>
<linearGradient id="paint0_linear_808_857" x1="146.006" y1="229.747" x2="242.815" y2="253.685" gradientUnits="userSpaceOnUse">
<stop stop-color="#EE4F9C"/>
<stop offset="0.24" stop-color="#F5A326"/>
<stop offset="0.5" stop-color="#FCDD34"/>
<stop offset="0.75" stop-color="#BCD631"/>
<stop offset="1" stop-color="#66CDF2"/>
</linearGradient>
<linearGradient id="paint1_linear_808_857" x1="148.82" y1="219.048" x2="245.629" y2="242.986" gradientUnits="userSpaceOnUse">
<stop stop-color="#EE4F9C"/>
<stop offset="0.24" stop-color="#F5A326"/>
<stop offset="0.5" stop-color="#FCDD34"/>
<stop offset="0.75" stop-color="#BCD631"/>
<stop offset="1" stop-color="#66CDF2"/>
</linearGradient>
<linearGradient id="paint2_linear_808_857" x1="152.231" y1="205.384" x2="249.04" y2="229.321" gradientUnits="userSpaceOnUse">
<stop stop-color="#EE4F9C"/>
<stop offset="0.24" stop-color="#F5A326"/>
<stop offset="0.5" stop-color="#FCDD34"/>
<stop offset="0.75" stop-color="#BCD631"/>
<stop offset="1" stop-color="#66CDF2"/>
</linearGradient>
<linearGradient id="paint3_linear_808_857" x1="149.555" y1="215.697" x2="246.364" y2="239.635" gradientUnits="userSpaceOnUse">
<stop stop-color="#EE4F9C"/>
<stop offset="0.24" stop-color="#F5A326"/>
<stop offset="0.5" stop-color="#FCDD34"/>
<stop offset="0.75" stop-color="#BCD631"/>
<stop offset="1" stop-color="#66CDF2"/>
</linearGradient>
<linearGradient id="paint4_linear_808_857" x1="144.4" y1="236.419" x2="241.208" y2="260.356" gradientUnits="userSpaceOnUse">
<stop stop-color="#EE4F9C"/>
<stop offset="0.24" stop-color="#F5A326"/>
<stop offset="0.5" stop-color="#FCDD34"/>
<stop offset="0.75" stop-color="#BCD631"/>
<stop offset="1" stop-color="#66CDF2"/>
</linearGradient>
<linearGradient id="paint5_linear_808_857" x1="145.626" y1="231.103" x2="242.435" y2="255.041" gradientUnits="userSpaceOnUse">
<stop stop-color="#EE4F9C"/>
<stop offset="0.24" stop-color="#F5A326"/>
<stop offset="0.5" stop-color="#FCDD34"/>
<stop offset="0.75" stop-color="#BCD631"/>
<stop offset="1" stop-color="#66CDF2"/>
</linearGradient>
<linearGradient id="paint6_linear_808_857" x1="145.393" y1="232.721" x2="242.202" y2="256.659" gradientUnits="userSpaceOnUse">
<stop stop-color="#EE4F9C"/>
<stop offset="0.24" stop-color="#F5A326"/>
<stop offset="0.5" stop-color="#FCDD34"/>
<stop offset="0.75" stop-color="#BCD631"/>
<stop offset="1" stop-color="#66CDF2"/>
</linearGradient>
<linearGradient id="paint7_linear_808_857" x1="148.25" y1="221.421" x2="245.058" y2="245.359" gradientUnits="userSpaceOnUse">
<stop stop-color="#EE4F9C"/>
<stop offset="0.24" stop-color="#F5A326"/>
<stop offset="0.5" stop-color="#FCDD34"/>
<stop offset="0.75" stop-color="#BCD631"/>
<stop offset="1" stop-color="#66CDF2"/>
</linearGradient>
<linearGradient id="paint8_linear_808_857" x1="148.279" y1="220.657" x2="245.088" y2="244.594" gradientUnits="userSpaceOnUse">
<stop stop-color="#EE4F9C"/>
<stop offset="0.24" stop-color="#F5A326"/>
<stop offset="0.5" stop-color="#FCDD34"/>
<stop offset="0.75" stop-color="#BCD631"/>
<stop offset="1" stop-color="#66CDF2"/>
</linearGradient>
<linearGradient id="paint9_linear_808_857" x1="147.84" y1="222.85" x2="244.648" y2="246.788" gradientUnits="userSpaceOnUse">
<stop stop-color="#EE4F9C"/>
<stop offset="0.24" stop-color="#F5A326"/>
<stop offset="0.5" stop-color="#FCDD34"/>
<stop offset="0.75" stop-color="#BCD631"/>
<stop offset="1" stop-color="#66CDF2"/>
</linearGradient>
<linearGradient id="paint10_linear_808_857" x1="149.826" y1="214.189" x2="246.635" y2="238.127" gradientUnits="userSpaceOnUse">
<stop stop-color="#EE4F9C"/>
<stop offset="0.24" stop-color="#F5A326"/>
<stop offset="0.5" stop-color="#FCDD34"/>
<stop offset="0.75" stop-color="#BCD631"/>
<stop offset="1" stop-color="#66CDF2"/>
</linearGradient>
<linearGradient id="paint11_linear_808_857" x1="153.235" y1="200.393" x2="250.044" y2="224.331" gradientUnits="userSpaceOnUse">
<stop stop-color="#EE4F9C"/>
<stop offset="0.24" stop-color="#F5A326"/>
<stop offset="0.5" stop-color="#FCDD34"/>
<stop offset="0.75" stop-color="#BCD631"/>
<stop offset="1" stop-color="#66CDF2"/>
</linearGradient>
<clipPath id="clip0_808_857">
<rect width="342" height="484" fill="white"/>
</clipPath>
<clipPath id="clip1_808_857">
<rect width="159.494" height="60" fill="white" transform="translate(95 207)"/>
</clipPath>
</defs>
</svg>
