<svg width="31" height="31" viewBox="0 0 31 31" fill="none" xmlns="http://www.w3.org/2000/svg">
<g clip-path="url(#clip0_37_11414)">
<path d="M15.1954 0.960327C9.03126 0.960327 3.81067 6.19814 3.81067 12.4016C3.81067 18.8985 9.86205 25.5425 13.9323 30.2122C13.9483 30.231 14.6062 30.9594 15.4163 30.9594H15.4877C16.2987 30.9594 16.9519 30.231 16.9679 30.2122C20.7872 25.8322 26.3659 18.6088 26.3659 12.4016C26.3659 6.1972 22.2937 0.960327 15.1954 0.960327ZM15.5723 28.9541C15.5394 28.9869 15.4915 29.0235 15.4492 29.0544C15.4059 29.0244 15.3589 28.9869 15.3242 28.9541L14.8327 28.3897C10.9738 23.9741 5.68933 17.9263 5.68933 12.4006C5.68933 7.21439 10.0425 2.83345 15.1945 2.83345C21.6124 2.83345 24.4853 7.63814 24.4853 12.4006C24.4853 16.595 21.4864 22.1656 15.5723 28.9541ZM15.1212 6.63689C12.0076 6.63689 9.48237 9.15501 9.48237 12.2619C9.48237 15.3688 12.0076 17.8869 15.1212 17.8869C18.2347 17.8869 20.76 15.3678 20.76 12.2619C20.76 9.15595 18.2357 6.63689 15.1212 6.63689ZM15.1212 16.0119C13.048 16.0119 11.3187 14.2888 11.3187 12.2206C11.3187 10.1525 13.0047 8.47064 15.0779 8.47064C17.1521 8.47064 18.8371 10.1525 18.8371 12.2206C18.8381 14.2888 17.1953 16.0119 15.1212 16.0119Z" fill="black"/>
</g>
<defs>
<clipPath id="clip0_37_11414">
<rect width="30.0736" height="30" fill="white" transform="translate(0.0514526 0.970581)"/>
</clipPath>
</defs>
</svg>
