<svg width="512" height="513" viewBox="0 0 512 513" fill="none" xmlns="http://www.w3.org/2000/svg">
<path d="M0 392.597H512V392.341H0V392.597Z" fill="#E7E7E7"/>
<path d="M93.9062 408.119H127.823V407.863H93.9062V408.119Z" fill="#E7E7E7"/>
<path d="M63.5176 408.119H83.1712V407.863H63.5176V408.119Z" fill="#E7E7E7"/>
<path d="M195.956 411.896H215.609V411.639H195.956V411.896Z" fill="#E7E7E7"/>
<path d="M273.842 417.624H318.071V417.368H273.842V417.624Z" fill="#E7E7E7"/>
<path d="M258.239 417.624H264.724V417.368H258.239V417.624Z" fill="#E7E7E7"/>
<path d="M368.299 411.896H464.223V411.639H368.299V411.896Z" fill="#E7E7E7"/>
<mask id="mask0_895_800" style="mask-type:luminance" maskUnits="userSpaceOnUse" x="0" y="0" width="512" height="513">
<path d="M0 4.81606e-05H512V513H0V4.81606e-05Z" fill="white"/>
</mask>
<g mask="url(#mask0_895_800)">
<path d="M44.969 56.6378C41.8868 56.6378 39.38 59.1495 39.38 62.2377V340.726C39.38 343.814 41.8868 346.326 44.969 346.326H242.702C245.783 346.326 248.29 343.814 248.29 340.726V62.2377C248.29 59.1495 245.783 56.6378 242.702 56.6378H44.969ZM242.702 346.582H44.969C41.7465 346.582 39.124 343.956 39.124 340.726V62.2377C39.124 59.0089 41.7465 56.3813 44.969 56.3813H242.702C245.924 56.3813 248.546 59.0089 248.546 62.2377V340.726C248.546 343.956 245.924 346.582 242.702 346.582Z" fill="#E7E7E7"/>
<path d="M266.457 56.6378C263.376 56.6378 260.869 59.1495 260.869 62.2377V340.726C260.869 343.814 263.376 346.326 266.457 346.326H464.191C467.272 346.326 469.78 343.814 469.78 340.726V62.2377C469.78 59.1495 467.272 56.6378 464.191 56.6378H266.457ZM464.191 346.582H266.457C263.236 346.582 260.613 343.956 260.613 340.726V62.2377C260.613 59.0089 263.236 56.3813 266.457 56.3813H464.191C467.413 56.3813 470.036 59.0089 470.036 62.2377V340.726C470.036 343.956 467.413 346.582 464.191 346.582Z" fill="#E7E7E7"/>
<path d="M273.817 394.201H251.3V304.699H273.817V394.201Z" fill="#E1E1E1"/>
<path d="M269.54 394.201H273.817V382.013H265.056L269.54 394.201Z" fill="#FAFAFA"/>
<path d="M175.15 394.201H152.633V304.699H175.15V394.201Z" fill="#E1E1E1"/>
<path d="M273.817 386.722H171.417V304.699H273.817V386.722Z" fill="#FAFAFA"/>
<path d="M270.499 308.334H174.733V330.828H270.499V308.334ZM270.104 330.431H175.129V308.731H270.104V330.431Z" fill="#E1E1E1"/>
<path d="M175.693 394.201H171.417V382.013H180.177L175.693 394.201Z" fill="#FAFAFA"/>
<path d="M220.352 319.581C220.352 320.835 221.365 321.85 222.616 321.85C223.867 321.85 224.881 320.835 224.881 319.581C224.881 318.327 223.867 317.311 222.616 317.311C221.365 317.311 220.352 318.327 220.352 319.581Z" fill="#E7E7E7"/>
<path d="M270.499 334.463H174.733V356.957H270.499V334.463ZM270.104 356.561H175.129V334.86H270.104V356.561Z" fill="#E1E1E1"/>
<path d="M220.352 345.71C220.352 346.964 221.365 347.979 222.616 347.979C223.867 347.979 224.881 346.964 224.881 345.71C224.881 344.456 223.867 343.441 222.616 343.441C221.365 343.441 220.352 344.456 220.352 345.71Z" fill="#E7E7E7"/>
<path d="M270.499 360.593H174.733V383.087H270.499V360.593ZM270.104 382.69H175.129V360.989H270.104V382.69Z" fill="#E1E1E1"/>
<path d="M220.352 371.84C220.352 373.092 221.365 374.108 222.616 374.108C223.867 374.108 224.881 373.092 224.881 371.84C224.881 370.586 223.867 369.57 222.616 369.57C221.365 369.57 220.352 370.586 220.352 371.84Z" fill="#E7E7E7"/>
<path d="M161.393 394.201H138.876V252.72H161.393V394.201Z" fill="#E1E1E1"/>
<path d="M157.116 394.201H161.393V382.013H152.632L157.116 394.201Z" fill="#FAFAFA"/>
<path d="M77.2384 394.201H54.7217V252.72H77.2384V394.201Z" fill="#E1E1E1"/>
<path d="M161.393 386.722H73.5049V252.72H161.393V386.722Z" fill="#FAFAFA"/>
<path d="M158.075 256.048H76.8223V287.321H158.075V256.048ZM157.609 286.853H77.2902V256.514H157.609V286.853Z" fill="#E1E1E1"/>
<path d="M158.075 290.074H118.885V371.485H158.075V290.074ZM157.609 371.016H119.352V290.541H157.609V371.016Z" fill="#E1E1E1"/>
<path d="M116.014 290.074H76.8232V371.485H116.014V290.074ZM115.547 371.016H77.2892V290.541H115.547V371.016Z" fill="#E1E1E1"/>
<path d="M77.7821 394.201H73.5059V382.013H82.2662L77.7821 394.201Z" fill="#FAFAFA"/>
<path d="M115.185 271.683C115.185 272.937 116.198 273.953 117.449 273.953C118.7 273.953 119.714 272.937 119.714 271.683C119.714 270.431 118.7 269.415 117.449 269.415C116.198 269.415 115.185 270.431 115.185 271.683Z" fill="#E7E7E7"/>
<path d="M123.293 328.859C123.293 330.113 124.307 331.128 125.557 331.128C126.808 331.128 127.822 330.113 127.822 328.859C127.822 327.605 126.808 326.589 125.557 326.589C124.307 326.589 123.293 327.605 123.293 328.859Z" fill="#E7E7E7"/>
<path d="M107.076 328.859C107.076 330.113 108.09 331.128 109.34 331.128C110.592 331.128 111.605 330.113 111.605 328.859C111.605 327.605 110.592 326.589 109.34 326.589C108.09 326.589 107.076 327.605 107.076 328.859Z" fill="#E7E7E7"/>
<path d="M104.525 213.273H95.026C95.026 213.273 96.6746 222.071 96.6746 227.248C96.6746 232.425 89.4493 252.72 99.7753 252.72C110.1 252.72 102.876 232.425 102.876 227.248C102.876 222.071 104.525 213.273 104.525 213.273Z" fill="#E1E1E1"/>
<path d="M68.4062 234.08V240.264C68.4062 247.114 74.0004 252.719 80.8386 252.719H87.0093C93.8475 252.719 99.4416 247.114 99.4416 240.264V234.08H68.4062Z" fill="#F5F5F5"/>
<path d="M200.362 291.655C200.362 298.829 208.381 304.699 218.183 304.699H227.029C236.83 304.699 244.85 298.829 244.85 291.655H200.362Z" fill="#E1E1E1"/>
<path d="M434.797 281.154C429.431 285.542 422.025 293.578 415.238 304.883C410.719 312.412 407.996 320.3 406.799 330.723C406.825 318.925 406.862 306.249 406.903 294.286C408.266 291.207 411.379 284.112 413.612 278.506C421.063 259.801 423.839 255.201 430.541 239.066C439.479 217.548 448.639 192.013 446.017 194.054C440.671 198.212 420.191 236.637 417.978 242.137C410.363 261.057 408.241 274.847 406.924 288.155C406.966 276.92 407.01 266.601 407.052 258.641C407.189 232.674 407.63 224.294 407.845 221.71C408.674 220.396 409.652 218.865 410.222 218.041C415.033 211.071 416.889 205.133 421.42 194.738C427.845 180.008 433.377 153.855 431.759 155.174C425.026 160.667 419.714 172.475 412.735 187.521C405.756 202.566 407.751 211.22 406.366 224.07C406.076 226.592 405.853 236.108 405.693 249.298C403.883 235.246 400.487 225.986 394.291 217.572C386.671 207.222 379.3 200.231 373.89 196.581C368.481 192.93 383.23 218.352 390.284 229.448C396.565 239.33 402.35 248.049 405.613 256.637C405.441 274.512 405.361 297.147 405.36 318.217C403.742 308.628 401.1 298.303 397.574 290.308C393.34 280.701 386.823 265.967 381.638 260.969C380.392 259.768 387.061 288.425 391.34 296.046C395.621 303.665 398.763 310.846 401.456 315.166C402.085 316.174 404.17 320.06 405.361 322.295C405.373 348.017 405.503 370.713 405.726 378.439H406.835C406.76 376.447 406.747 363.362 406.771 346.044C409.442 336.641 415.55 325.911 420.591 316.121C426.093 305.437 440.163 276.766 434.797 281.154Z" fill="#E1E1E1"/>
<path d="M422.339 394.201H390.243L387.821 362.679H424.762L422.339 394.201Z" fill="#F0F0F0"/>
<path d="M427.153 366.352H385.429L384.234 355.717H428.349L427.153 366.352Z" fill="#F5F5F5"/>
<path d="M127.241 140.609H69.8438V77.4599H127.241V140.609Z" fill="#E1E1E1"/>
<path d="M133.459 140.609H74.1729V77.4599H133.459V140.609Z" fill="#F5F5F5"/>
<path d="M79.1377 82.437H128.491V135.634H79.1377V82.437Z" fill="white"/>
<path d="M91.1006 95.3307H116.53V122.739H91.1006V95.3307Z" fill="#F5F5F5"/>
<path d="M419.892 143.485H366.572V84.8215H419.892V143.485Z" fill="#E1E1E1"/>
<path d="M425.667 143.485H370.592V84.8215H425.667V143.485Z" fill="#F5F5F5"/>
<path d="M375.206 89.4445H421.053V138.862H375.206V89.4445Z" fill="white"/>
<path d="M412.433 114.153C412.433 122.068 406.029 128.485 398.128 128.485C390.229 128.485 383.825 122.068 383.825 114.153C383.825 106.239 390.229 99.8223 398.128 99.8223C406.029 99.8223 412.433 106.239 412.433 114.153Z" fill="#F5F5F5"/>
<path d="M186.87 161.959H144.291V115.114H186.87V161.959Z" fill="#E1E1E1"/>
<path d="M191.482 161.959H147.501V115.114H191.482V161.959Z" fill="#F5F5F5"/>
<path d="M151.186 118.806H187.797V158.268H151.186V118.806Z" fill="white"/>
<path d="M169.491 128.561L159.479 145.938H179.504L169.491 128.561Z" fill="#F5F5F5"/>
</g>
<mask id="mask1_895_800" style="mask-type:luminance" maskUnits="userSpaceOnUse" x="0" y="0" width="512" height="513">
<path d="M0 4.81606e-05H512V513H0V4.81606e-05Z" fill="white"/>
</mask>
<g mask="url(#mask1_895_800)">
<path d="M137.685 243.926C197.625 305.85 276.403 348.786 349.426 279.451C387.068 243.709 436.815 147.164 387.727 102.987C320.076 42.102 281.252 141.724 230.672 155.222C196.002 164.474 166.855 111.145 125.349 146.753C92.5382 174.901 112.767 218.183 137.685 243.926Z" fill="#F5F5F5"/>
</g>
<mask id="mask2_895_800" style="mask-type:luminance" maskUnits="userSpaceOnUse" x="0" y="0" width="512" height="513">
<path d="M0 4.81606e-05H512V513H0V4.81606e-05Z" fill="white"/>
</mask>
<g mask="url(#mask2_895_800)">
<path d="M454.542 427.061C454.542 433.477 365.651 438.678 255.999 438.678C146.347 438.678 57.458 433.477 57.458 427.061C57.458 420.644 146.347 415.443 255.999 415.443C365.651 415.443 454.542 420.644 454.542 427.061Z" fill="#F5F5F5"/>
</g>
<mask id="mask3_895_800" style="mask-type:luminance" maskUnits="userSpaceOnUse" x="0" y="0" width="512" height="513">
<path d="M0 4.81606e-05H512V513H0V4.81606e-05Z" fill="white"/>
</mask>
<g mask="url(#mask3_895_800)">
<path d="M357.627 167.681L347.471 163.554C347.471 163.554 334.067 188.048 330.227 189.284C325.004 190.966 314.199 195.645 307.779 196.521C306.914 197.534 305.486 200.731 305.622 201.897C314.236 204.775 333.159 200.953 337.211 197.939C346.444 191.067 357.627 167.681 357.627 167.681Z" fill="#FF8B7B"/>
<path d="M360.754 162.124C362.645 169.14 352.384 183.235 352.384 183.235L338.906 175.66C338.906 175.66 341.419 169.866 344.495 163.966C349.463 154.436 358.598 154.115 360.754 162.124Z" fill="#007CFF"/>
<mask id="mask4_895_800" style="mask-type:luminance" maskUnits="userSpaceOnUse" x="338" y="156" width="23" height="28">
<path d="M338.907 156.443H360.988V183.235H338.907V156.443Z" fill="white"/>
</mask>
<g mask="url(#mask4_895_800)">
<g opacity="0.199997">
<path d="M360.755 162.124C362.646 169.14 352.385 183.235 352.385 183.235L338.907 175.66C338.907 175.66 341.42 169.866 344.496 163.966C349.464 154.436 358.599 154.115 360.755 162.124Z" fill="black"/>
</g>
</g>
<mask id="mask5_895_800" style="mask-type:luminance" maskUnits="userSpaceOnUse" x="344" y="165" width="7" height="17">
<path d="M344.281 165.371H350.5V181.649H344.281V165.371Z" fill="white"/>
</mask>
<g mask="url(#mask5_895_800)">
<g opacity="0.199997">
<path d="M344.281 178.676L349.574 181.649L350.5 165.37C347.427 167.743 345.249 174.88 344.281 178.676Z" fill="black"/>
</g>
</g>
<path d="M351.91 156.837C351.91 156.837 341.445 180.164 347.546 223.606H388.783C389.438 217.263 387.271 186.323 395.125 156.439C395.125 156.439 388.14 155.018 381.423 154.693C376.169 154.438 368.551 154.27 363.894 154.694C357.754 155.252 351.91 156.837 351.91 156.837Z" fill="#007CFF"/>
<mask id="mask6_895_800" style="mask-type:luminance" maskUnits="userSpaceOnUse" x="345" y="154" width="51" height="70">
<path d="M345.636 154.436H395.126V223.606H345.636V154.436Z" fill="white"/>
</mask>
<g mask="url(#mask6_895_800)">
<g opacity="0.199997">
<path d="M351.91 156.837C351.91 156.837 341.445 180.164 347.546 223.606H388.783C389.438 217.263 387.271 186.323 395.125 156.439C395.125 156.439 388.14 155.018 381.423 154.693C376.169 154.438 368.551 154.27 363.894 154.694C357.754 155.252 351.91 156.837 351.91 156.837Z" fill="black"/>
</g>
</g>
<mask id="mask7_895_800" style="mask-type:luminance" maskUnits="userSpaceOnUse" x="342" y="425" width="71" height="5">
<path d="M342.347 425.992H412.421V429.982H342.347V425.992Z" fill="white"/>
</mask>
<g mask="url(#mask7_895_800)">
<path d="M342.347 427.987C342.282 429.089 357.917 429.982 377.267 429.982C396.618 429.982 412.356 429.089 412.421 427.987C412.486 426.886 396.851 425.993 377.501 425.993C358.15 425.993 342.41 426.886 342.347 427.987Z" fill="#E7EDF2"/>
</g>
<path d="M377.16 416.656L369.822 419.49L363.518 403.129L370.856 400.297L377.16 416.656Z" fill="#FF8B7B"/>
<path d="M402.484 420.1H394.776L391.946 402.211H399.656L402.484 420.1Z" fill="#FF8B7B"/>
<path d="M394.279 419.205H402.941C403.256 419.205 403.516 419.425 403.566 419.733L404.687 426.599C404.804 427.311 404.206 427.985 403.478 427.973C400.457 427.921 398.999 427.743 395.19 427.743C392.846 427.743 388.004 427.988 384.768 427.988C381.603 427.988 381.297 424.781 382.639 424.49C388.655 423.189 390.998 421.393 393 419.68C393.361 419.371 393.818 419.205 394.279 419.205Z" fill="#1A2E35"/>
<path d="M368.612 416.501L376.825 414.108C377.133 414.019 377.449 414.152 377.586 414.427L380.629 420.58C380.945 421.217 380.572 422.018 379.859 422.212C376.884 423.025 374.884 423.535 371.16 424.619C368.587 425.369 365.969 426.59 363.427 427.402C361.666 427.964 357.532 427.987 355.391 427.987C352.226 427.987 351.521 424.644 352.877 424.49C356.31 424.104 356.771 424.284 358.666 423.331C361.799 421.756 364.223 420.452 366.936 417.605C367.41 417.109 367.963 416.69 368.612 416.501Z" fill="#1A2E35"/>
<path d="M309.077 196.447L300.593 192.871L297.102 202.287C297.102 202.287 301.997 203.177 307.588 202.287L309.077 196.447Z" fill="#FF8B7B"/>
<path d="M294.288 192.64L294.063 198.905L297.101 202.288L300.593 192.871L294.288 192.64Z" fill="#FF8B7B"/>
<path d="M363.521 403.134L366.77 411.568L374.111 408.733L370.862 400.299L363.521 403.134Z" fill="#EA7064"/>
<path d="M399.658 402.216H391.946L393.408 411.437H401.12L399.658 402.216Z" fill="#EA7064"/>
<mask id="mask8_895_800" style="mask-type:luminance" maskUnits="userSpaceOnUse" x="346" y="181" width="45" height="37">
<path d="M346.237 181.09H390.623V217.559H346.237V181.09Z" fill="white"/>
</mask>
<g mask="url(#mask8_895_800)">
<g opacity="0.199997">
<path d="M346.237 211.855C346.386 213.711 346.564 215.609 346.784 217.56L377.448 207.585C382.236 206.152 386.404 203.136 389.244 199.014C389.36 196.272 389.519 193.394 389.749 190.389C389.855 188.923 389.981 187.426 390.118 185.908C390.265 184.327 390.433 182.714 390.624 181.09L346.237 211.855Z" fill="black"/>
</g>
</g>
<path d="M356.249 178.204L355.204 178.079C355.813 172.96 359.628 168.913 363.657 169.009L363.627 170.064C360.148 169.963 356.795 173.613 356.249 178.204Z" fill="white"/>
<path d="M361.704 187.678C361.647 187.678 361.59 187.678 361.532 187.676L361.562 186.621C365.084 186.75 368.392 183.073 368.94 178.482L369.984 178.606C369.384 183.653 365.691 187.678 361.704 187.678Z" fill="white"/>
<path d="M380.844 134.916C379.407 140.567 377.698 150.921 381.422 154.693C381.422 154.693 378.82 160.425 368.341 160.425C358.764 160.425 363.893 154.693 363.893 154.693C370.272 153.189 370.383 148.512 369.544 144.122L380.844 134.916Z" fill="#FF8B7B"/>
<path d="M376.237 138.672L369.549 144.117C369.751 145.157 369.894 146.21 369.906 147.234C371.862 149.186 375.786 144.244 376.187 141.724C376.388 140.467 376.407 139.258 376.237 138.672Z" fill="#EA7064"/>
<path d="M358.056 134.846C359.036 136.606 360.766 137.7 362.4 138.064C364.859 138.613 366.094 136.346 365.416 134.066C364.806 132.013 362.792 129.254 360.321 129.727C357.887 130.192 356.935 132.835 358.056 134.846Z" fill="#EA7064"/>
<path d="M362.112 116.759C358.283 118.517 356.933 133.761 361.749 136.015C366.563 138.268 369.368 113.429 362.112 116.759Z" fill="#1A2E35"/>
<path d="M382.011 126.412C381.095 134.064 380.945 138.567 376.859 142.494C370.711 148.402 361.488 144.897 360.113 137.26C358.875 130.384 360.582 119.026 368.237 115.98C375.776 112.979 382.929 118.76 382.011 126.412Z" fill="#FF8B7B"/>
<path d="M369.431 120.724C375.096 119.271 379.266 118.283 377.777 123.021C375.796 129.333 373.419 135.448 376.608 135.733C378.546 135.906 387.15 132.248 386.057 128.551C385.106 125.329 389.104 124.46 389.842 122.817C392.497 116.901 384.909 117.67 386.261 114.09C387.576 110.605 380.149 104.715 376.033 107.592C369.371 112.251 357.924 112.184 363.943 104.542C368.253 99.0695 360.562 100.193 360.562 100.193C360.562 100.193 365.207 102.954 357.388 107.222C349.101 111.747 356.688 123.991 369.431 120.724Z" fill="#1A2E35"/>
<path d="M384.968 134.846C383.782 136.606 381.925 137.7 380.247 138.064C377.725 138.613 376.754 136.346 377.699 134.066C378.548 132.013 380.887 129.254 383.302 129.727C385.681 130.192 386.325 132.835 384.968 134.846Z" fill="#FF8B7B"/>
<path d="M347.546 223.606C347.546 223.606 340.625 285.676 340.085 309.233C339.523 333.736 363.543 410.186 363.543 410.186L375.842 405.011C375.842 405.011 361.52 335.167 363.51 311.103C365.679 284.869 374.653 223.606 374.653 223.606H347.546Z" fill="#007CFF"/>
<mask id="mask9_895_800" style="mask-type:luminance" maskUnits="userSpaceOnUse" x="361" y="238" width="9" height="51">
<path d="M361.913 238.162H369.704V288.242H361.913V238.162Z" fill="white"/>
</mask>
<g mask="url(#mask9_895_800)">
<g opacity="0.199997">
<path d="M364.747 240.649C359.233 252.12 362.947 274.8 365.936 288.241C367.073 278.753 368.419 268.452 369.703 258.92C369.578 244.265 368.44 232.953 364.747 240.649Z" fill="black"/>
</g>
</g>
<path d="M375.285 400.987C375.343 400.963 376.744 404.914 376.744 404.914L362.567 410.879L360.333 406.718L375.285 400.987Z" fill="#007CFF"/>
<path d="M362.175 223.606C362.175 223.606 367.47 282.64 370.979 304.757C374.822 328.976 389.918 409.652 389.918 409.652H404.039C404.039 409.652 395.578 330.931 393.98 306.952C392.245 280.927 388.782 223.606 388.782 223.606H362.175Z" fill="#007CFF"/>
<path d="M404.255 405.964C404.316 405.964 404.727 409.918 404.727 409.918H389.207L388.099 405.378L404.255 405.964Z" fill="#007CFF"/>
<mask id="mask10_895_800" style="mask-type:luminance" maskUnits="userSpaceOnUse" x="384" y="231" width="15" height="171">
<path d="M384.85 231.965H398.976V401.291H384.85V231.965Z" fill="white"/>
</mask>
<g mask="url(#mask10_895_800)">
<g opacity="0.199997">
<path d="M398.845 401.291C398.778 401.291 398.722 401.241 398.715 401.174C398.638 400.458 391.008 329.388 389.571 307.844C388.014 284.465 384.882 232.626 384.85 232.105C384.846 232.032 384.901 231.97 384.973 231.965H384.982C385.05 231.965 385.109 232.019 385.113 232.089C385.144 232.609 388.276 284.448 389.835 307.826C391.27 329.364 398.899 400.43 398.976 401.145C398.984 401.219 398.932 401.283 398.86 401.29C398.854 401.291 398.849 401.291 398.845 401.291Z" fill="black"/>
</g>
</g>
<path d="M370.303 128.551C370.267 129.173 369.906 129.679 369.501 129.679C369.094 129.679 368.794 129.173 368.831 128.551C368.867 127.928 369.226 127.422 369.633 127.422C370.04 127.422 370.34 127.928 370.303 128.551Z" fill="#1A2E35"/>
<path d="M363.273 128.551C363.238 129.173 362.878 129.679 362.472 129.679C362.065 129.679 361.765 129.173 361.802 128.551C361.839 127.928 362.197 127.422 362.604 127.422C363.01 127.422 363.31 127.928 363.273 128.551Z" fill="#1A2E35"/>
<path d="M365.491 128.861C365.491 128.861 363.866 132.455 362.208 134.19C363.248 135.218 365.146 134.748 365.146 134.748L365.491 128.861Z" fill="#FF5652"/>
<path d="M365.668 137.362C365.568 137.362 365.49 137.28 365.496 137.179C365.503 137.078 365.59 136.996 365.69 136.996C368.42 136.996 369.805 135.085 369.82 135.067C369.88 134.981 369.996 134.958 370.076 135.013C370.157 135.069 370.173 135.182 370.114 135.267C370.052 135.352 368.594 137.362 365.668 137.362Z" fill="#1A2E35"/>
<path d="M371.552 126.655C371.447 126.696 371.327 126.69 371.231 126.628C369.886 125.78 368.634 126.349 368.622 126.356C368.45 126.444 368.221 126.366 368.145 126.184C368.068 126.002 368.158 125.782 368.344 125.695C368.411 125.663 369.98 124.95 371.646 126.002C371.813 126.107 371.854 126.333 371.739 126.505C371.693 126.575 371.625 126.627 371.552 126.655Z" fill="#1A2E35"/>
<path d="M360.557 124.609C360.506 124.594 360.458 124.569 360.417 124.53C360.276 124.396 360.275 124.166 360.417 124.014C361.847 122.5 363.504 122.731 363.573 122.741C363.768 122.763 363.899 122.957 363.857 123.157C363.816 123.357 363.622 123.495 363.425 123.466C363.37 123.458 362.076 123.292 360.934 124.5C360.834 124.608 360.684 124.646 360.557 124.609Z" fill="#1A2E35"/>
<path d="M399.083 166.537L388.431 163.696C388.431 163.696 377.984 189.456 374.296 191.138C369.276 193.427 356.563 201.344 351.161 205.162C350.862 206.437 351.097 209.84 351.777 210.766C360.962 209.093 378.636 202.286 382.322 198.826C390.725 190.937 399.083 166.537 399.083 166.537Z" fill="#FF8B7B"/>
<path d="M390.599 418.956C390.502 418.956 390.421 418.971 390.359 419.002C390.308 419.028 390.247 419.075 390.232 419.216C390.195 419.508 390.264 419.725 390.44 419.88C390.839 420.237 391.845 420.284 393.169 420.02C392.327 419.515 391.188 418.956 390.599 418.956ZM391.649 420.554C391.063 420.554 390.521 420.454 390.189 420.161C389.926 419.927 389.817 419.602 389.867 419.193C389.904 418.889 390.074 418.744 390.21 418.677C391.081 418.239 393.485 419.768 393.758 419.944C393.817 419.984 393.846 420.057 393.829 420.13C393.814 420.201 393.756 420.26 393.684 420.277C393.14 420.406 392.363 420.554 391.649 420.554Z" fill="#007CFF"/>
<path d="M392.267 417.151C392.241 417.151 392.213 417.154 392.184 417.156C391.946 417.185 391.918 417.296 391.907 417.341C391.78 417.85 392.688 419.129 393.446 419.733C393.395 419.081 393.225 417.781 392.677 417.311C392.552 417.204 392.418 417.151 392.267 417.151ZM393.641 420.282C393.611 420.282 393.58 420.275 393.555 420.261C392.781 419.826 391.339 418.134 391.553 417.272C391.591 417.117 391.722 416.846 392.161 416.793C392.45 416.757 392.705 416.837 392.926 417.028C393.779 417.762 393.832 419.991 393.833 420.084C393.835 420.152 393.799 420.217 393.741 420.252C393.71 420.272 393.675 420.282 393.641 420.282Z" fill="#007CFF"/>
<path d="M362.794 418.059C362.655 418.093 362.544 418.141 362.471 418.205C362.407 418.263 362.383 418.329 362.393 418.422C362.42 418.667 362.526 418.837 362.717 418.941C363.261 419.238 364.524 419.004 366.149 418.322C365.006 418.082 363.513 417.883 362.794 418.059ZM364.459 419.278C363.705 419.46 362.985 419.515 362.528 419.265C362.236 419.106 362.068 418.843 362.03 418.481C362.005 418.267 362.078 418.079 362.238 417.939C363.063 417.202 366.403 417.993 366.782 418.085C366.856 418.104 366.908 418.168 366.911 418.245C366.915 418.323 366.868 418.396 366.796 418.43C366.176 418.713 365.296 419.074 364.459 419.278Z" fill="#007CFF"/>
<path d="M364.34 415.851C364.304 415.859 364.27 415.871 364.234 415.882C363.915 415.994 363.918 416.124 363.919 416.168C363.932 416.697 365.403 417.671 366.443 418C366.236 417.434 365.737 416.291 365.008 415.931C364.788 415.822 364.569 415.794 364.34 415.851ZM366.761 418.441C366.735 418.447 366.71 418.447 366.684 418.444C365.692 418.261 363.573 417.08 363.553 416.196C363.549 415.99 363.645 415.707 364.13 415.539C364.483 415.406 364.845 415.433 365.185 415.6C366.297 416.15 366.879 418.12 366.904 418.204C366.922 418.266 366.904 418.332 366.859 418.383C366.834 418.412 366.798 418.433 366.761 418.441Z" fill="#007CFF"/>
<path d="M352.029 204.556L341.35 209.481L340.111 212.501L344.058 215.16C344.058 215.16 351.422 214.358 353.521 209.615L352.029 204.556Z" fill="#FF8B7B"/>
<path d="M352.483 210.941C351.815 206.966 350.51 205.153 350.499 205.135L352.181 203.871C352.248 203.957 353.795 206.051 354.558 210.591L352.483 210.941Z" fill="#1A2E35"/>
<path d="M354.301 206.012C354.648 206.869 354.092 207.905 353.058 208.322C352.025 208.741 350.908 208.385 350.562 207.526C350.216 206.668 350.772 205.633 351.805 205.214C352.837 204.796 353.955 205.153 354.301 206.012Z" fill="#1A2E35"/>
<path d="M334.135 213.457L335.554 214.897L345.135 210.791L341.351 209.481L334.135 213.457Z" fill="#FF8B7B"/>
<mask id="mask11_895_800" style="mask-type:luminance" maskUnits="userSpaceOnUse" x="360" y="400" width="17" height="11">
<path d="M360.334 400.986H376.744V410.879H360.334V400.986Z" fill="white"/>
</mask>
<g mask="url(#mask11_895_800)">
<g opacity="0.199997">
<path d="M375.285 400.987C375.343 400.963 376.744 404.914 376.744 404.914L362.567 410.879L360.333 406.718L375.285 400.987Z" fill="black"/>
</g>
</g>
<mask id="mask12_895_800" style="mask-type:luminance" maskUnits="userSpaceOnUse" x="388" y="405" width="17" height="5">
<path d="M388.098 405.379H404.726V409.918H388.098V405.379Z" fill="white"/>
</mask>
<g mask="url(#mask12_895_800)">
<g opacity="0.199997">
<path d="M404.254 405.964C404.315 405.964 404.726 409.918 404.726 409.918H389.206L388.098 405.378L404.254 405.964Z" fill="black"/>
</g>
</g>
<path d="M401.859 163.585C404.677 172.682 393.708 185.11 393.708 185.11L378.504 178.893C378.504 178.893 380.647 172.283 384.724 163.429C389.357 153.364 399.016 154.403 401.859 163.585Z" fill="#007CFF"/>
<mask id="mask13_895_800" style="mask-type:luminance" maskUnits="userSpaceOnUse" x="378" y="156" width="25" height="30">
<path d="M378.505 156.282H402.322V185.111H378.505V156.282Z" fill="white"/>
</mask>
<g mask="url(#mask13_895_800)">
<g opacity="0.199997">
<path d="M401.859 163.585C404.677 172.682 393.708 185.11 393.708 185.11L378.504 178.893C378.504 178.893 380.647 172.283 384.724 163.429C389.357 153.364 399.016 154.403 401.859 163.585Z" fill="black"/>
</g>
</g>
</g>
<path d="M250.752 73.4585H244.212V72.4048H250.752V73.4585Z" fill="#007CFF"/>
<path d="M335.725 131.882L334.676 131.834L335.46 114.228L336.511 114.276L335.725 131.882Z" fill="#007CFF"/>
<path d="M333.427 77.1489H212.596L201.349 329.257H322.18L333.427 77.1489Z" fill="#007CFF"/>
<mask id="mask14_895_800" style="mask-type:luminance" maskUnits="userSpaceOnUse" x="0" y="0" width="512" height="513">
<path d="M0 4.81606e-05H512V513H0V4.81606e-05Z" fill="white"/>
</mask>
<g mask="url(#mask14_895_800)">
<mask id="mask15_895_800" style="mask-type:luminance" maskUnits="userSpaceOnUse" x="197" y="80" width="133" height="253">
<path d="M197.741 80.6086H329.82V332.716H197.741V80.6086Z" fill="white"/>
</mask>
<g mask="url(#mask15_895_800)">
<g opacity="0.559998">
<path d="M329.82 80.6084H208.989L197.741 332.716H318.572L329.82 80.6084Z" fill="#FAFAFA"/>
</g>
</g>
<mask id="mask16_895_800" style="mask-type:luminance" maskUnits="userSpaceOnUse" x="194" y="84" width="133" height="253">
<path d="M194.134 84.0683H326.212V336.176H194.134V84.0683Z" fill="white"/>
</mask>
<g mask="url(#mask16_895_800)">
<g opacity="0.0700073">
<path d="M326.213 84.0676H205.382L194.135 336.175H314.966L326.213 84.0676Z" fill="#007CFF"/>
</g>
</g>
</g>
<path d="M312.459 194.022H209.325L208.464 213.318H311.599L312.459 194.022Z" fill="white"/>
<path d="M266.05 179.95H209.952L209.567 188.583H265.665L266.05 179.95Z" fill="#007CFF"/>
<path d="M310.137 246.085H207.002L206.141 265.38H309.276L310.137 246.085Z" fill="white"/>
<mask id="mask17_895_800" style="mask-type:luminance" maskUnits="userSpaceOnUse" x="0" y="0" width="512" height="513">
<path d="M0 4.81606e-05H512V513H0V4.81606e-05Z" fill="white"/>
</mask>
<g mask="url(#mask17_895_800)">
<mask id="mask18_895_800" style="mask-type:luminance" maskUnits="userSpaceOnUse" x="220" y="291" width="72" height="24">
<path d="M220.838 291.421H291.224V314.546H220.838V291.421Z" fill="white"/>
</mask>
<g mask="url(#mask18_895_800)">
<g opacity="0.470001">
<path d="M291.224 291.421H221.869L220.837 314.546H290.191L291.224 291.421Z" fill="#007CFF"/>
</g>
</g>
<path d="M217.358 317.884H286.468L287.489 295.003H218.379L217.358 317.884ZM286.585 318.128H217.231C217.199 318.128 217.167 318.115 217.143 318.09C217.121 318.066 217.108 318.034 217.11 318.001L218.142 294.875C218.144 294.81 218.198 294.758 218.263 294.758H287.616C287.65 294.758 287.682 294.773 287.705 294.796C287.728 294.82 287.74 294.853 287.737 294.886L286.707 318.011C286.705 318.077 286.649 318.128 286.585 318.128Z" fill="white"/>
<path d="M253.929 232.013H207.63L207.245 240.646H253.544L253.929 232.013Z" fill="#007CFF"/>
<path d="M289.9 131.717C289.642 137.494 287.552 142.83 284.203 147.162C279.142 153.732 271.217 158.001 262.494 158.001C253.772 158.001 246.238 153.732 241.764 147.162C238.801 142.83 237.186 137.494 237.444 131.717C238.092 117.199 250.361 105.432 264.839 105.432C279.33 105.432 290.548 117.199 289.9 131.717Z" fill="white"/>
<path d="M292.369 110.934C292.3 112.469 291.745 113.887 290.854 115.038C289.51 116.783 287.403 117.918 285.086 117.918C282.768 117.918 280.767 116.783 279.578 115.038C278.79 113.887 278.361 112.469 278.43 110.934C278.602 107.076 281.861 103.95 285.71 103.95C289.56 103.95 292.541 107.076 292.369 110.934Z" fill="#007CFF"/>
<path d="M220.432 203.67C220.356 205.378 218.912 206.762 217.208 206.762C215.504 206.762 214.184 205.378 214.26 203.67C214.336 201.963 215.78 200.579 217.485 200.579C219.188 200.579 220.507 201.963 220.432 203.67Z" fill="#1A2E35"/>
<path d="M234.243 203.67C234.167 205.378 232.723 206.762 231.02 206.762C229.316 206.762 227.996 205.378 228.071 203.67C228.147 201.963 229.591 200.579 231.295 200.579C233 200.579 234.319 201.963 234.243 203.67Z" fill="#1A2E35"/>
<path d="M248.054 203.67C247.978 205.378 246.534 206.762 244.83 206.762C243.126 206.762 241.806 205.378 241.882 203.67C241.958 201.963 243.402 200.579 245.106 200.579C246.811 200.579 248.129 201.963 248.054 203.67Z" fill="#1A2E35"/>
<path d="M218.109 255.733C218.034 257.44 216.59 258.824 214.886 258.824C213.182 258.824 211.862 257.44 211.938 255.733C212.014 254.025 213.457 252.641 215.162 252.641C216.866 252.641 218.186 254.025 218.109 255.733Z" fill="#1A2E35"/>
<path d="M231.92 255.733C231.844 257.44 230.4 258.824 228.696 258.824C226.992 258.824 225.672 257.44 225.748 255.733C225.825 254.025 227.268 252.641 228.973 252.641C230.677 252.641 231.997 254.025 231.92 255.733Z" fill="#1A2E35"/>
<path d="M245.73 255.733C245.655 257.44 244.211 258.824 242.507 258.824C240.803 258.824 239.483 257.44 239.559 255.733C239.636 254.025 241.078 252.641 242.783 252.641C244.487 252.641 245.807 254.025 245.73 255.733Z" fill="#1A2E35"/>
<path d="M259.542 255.733C259.465 257.44 258.022 258.824 256.318 258.824C254.614 258.824 253.294 257.44 253.37 255.733C253.446 254.025 254.89 252.641 256.594 252.641C258.298 252.641 259.618 254.025 259.542 255.733Z" fill="#1A2E35"/>
<path d="M273.353 255.733C273.277 257.44 271.834 258.824 270.13 258.824C268.425 258.824 267.105 257.44 267.182 255.733C267.258 254.025 268.7 252.641 270.405 252.641C272.109 252.641 273.429 254.025 273.353 255.733Z" fill="#1A2E35"/>
<path d="M274.675 122.931C274.412 128.803 269.449 133.562 263.591 133.562C257.73 133.562 253.192 128.803 253.454 122.931C253.716 117.06 258.679 112.301 264.539 112.301C270.398 112.301 274.937 117.06 274.675 122.931Z" fill="#007CFF"/>
<path d="M284.202 147.163C279.143 153.731 271.217 158.001 262.495 158.001C253.771 158.001 246.237 153.731 241.765 147.163C246.741 142.197 254.62 138.971 263.343 138.971C272.077 138.971 279.667 142.197 284.202 147.163Z" fill="#007CFF"/>
<mask id="mask19_895_800" style="mask-type:luminance" maskUnits="userSpaceOnUse" x="253" y="112" width="22" height="22">
<path d="M253.443 112.301H274.685V133.562H253.443V112.301Z" fill="white"/>
</mask>
<g mask="url(#mask19_895_800)">
<g opacity="0.100006">
<path d="M274.675 122.931C274.412 128.803 269.449 133.562 263.591 133.562C257.73 133.562 253.192 128.803 253.454 122.931C253.716 117.06 258.679 112.301 264.539 112.301C270.398 112.301 274.937 117.06 274.675 122.931Z" fill="white"/>
</g>
</g>
<mask id="mask20_895_800" style="mask-type:luminance" maskUnits="userSpaceOnUse" x="241" y="138" width="44" height="21">
<path d="M241.764 138.971H284.202V158.001H241.764V138.971Z" fill="white"/>
</mask>
<g mask="url(#mask20_895_800)">
<g opacity="0.100006">
<path d="M284.202 147.162C279.143 153.731 271.217 158.001 262.495 158.001C253.771 158.001 246.237 153.731 241.765 147.162C246.741 142.196 254.62 138.971 263.343 138.971C272.077 138.971 279.667 142.196 284.202 147.162Z" fill="white"/>
</g>
</g>
</g>
<mask id="mask21_895_800" style="mask-type:luminance" maskUnits="userSpaceOnUse" x="0" y="0" width="512" height="513">
<path d="M0 4.81606e-05H512V513H0V4.81606e-05Z" fill="white"/>
</mask>
<g mask="url(#mask21_895_800)">
<path d="M133.537 217.966C132.567 220.097 131.547 222.442 130.651 224.729C129.746 227.037 128.845 229.349 128.061 231.691C126.535 236.377 125.104 241.108 124.4 245.85L124.167 247.361C124.149 247.543 124.163 247.801 124.241 248.125C124.392 248.777 124.797 249.649 125.367 250.505C126.52 252.236 128.155 253.988 129.916 255.615C131.676 257.269 133.584 258.849 135.569 260.351C137.534 261.866 139.607 263.348 141.635 264.736L139.726 268.337C134.854 266.204 130.317 263.651 125.922 260.45C123.762 258.799 121.627 257.023 119.737 254.623C118.805 253.412 117.89 252.044 117.29 250.239C116.998 249.338 116.796 248.318 116.795 247.217C116.802 246.964 116.815 246.609 116.833 246.438L116.884 245.928L116.985 244.909C117.542 239.47 118.746 234.243 120.33 229.172C121.127 226.64 121.98 224.134 122.953 221.674C123.947 219.197 124.927 216.821 126.169 214.33L133.537 217.966Z" fill="#FF8B7B"/>
<path d="M140.2 264.126L147.436 260.447L145.567 268.416C145.567 268.416 140.598 269.806 138.287 267.39L140.2 264.126Z" fill="#FF8B7B"/>
<path d="M154.063 261.755L152.137 268.342L145.566 268.416L147.436 260.448L154.063 261.755Z" fill="#FF8B7B"/>
<path d="M164.283 179.551C164.283 179.551 164.911 181.864 165.906 183.608C165.051 184.408 164.283 184.129 164.283 184.129V179.551Z" fill="#FF5652"/>
<path d="M163.302 178.436C163.302 179.085 163.645 179.612 164.069 179.612C164.493 179.612 164.836 179.085 164.836 178.436C164.836 177.786 164.493 177.26 164.069 177.26C163.645 177.26 163.302 177.786 163.302 178.436Z" fill="#1A2E35"/>
<path d="M163.882 177.296L165.438 176.847C165.438 176.847 164.64 178.065 163.882 177.296Z" fill="#1A2E35"/>
<path d="M144.279 187.077C145.214 191.853 146.146 200.604 142.811 203.792C142.811 203.792 144.114 208.637 152.972 208.637C162.712 208.637 157.627 203.792 157.627 203.792C152.311 202.52 152.448 198.569 153.374 194.857L144.279 187.077Z" fill="#FF8B7B"/>
<path d="M141.694 176.207C142.182 184.181 142.219 187.566 146.238 191.659C152.285 197.816 161.952 195.47 163.851 187.51C165.561 180.347 164.475 168.511 156.685 165.337C149.01 162.21 141.205 168.234 141.694 176.207Z" fill="#FF8B7B"/>
<path d="M142.478 167.185C138.487 168.643 133.164 167.558 135.253 179.9C137.464 192.967 134.06 197.266 134.06 197.266C134.06 197.266 149.207 200.499 164.669 197.073C164.669 197.073 159.948 188.801 161.272 182.766C162.962 175.068 161.624 172.222 161.624 172.222C161.624 172.222 148.09 165.135 142.478 167.185Z" fill="#1A2E35"/>
<path d="M159.375 180.363C159.359 181.943 159.912 183.534 160.629 184.639C161.708 186.304 162.987 185.625 163.308 183.9C163.596 182.346 163.382 179.609 162.001 178.547C160.64 177.502 159.395 178.556 159.375 180.363Z" fill="#FF8B7B"/>
<path d="M139.012 168.581C137.86 165.354 143.332 160.391 154.901 162.455C166.469 164.52 166.977 174.16 166.977 174.16L164.637 171.376L164.741 174.308L152.852 176.597L139.012 168.581Z" fill="#1A2E35"/>
<path d="M139.993 204.334C139.833 203.349 140.494 202.419 141.477 202.257C145.081 201.661 153.268 200.453 157.389 201.026C160.451 201.451 161.261 203.243 161.39 204.707C161.486 205.794 160.589 206.709 159.503 206.661L141.696 205.854C140.84 205.815 140.13 205.181 139.993 204.334Z" fill="#007CFF"/>
<mask id="mask22_895_800" style="mask-type:luminance" maskUnits="userSpaceOnUse" x="139" y="200" width="23" height="7">
<path d="M139.969 200.876H161.398V206.662H139.969V200.876Z" fill="white"/>
</mask>
<g mask="url(#mask22_895_800)">
<g opacity="0.600006">
<path d="M139.993 204.334C139.833 203.349 140.494 202.419 141.477 202.257C145.081 201.661 153.268 200.453 157.389 201.026C160.451 201.451 161.261 203.243 161.39 204.707C161.486 205.794 160.589 206.709 159.503 206.661L141.696 205.854C140.84 205.815 140.13 205.181 139.993 204.334Z" fill="black"/>
</g>
</g>
<path d="M150.282 383.582L156.882 388.173L167.932 373.167L161.333 368.576L150.282 383.582Z" fill="#FF8B7B"/>
<path d="M134.877 383.279L141.858 387.262L151.639 371.392L144.658 367.408L134.877 383.279Z" fill="#FF8B7B"/>
<path d="M167.928 373.17L162.234 380.905L155.632 376.313L161.326 368.577L167.928 373.17Z" fill="#EA7064"/>
<path d="M144.653 367.412L151.636 371.397L146.592 379.574L139.607 375.59L144.653 367.412Z" fill="#EA7064"/>
<path d="M155.85 254.436C155.85 254.436 181.636 286.996 176.798 318.132C172.891 343.281 150.263 377.335 150.263 377.335L139.624 372.037C139.624 372.037 151.184 349.405 158.774 325.414C161.958 315.354 160.601 304.269 154.649 295.56C141.588 276.446 120.663 287.819 134.739 254.436H155.85Z" fill="#007CFF"/>
<mask id="mask23_895_800" style="mask-type:luminance" maskUnits="userSpaceOnUse" x="130" y="254" width="48" height="124">
<path d="M130.059 254.436H177.403V377.335H130.059V254.436Z" fill="white"/>
</mask>
<g mask="url(#mask23_895_800)">
<g opacity="0.600006">
<path d="M155.85 254.436C155.85 254.436 181.636 286.996 176.798 318.132C172.891 343.281 150.263 377.335 150.263 377.335L139.624 372.037C139.624 372.037 151.184 349.406 158.774 325.415C161.958 315.354 160.601 304.269 154.649 295.56C141.588 276.446 120.663 287.819 134.739 254.436H155.85Z" fill="black"/>
</g>
</g>
<mask id="mask24_895_800" style="mask-type:luminance" maskUnits="userSpaceOnUse" x="164" y="271" width="14" height="59">
<path d="M164.753 271.625H177.405V329.445H164.753V271.625Z" fill="white"/>
</mask>
<g mask="url(#mask24_895_800)">
<g opacity="0.399994">
<path d="M168.499 275.357L164.752 271.625C164.752 271.92 172.013 316.824 174.055 329.445C175.286 325.575 176.233 321.759 176.801 318.131C179.169 302.886 174.191 287.293 168.499 275.357Z" fill="black"/>
</g>
</g>
<path d="M167.367 254.436C167.367 254.436 198.413 295.353 199.286 319.889C200.018 340.448 165.468 380.162 165.468 380.162L155.438 373.66C155.438 373.66 175.641 345.428 180.726 322.349C178.787 299.506 137.164 254.436 137.164 254.436H167.367Z" fill="#007CFF"/>
<mask id="mask25_895_800" style="mask-type:luminance" maskUnits="userSpaceOnUse" x="137" y="254" width="63" height="127">
<path d="M137.164 254.436H199.298V380.162H137.164V254.436Z" fill="white"/>
</mask>
<g mask="url(#mask25_895_800)">
<g opacity="0.600006">
<path d="M167.367 254.436C167.367 254.436 198.413 295.353 199.286 319.89C200.018 340.449 165.468 380.162 165.468 380.162L155.438 373.66C155.438 373.66 175.641 345.428 180.726 322.349C178.787 299.506 137.164 254.436 137.164 254.436H167.367Z" fill="black"/>
</g>
</g>
<path d="M128.956 205.621C125.631 206.407 122.453 218.5 122.453 218.5L135.42 227.173C135.42 227.173 139.741 217.615 138.233 213.428C136.661 209.067 133.155 204.629 128.956 205.621Z" fill="#007CFF"/>
<mask id="mask26_895_800" style="mask-type:luminance" maskUnits="userSpaceOnUse" x="130" y="213" width="9" height="15">
<path d="M130.588 213.402H138.351V227.175H130.588V213.402Z" fill="white"/>
</mask>
<g mask="url(#mask26_895_800)">
<g opacity="0.199997">
<path d="M131.493 213.402L130.587 223.938L135.415 227.175C135.415 227.175 137.677 222.167 138.351 217.803L131.493 213.402Z" fill="black"/>
</g>
</g>
<path d="M171.206 205.854C171.206 205.854 175.033 207.205 167.367 254.436H134.74C135.286 241.131 135.302 232.927 128.955 205.621C128.955 205.621 135.792 204.13 142.811 203.791C148.302 203.527 152.8 203.351 157.626 203.792C163.99 204.374 171.206 205.854 171.206 205.854Z" fill="#007CFF"/>
<path d="M174.52 213.354C175.259 215.402 176.041 217.615 176.855 219.742C177.636 221.899 178.448 224.052 179.285 226.197L181.794 232.642L182.43 234.253L182.749 235.058L182.909 235.46C182.936 235.533 182.93 235.526 182.921 235.519C182.877 235.499 182.839 235.296 182.204 234.878C181.893 234.684 181.371 234.498 180.867 234.487C180.36 234.469 179.957 234.592 179.728 234.694C179.266 234.914 179.259 235.009 179.269 234.994C179.299 234.979 179.394 234.888 179.499 234.761C179.946 234.223 180.487 233.294 180.962 232.371C181.446 231.429 181.903 230.423 182.36 229.405C183.266 227.359 184.09 225.226 184.929 223.088C185.758 220.944 186.54 218.77 187.314 216.588L189.645 210.04L193.591 211.037C192.81 215.721 191.801 220.308 190.598 224.912C190.01 227.218 189.33 229.506 188.553 231.815C188.166 232.971 187.732 234.124 187.235 235.3C186.717 236.485 186.205 237.653 185.288 239.011C185.049 239.355 184.775 239.717 184.395 240.117C183.993 240.511 183.529 240.988 182.53 241.439C182.032 241.652 181.34 241.843 180.541 241.81C179.746 241.787 178.94 241.505 178.381 241.159C177.246 240.432 176.854 239.741 176.519 239.22C176.362 238.961 176.229 238.691 176.138 238.497L175.943 238.1L175.555 237.304L174.78 235.71C173.769 233.575 172.778 231.429 171.838 229.258C170.908 227.083 170.002 224.896 169.122 222.692C168.282 220.454 167.45 218.286 166.711 215.906L174.52 213.354Z" fill="#FF8B7B"/>
<path d="M171.207 205.854C175.129 206.79 179.535 218.4 179.535 218.4L167.88 228.351C167.88 228.351 160.327 215.691 161.854 211.511C163.445 207.158 166.084 204.631 171.207 205.854Z" fill="#007CFF"/>
<path d="M191.463 206.42L195.554 202.992L198.398 207.434L196.302 211.143C196.302 211.143 192.964 214.204 190.009 212.647C189.056 210.478 189.649 207.94 191.463 206.42Z" fill="#FF8B7B"/>
<path d="M202.979 203.003L202.673 204.119L196.193 205.209L195.554 202.992L202.979 203.003Z" fill="#FF8B7B"/>
<path d="M166.299 380.701L154.607 373.122L156.7 369.474L169.841 377.568L166.299 380.701Z" fill="#007CFF"/>
<path d="M144.112 385.607C145.384 386.255 146.408 386.494 146.9 386.249C147.109 386.143 147.231 385.948 147.272 385.65C147.294 385.49 147.237 385.418 147.184 385.375C146.772 385.027 145.234 385.298 144.112 385.607ZM146.415 386.726C145.485 386.726 144.262 386.135 143.52 385.722C143.454 385.685 143.416 385.612 143.424 385.536C143.43 385.46 143.483 385.396 143.555 385.373C143.87 385.273 146.644 384.422 147.43 385.082C147.554 385.188 147.692 385.38 147.648 385.701C147.591 386.128 147.397 386.428 147.07 386.59C146.882 386.685 146.659 386.726 146.415 386.726Z" fill="#1A2E35"/>
<path d="M145.598 382.947C145.504 382.947 145.408 382.97 145.312 383.016C144.686 383.319 144.159 384.522 143.907 385.253C144.808 384.873 146.039 383.867 146.083 383.304C146.089 383.213 146.069 383.094 145.844 383C145.762 382.965 145.679 382.947 145.598 382.947ZM143.612 385.746C143.561 385.746 143.512 385.725 143.476 385.688C143.428 385.639 143.411 385.569 143.429 385.503C143.457 385.409 144.096 383.181 145.147 382.672C145.427 382.539 145.712 382.531 145.99 382.647C146.433 382.834 146.476 383.158 146.462 383.334C146.389 384.257 144.513 385.531 143.657 385.74C143.643 385.744 143.628 385.746 143.612 385.746Z" fill="#1A2E35"/>
<path d="M158.076 388.9C159.37 390.161 160.502 390.858 161.151 390.77C161.379 390.743 161.551 390.62 161.679 390.394C161.728 390.308 161.732 390.233 161.692 390.154C161.418 389.605 159.517 389.132 158.076 388.9ZM161.043 391.159C159.89 391.159 158.282 389.675 157.402 388.761C157.346 388.704 157.333 388.617 157.369 388.544C157.405 388.472 157.498 388.431 157.563 388.44C157.968 388.493 161.529 388.974 162.033 389.982C162.129 390.176 162.121 390.385 162.009 390.583C161.821 390.915 161.547 391.105 161.198 391.15C161.148 391.156 161.096 391.159 161.043 391.159Z" fill="#1A2E35"/>
<path d="M157.924 388.483C159.068 388.547 160.897 388.166 161.135 387.666C161.156 387.624 161.216 387.498 160.952 387.269C160.731 387.081 160.475 387.002 160.179 387.028C159.319 387.104 158.36 388.018 157.924 388.483ZM158.188 388.868C157.925 388.868 157.69 388.852 157.504 388.817C157.438 388.804 157.384 388.758 157.36 388.696C157.337 388.632 157.349 388.56 157.392 388.508C157.451 388.437 158.836 386.764 160.145 386.649C160.555 386.617 160.901 386.726 161.198 386.98C161.601 387.326 161.573 387.634 161.479 387.83C161.154 388.514 159.384 388.868 158.188 388.868Z" fill="#1A2E35"/>
<path d="M143.894 384.666L135.209 382.206C134.892 382.116 134.574 382.264 134.443 382.559L131.511 389.165C131.207 389.85 131.629 390.7 132.362 390.894C135.404 391.698 136.914 391.934 140.733 393.016C143.083 393.681 146.447 394.898 149.692 395.817C152.865 396.716 154.016 393.57 152.748 392.896C147.057 389.875 146.608 387.804 145.051 385.508C144.771 385.094 144.356 384.797 143.894 384.666Z" fill="#007CFF"/>
<path d="M157.639 387.564L150.225 382.407C149.956 382.219 149.606 382.255 149.385 382.493L144.468 387.782C143.958 388.331 144.082 389.272 144.712 389.693C147.327 391.447 148.679 392.161 151.938 394.429C153.944 395.825 157.949 398.919 160.718 400.846C163.427 402.731 165.537 400.132 164.556 399.081C160.157 394.369 159.186 391.416 158.46 388.738C158.329 388.255 158.034 387.839 157.639 387.564Z" fill="#007CFF"/>
<path d="M151.628 378.015L138.259 371.357L139.642 367.733L153.913 374.742L151.628 378.015Z" fill="#007CFF"/>
<path d="M134.251 252.517L133.121 255.443C133.006 255.671 133.274 255.902 133.651 255.902H167.529C167.823 255.902 168.067 255.758 168.085 255.573L168.38 252.646C168.399 252.443 168.144 252.272 167.823 252.272H134.782C134.54 252.272 134.325 252.371 134.251 252.517Z" fill="#007CFF"/>
<mask id="mask27_895_800" style="mask-type:luminance" maskUnits="userSpaceOnUse" x="133" y="252" width="36" height="4">
<path d="M133.093 252.272H168.381V255.902H133.093V252.272Z" fill="white"/>
</mask>
<g mask="url(#mask27_895_800)">
<g opacity="0.399994">
<path d="M134.251 252.517L133.121 255.443C133.006 255.671 133.274 255.902 133.651 255.902H167.529C167.823 255.902 168.067 255.758 168.085 255.573L168.38 252.647C168.399 252.443 168.144 252.272 167.823 252.272H134.782C134.54 252.272 134.325 252.372 134.251 252.517Z" fill="white"/>
</g>
</g>
<path d="M139.579 256.219H138.694C138.517 256.219 138.384 256.128 138.395 256.017L138.811 252.215C138.823 252.103 138.977 252.012 139.153 252.012H140.038C140.215 252.012 140.348 252.103 140.337 252.215L139.921 256.017C139.909 256.128 139.755 256.219 139.579 256.219Z" fill="#007CFF"/>
<path d="M160.475 256.219H159.591C159.415 256.219 159.28 256.128 159.293 256.017L159.707 252.215C159.72 252.103 159.873 252.012 160.05 252.012H160.935C161.111 252.012 161.246 252.103 161.233 252.215L160.818 256.017C160.806 256.128 160.652 256.219 160.475 256.219Z" fill="#007CFF"/>
<mask id="mask28_895_800" style="mask-type:luminance" maskUnits="userSpaceOnUse" x="111" y="425" width="56" height="5">
<path d="M111.365 425.993H166.234V429.983H111.365V425.993Z" fill="white"/>
</mask>
<g mask="url(#mask28_895_800)">
<path d="M111.365 427.987C111.315 429.088 123.557 429.982 138.708 429.983C153.859 429.984 166.183 429.091 166.233 427.99C166.284 426.888 154.043 425.995 138.891 425.994C123.739 425.993 111.416 426.885 111.365 427.987Z" fill="#F5F5F5"/>
</g>
<path d="M155.518 425.175C150.664 423.763 145.322 421.944 142.017 420.009C141.925 419.956 141.828 419.917 141.735 419.867V397.882H151.497C153.112 397.882 154.42 396.571 154.42 394.954C154.42 393.336 153.112 392.025 151.497 392.025H141.735V291.658H135.889V392.025H126.125C124.511 392.025 123.203 393.336 123.203 394.954C123.203 396.571 124.511 397.882 126.125 397.882H135.889V419.867C135.795 419.917 135.698 419.956 135.605 420.009C132.3 421.944 126.959 423.763 122.104 425.175C120.512 425.638 120.847 427.987 122.506 427.987H138.811H155.117C156.776 427.987 157.111 425.638 155.518 425.175Z" fill="#E1E1E1"/>
<path d="M157.02 302.923H120.601C117.684 302.923 115.297 300.532 115.297 297.608V286.761C115.297 283.837 117.684 281.445 120.601 281.445H157.02C159.937 281.445 162.324 283.837 162.324 286.761V297.608C162.324 300.532 159.937 302.923 157.02 302.923Z" fill="#007CFF"/>
<path d="M120.267 302.923V304.79C120.267 306.33 121.939 307.589 123.982 307.589H153.64C155.683 307.589 157.355 306.33 157.355 304.79V302.923H120.267Z" fill="#007CFF"/>
<mask id="mask29_895_800" style="mask-type:luminance" maskUnits="userSpaceOnUse" x="120" y="302" width="38" height="6">
<path d="M120.267 302.923H157.355V307.589H120.267V302.923Z" fill="white"/>
</mask>
<g mask="url(#mask29_895_800)">
<g opacity="0.300003">
<path d="M120.267 302.924V304.79C120.267 306.33 121.939 307.589 123.982 307.589H153.64C155.683 307.589 157.355 306.33 157.355 304.79V302.924H120.267Z" fill="white"/>
</g>
</g>
</g>
</svg>
