<svg width="142" height="53" viewBox="0 0 142 53" fill="none" xmlns="http://www.w3.org/2000/svg">
<g clip-path="url(#clip0_190_3342)">
<path d="M65.91 29.0057C65.6328 28.9133 65.2718 28.9961 65.0494 29.1744C64.8237 29.3527 64.7012 29.6393 64.7496 29.9099C64.6884 30.1328 64.7431 30.3588 64.9269 30.5276C65.1106 30.6995 65.3781 30.7441 65.6199 30.7091C66.1227 30.6326 66.4934 30.2156 66.4902 29.7093C66.4902 29.3559 66.2291 29.1107 65.9132 29.0057" fill="#FCDD34"/>
<mask id="mask0_190_3342" style="mask-type:luminance" maskUnits="userSpaceOnUse" x="47" y="6" width="30" height="37">
<path d="M55.3247 6.80408C53.3842 7.33262 51.995 8.79724 50.8314 10.3383C48.3784 13.5859 47.6113 17.8301 47.7402 21.8068C47.8143 24.1375 48.2301 26.379 48.9103 28.6078C49.4905 30.5054 50.1964 33.0207 51.8725 34.2433C52.1013 34.4089 52.3818 34.2211 52.4656 34.0046C53.0619 32.4603 52.6074 30.5595 52.3914 28.9644C52.1529 27.2196 51.9789 25.4684 51.8145 23.714C51.5308 20.6829 51.6469 17.4321 52.9362 14.6143C53.4068 13.5859 55.8372 9.41492 57.4553 10.8541C57.9291 11.2743 57.971 12.411 58.0677 12.9809C58.2127 13.8597 58.332 14.7449 58.4384 15.6268C58.6769 17.5881 58.8413 19.559 58.9541 21.5298C59.0798 23.7777 62.7834 24.5992 63.1928 22.0966C63.6602 19.2342 64.308 14.5984 67.3476 13.1975C70.8095 11.6023 70.8675 16.4578 71.0093 18.6738C71.2543 22.4245 70.9029 26.1848 70.0649 29.8495C69.6394 31.6994 69.1076 33.5461 68.5338 35.3545C67.931 37.2585 67.4733 39.1976 66.8674 41.1048C66.4451 42.4325 68.2502 43.4227 69.2075 42.4516C70.9835 40.6463 72.4437 38.6977 73.4752 36.3925C74.4841 34.1383 75.1287 31.7885 75.5606 29.3655C76.4406 24.4368 76.3729 19.1992 75.2351 14.3118C74.7355 12.169 73.6976 10.039 71.6121 9.02648C69.5814 8.04264 67.2123 8.25278 65.2331 9.25891C63.9212 9.92435 62.8866 10.8891 62.0614 12.0258C61.7842 10.4911 61.3361 8.96598 60.1854 7.88026C59.2764 7.02059 58.0419 6.60986 56.8009 6.60986C56.3045 6.60986 55.8082 6.67673 55.3343 6.80408" fill="white"/>
</mask>
<g mask="url(#mask0_190_3342)">
<path d="M49.2586 0.00230004L38.96 41.3252L74.7845 50.0367L85.0831 8.71382L49.2586 0.00230004Z" fill="url(#paint0_linear_190_3342)"/>
</g>
<mask id="mask1_190_3342" style="mask-type:luminance" maskUnits="userSpaceOnUse" x="78" y="11" width="5" height="15">
<path d="M80.2058 11.6437C79.2485 12.1117 79.1615 12.9268 78.9552 13.9011C78.7167 15.0346 78.5362 16.1649 78.4362 17.3175C78.259 19.3743 77.7303 22.5391 78.8811 24.3444C80.0447 26.172 81.9432 25.1595 82.4364 23.8095C82.4589 23.8318 82.4815 23.8541 82.5041 23.8764C82.8715 22.7174 82.5137 21.7845 82.3365 20.6256C82.1721 19.5303 82.085 18.4223 82.0302 17.3175C81.9754 16.219 81.9335 15.1205 81.9142 14.0221C81.8949 13.1051 81.9916 12.4333 81.2566 11.7774C81.0729 11.615 80.8634 11.5354 80.6474 11.5354C80.4992 11.5354 80.3509 11.5704 80.2058 11.6437Z" fill="white"/>
</mask>
<g mask="url(#mask1_190_3342)">
<path d="M78.0302 10.3593L74.2979 25.3352L82.5857 27.3506L86.3181 12.3747L78.0302 10.3593Z" fill="url(#paint1_linear_190_3342)"/>
</g>
<mask id="mask2_190_3342" style="mask-type:luminance" maskUnits="userSpaceOnUse" x="78" y="4" width="5" height="5">
<path d="M79.8515 4.89691C79.252 5.17073 78.7975 5.86483 78.7105 6.49207C78.6234 7.12249 78.8716 7.78156 79.3841 8.14772C79.6323 8.60302 80.0804 8.88958 80.6445 8.88321C81.215 8.88003 81.7178 8.54571 82.0563 8.11588C82.7557 7.22119 82.7042 5.97627 81.8983 5.15481C81.576 4.82686 81.1731 4.68677 80.7573 4.68677C80.4511 4.68677 80.1416 4.76318 79.8515 4.89372" fill="white"/>
</mask>
<g mask="url(#mask2_190_3342)">
<path d="M78.8603 3.74087L77.6367 8.65039L82.5193 9.8377L83.7429 4.92818L78.8603 3.74087Z" fill="url(#paint2_linear_190_3342)"/>
</g>
<mask id="mask3_190_3342" style="mask-type:luminance" maskUnits="userSpaceOnUse" x="84" y="10" width="16" height="17">
<path d="M86.4239 10.9306C84.9411 12.669 84.7284 15.2544 84.4351 17.4354C84.1128 19.817 84.0386 22.2018 84.1643 24.5993C84.2771 26.723 87.3909 27.917 88.4965 25.7582C89.0638 24.647 89.2346 23.3607 88.8865 22.1413C88.8317 21.9439 88.7253 21.7847 88.5899 21.6605C88.5384 20.4315 88.5319 19.2025 88.5835 17.9703C88.6061 17.4609 88.6673 16.9355 88.7382 16.4038C89.154 16.3178 89.5666 16.2032 90.0404 16.0568C90.7399 15.8371 91.5264 15.5728 92.2613 15.7989C93.686 16.2382 93.9729 18.4829 94.1566 19.7278C94.3758 21.2275 93.5248 22.9182 94.4016 24.2904C95.5555 26.0926 98.1632 24.6757 98.7531 23.1665C99.9489 20.1035 98.305 15.0825 95.7425 13.0925C93.9245 11.6788 91.1235 11.5769 89.067 12.6372C89.0477 12.2774 89.0025 11.924 88.9219 11.5801C88.7672 10.921 88.0807 10.4912 87.4199 10.4912C87.0492 10.4912 86.685 10.6249 86.4271 10.9274" fill="white"/>
</mask>
<g mask="url(#mask3_190_3342)">
<path d="M84.947 6.84988L79.9434 26.927L99.0387 31.5705L104.042 11.4933L84.947 6.84988Z" fill="url(#paint3_linear_190_3342)"/>
</g>
<mask id="mask4_190_3342" style="mask-type:luminance" maskUnits="userSpaceOnUse" x="75" y="28" width="17" height="15">
<path d="M80.2351 29.9674C77.679 31.6071 75.2776 34.6223 75.1455 37.733C74.9843 41.5538 78.8588 43.4068 82.2013 42.3275C83.9097 41.7767 85.6986 40.7355 87.2394 39.4492C87.6584 40.4808 88.3417 41.3277 89.5956 41.6907C90.2725 41.8881 91.0429 41.4551 91.2169 40.7801C91.7939 38.5672 90.9301 36.3385 90.5916 34.1606C90.2822 32.1611 87.4876 32.228 86.5528 33.6385C85.4891 35.2432 83.7646 36.2939 82.1465 37.2873C81.634 37.6025 80.4414 38.5545 79.7452 38.2584C79.1456 38.0037 79.4486 37.421 79.6646 36.867C80.883 33.7531 84.3126 31.9446 87.4843 31.4256C88.345 31.2855 88.6447 30.1871 88.2676 29.5248C87.7003 28.5314 86.7043 28.1685 85.5794 28.1685C83.6905 28.1685 81.4374 29.1905 80.2319 29.961" fill="white"/>
</mask>
<g mask="url(#mask4_190_3342)">
<path d="M75.9471 24.3209L71.4072 42.5369L90.8375 47.2618L95.3773 29.0458L75.9471 24.3209Z" fill="url(#paint4_linear_190_3342)"/>
</g>
<mask id="mask5_190_3342" style="mask-type:luminance" maskUnits="userSpaceOnUse" x="92" y="27" width="13" height="14">
<path d="M98.7175 30.6136C99.5137 30.6487 99.7909 31.2982 99.0398 31.7248C98.2437 32.177 97.1606 32.2884 96.2549 32.4699C96.6739 31.4224 97.4185 30.5563 98.7175 30.6136ZM93.2991 30.1552C91.3812 33.6193 91.1943 38.8537 95.5941 40.452C98.4693 41.4964 103.81 41.1366 104.735 37.6151C104.935 36.8574 104.258 36.3193 103.543 36.4371C102.837 36.5549 102.073 36.4785 101.354 36.5804C100.503 36.7014 99.6619 36.7969 98.8013 36.8064C97.18 36.8287 95.6134 36.4944 95.794 34.5172C95.8004 34.4312 95.8101 34.342 95.823 34.2497C97.1091 35.4946 99.1204 35.2845 100.758 34.6063C102.789 33.7689 103.185 31.8235 102.399 29.9355C101.631 28.092 100.007 27.2737 98.3049 27.2737C96.358 27.2737 94.3048 28.3403 93.2991 30.152" fill="white"/>
</mask>
<g mask="url(#mask5_190_3342)">
<path d="M91.9804 24.1274L87.8535 40.6863L104.151 44.6493L108.278 28.0905L91.9804 24.1274Z" fill="url(#paint5_linear_190_3342)"/>
</g>
<mask id="mask6_190_3342" style="mask-type:luminance" maskUnits="userSpaceOnUse" x="96" y="26" width="18" height="22">
<path d="M103.421 31.2346C103.375 32.8425 104.342 34.1193 105.67 34.9344C106.618 35.5171 108.227 35.6476 108.955 36.4786C110.628 38.3826 107.485 40.4235 106.035 40.9966C104.507 41.6016 102.892 41.9868 101.277 42.2734C99.53 42.5822 98.0473 42.6236 96.6322 43.8081C96.1713 44.1933 96.0488 45.088 96.4002 45.5815C98.7177 48.8164 103.343 47.1162 106.351 45.849C109.223 44.6391 112.182 42.8752 113.294 39.8281C114.309 37.0422 113.632 33.9665 111.018 32.3267C110.183 31.8014 108.994 31.2697 107.962 30.9576C108.088 30.843 108.21 30.7252 108.339 30.6424C109.077 30.1553 109.735 29.9802 110.27 29.2383C110.634 28.7352 110.402 28.108 110.067 27.6814C109.603 27.0923 108.99 26.8472 108.326 26.8472C106.173 26.8472 103.466 29.423 103.414 31.241" fill="white"/>
</mask>
<g mask="url(#mask6_190_3342)">
<path d="M97.0971 22.6571L90.8906 47.5603L113.272 53.0029L119.479 28.0997L97.0971 22.6571Z" fill="url(#paint6_linear_190_3342)"/>
</g>
<mask id="mask7_190_3342" style="mask-type:luminance" maskUnits="userSpaceOnUse" x="110" y="21" width="16" height="19">
<path d="M117.429 23.6186C116.349 23.9975 115.15 24.561 113.999 24.6502C113.548 24.6852 113.123 24.6088 112.697 24.5324C112.178 24.4369 111.666 24.3445 111.118 24.456C110.744 24.5324 110.367 24.9845 110.408 25.3729C110.653 27.5953 112.781 28.2831 114.85 28.3308C114.557 29.4548 114.641 30.8589 114.612 31.7313C114.534 34.097 114.75 36.7078 116.104 38.7392C116.584 39.4587 117.667 39.3314 117.938 38.5035C118.473 36.8638 118.586 35.0681 118.786 33.3646C118.982 31.6867 119.569 29.7859 119.002 28.1462C118.953 28.0029 118.889 27.8723 118.821 27.7482C121.371 27.0381 123.846 25.8028 125.361 23.6281C125.88 22.8799 125.165 22.0616 124.407 21.9884C124.153 21.9629 123.901 21.9502 123.653 21.9502C121.442 21.9502 119.511 22.8895 117.429 23.6218" fill="white"/>
</mask>
<g mask="url(#mask7_190_3342)">
<path d="M111.256 18.3925L106.256 38.4573L124.998 43.0147L129.998 22.95L111.256 18.3925Z" fill="url(#paint7_linear_190_3342)"/>
</g>
<mask id="mask8_190_3342" style="mask-type:luminance" maskUnits="userSpaceOnUse" x="120" y="25" width="13" height="14">
<path d="M124.843 27.0317C124.233 27.4552 123.46 28.0983 122.873 28.8434C122.419 28.3785 121.461 28.3339 121.171 29.0089C120.646 30.222 120.572 31.5624 120.504 32.8711C120.44 34.1924 120.285 35.7016 120.636 36.9879C120.878 37.8762 121.652 38.3092 122.515 38.4016C122.56 38.4079 122.609 38.4111 122.654 38.4175C123.231 38.478 123.834 38.0545 124.114 37.5897C124.833 36.4021 124.262 34.6572 124.098 33.3646C124.063 33.0939 124.03 32.8137 123.995 32.5336C124.73 32.2534 125.178 31.5752 125.848 31.1485C126.757 30.5722 127.934 30.2761 128.981 30.0373C129.932 29.8208 130.986 29.8049 131.676 29.0153C132.408 28.1811 132.156 27.0635 131.402 26.3408C130.78 25.7454 129.984 25.5098 129.139 25.5098C127.611 25.5098 125.932 26.2739 124.843 27.0285" fill="white"/>
</mask>
<g mask="url(#mask8_190_3342)">
<path d="M120.983 22.737L117.244 37.7407L131.717 41.26L135.456 26.2563L120.983 22.737Z" fill="url(#paint8_linear_190_3342)"/>
</g>
<mask id="mask9_190_3342" style="mask-type:luminance" maskUnits="userSpaceOnUse" x="125" y="29" width="14" height="13">
<path d="M129.61 36.6376C128.849 35.9658 130.57 34.7623 131.118 34.307C131.821 33.7211 132.462 33.3199 133.172 32.992C133.201 33.1321 133.239 33.2754 133.297 33.425C133.752 34.5871 133.41 35.1825 132.485 36.0231C131.956 36.5039 131.283 37.0356 130.587 37.0356C130.264 37.0356 129.935 36.921 129.613 36.6376M127.985 32.7914C125.909 34.568 125.046 37.3763 127.125 39.5095C128.008 40.4138 129.259 41.1302 130.503 41.3562C132.105 41.646 133.471 40.9296 134.725 40.0221C137.175 38.2519 139.202 35.2048 138.181 32.0909C137.716 30.6773 136.411 30.2156 135.244 30.413C135.186 30.3557 135.125 30.2984 135.057 30.2474C134.574 29.9004 134.045 29.7539 133.5 29.7539C131.515 29.7539 129.288 31.6802 127.989 32.7914" fill="white"/>
</mask>
<g mask="url(#mask9_190_3342)">
<path d="M125.859 26.5096L122.255 40.9692L138.399 44.895L142.002 30.4354L125.859 26.5096Z" fill="url(#paint9_linear_190_3342)"/>
</g>
<mask id="mask10_190_3342" style="mask-type:luminance" maskUnits="userSpaceOnUse" x="100" y="12" width="5" height="15">
<path d="M102.431 12.3729C101.473 12.841 101.386 13.656 101.18 14.6303C100.942 15.7638 100.761 16.8941 100.661 18.0467C100.484 20.1035 99.9584 23.2684 101.109 25.0705C102.273 26.8981 104.171 25.8856 104.664 24.5356C104.687 24.5579 104.71 24.5802 104.732 24.6025C105.1 23.4403 104.742 22.5106 104.565 21.3516C104.4 20.2564 104.313 19.1484 104.258 18.0435C104.204 16.9451 104.162 15.8466 104.142 14.7481C104.123 13.8312 104.22 13.1593 103.485 12.5035C103.301 12.3411 103.091 12.2615 102.876 12.2615C102.727 12.2615 102.579 12.2965 102.434 12.3697" fill="white"/>
</mask>
<g mask="url(#mask10_190_3342)">
<path d="M100.254 11.0895L96.5215 26.0654L104.809 28.0808L108.542 13.1049L100.254 11.0895Z" fill="url(#paint10_linear_190_3342)"/>
</g>
<mask id="mask11_190_3342" style="mask-type:luminance" maskUnits="userSpaceOnUse" x="100" y="5" width="5" height="5">
<path d="M102.073 5.62297C101.474 5.89679 101.019 6.59089 100.932 7.21813C100.845 7.85174 101.093 8.50763 101.606 8.87697C101.854 9.33227 102.302 9.61883 102.866 9.61246C103.437 9.60928 103.939 9.27496 104.278 8.84513C104.977 7.95044 104.926 6.70551 104.12 5.88406C103.798 5.55293 103.392 5.41602 102.979 5.41602C102.673 5.41602 102.363 5.49243 102.073 5.62297Z" fill="white"/>
</mask>
<g mask="url(#mask11_190_3342)">
<path d="M101.084 4.46815L99.8604 9.37769L104.743 10.565L105.967 5.65547L101.084 4.46815Z" fill="url(#paint11_linear_190_3342)"/>
</g>
<path d="M87.4486 45.8617C87.3261 46.2915 87.4357 46.7341 87.7935 47.0652C88.1513 47.3995 88.6702 47.4887 89.1408 47.4186C90.1207 47.2722 90.8395 46.4603 90.8298 45.4732C90.8234 44.7855 90.3206 44.3111 89.7081 44.1041C89.1666 43.9227 88.4639 44.0882 88.032 44.4289C87.5969 44.7728 87.3519 45.33 87.4518 45.8617" fill="#BCD631"/>
<path d="M129.999 18.6228C129.152 18.8998 128.765 19.6863 128.746 20.5077C128.729 21.2305 129.21 22.0106 129.8 22.399C130.396 22.7906 131.176 22.8639 131.792 22.5391C132.372 22.5168 132.875 22.2143 133.142 21.654C133.413 21.0904 133.323 20.4345 133.052 19.8964C132.488 18.7757 131.208 18.228 129.996 18.6197" fill="#66CDF2"/>
<path d="M136.011 26.0032C135.733 25.9109 135.372 25.9937 135.15 26.172C134.924 26.3503 134.802 26.6368 134.85 26.9075C134.789 27.1303 134.844 27.3564 135.027 27.5251C135.211 27.6971 135.476 27.7416 135.72 27.7066C136.223 27.6302 136.594 27.2131 136.591 26.7069C136.591 26.3534 136.33 26.1083 136.014 26.0032" fill="#66CDF2"/>
<path d="M121.213 41.213C120.671 41.0315 119.969 41.1971 119.537 41.5378C119.101 41.8817 118.856 42.4388 118.956 42.9706C118.834 43.4004 118.944 43.843 119.301 44.1741C119.659 44.5084 120.175 44.5976 120.649 44.5275C121.629 44.3811 122.347 43.5691 122.338 42.5821C122.331 41.8944 121.828 41.42 121.216 41.213" fill="#66CDF2"/>
<path d="M46.0641 33.0908C45.7385 33.2404 45.4903 33.6161 45.4452 33.9568C45.3968 34.3007 45.5322 34.6573 45.8094 34.8547C45.9448 35.103 46.1866 35.2558 46.4928 35.2527C46.8022 35.2527 47.0762 35.0712 47.2567 34.8356C47.637 34.3516 47.608 33.6734 47.1729 33.2308C46.8667 32.9188 46.4315 32.9188 46.0641 33.0876" fill="#FDE9F3"/>
<path d="M50.8612 40.6908C50.3196 40.5093 49.617 40.6749 49.185 41.0156C48.7499 41.3594 48.5049 41.9166 48.6048 42.4483C48.4823 42.8782 48.5919 43.3207 48.9497 43.6519C49.3075 43.9862 49.8232 44.0753 50.2971 44.0053C51.277 43.8588 51.9958 43.0469 51.9861 42.0599C51.9796 41.3722 51.4768 40.8978 50.8644 40.6908" fill="#FDE9F3"/>
<path d="M55.7049 37.3127C54.3447 37.7553 53.7226 39.0193 53.6968 40.3375C53.6742 41.4964 54.4414 42.7509 55.389 43.3718C56.3431 43.9958 57.597 44.1168 58.5865 43.5978C59.5149 43.5628 60.3207 43.0757 60.7526 42.181C61.1878 41.2799 61.0427 40.2261 60.6076 39.36C59.705 37.5643 57.6518 36.6823 55.7049 37.3127Z" fill="#FCDD34"/>
<path d="M29.0936 11.9877C28.4586 11.2235 27.7624 10.5835 27.0017 9.96267C27.4562 10.5453 27.8139 11.1758 27.9751 11.9176C27.2499 10.9242 26.5182 9.89899 25.606 8.95336C24.4391 8.18603 23.1659 7.57789 21.8701 7.08438C22.0313 6.97613 22.1989 6.922 22.3633 6.90927C21.8669 6.80101 21.377 6.70549 20.8903 6.61316C20.7226 6.66729 20.555 6.73096 20.3939 6.79464C20.4583 6.73733 20.6066 6.6641 20.7194 6.5845C19.2174 6.31068 17.6927 6.11646 16.1971 6.25974C16.3131 6.23745 16.355 6.10054 16.3937 5.98592C16.3131 6.01139 16.2326 6.0305 16.152 6.04642C15.9392 6.1292 15.7329 6.22472 15.5267 6.27566C15.7201 6.14512 15.936 6.09099 16.152 6.04642C16.239 6.01139 16.326 5.97637 16.4098 5.94135C16.4485 5.83946 16.5033 5.77578 16.6258 5.85219C17.0287 5.70573 17.422 5.60703 17.7153 5.73439C18.2697 5.97319 18.7822 5.96363 19.2979 5.96363C19.8072 5.96682 20.3197 5.97319 20.7388 6.26292C20.9386 6.37436 20.8548 6.4858 20.7162 6.5845L20.8903 6.61316C21.2738 6.49854 21.6735 6.43167 22.0281 6.53038C22.2215 6.59724 22.4084 6.68002 22.5954 6.76599C22.7823 6.84559 22.9628 6.94111 23.1401 7.03981L23.3625 7.12259L23.2433 7.09712C24.1555 7.60337 24.9323 8.25926 25.606 8.95654C26.0862 9.27175 26.5568 9.60925 27.0017 9.96586C26.357 9.13803 25.5318 8.43119 24.7486 7.61929C25.5479 7.74346 26.3312 8.08733 26.9662 8.59357C26.5955 8.22105 26.1862 7.86763 25.751 7.53332C25.4803 7.19264 25.1869 6.86469 25.0645 6.47306C25.5125 6.83285 25.8896 7.08757 26.3344 7.22448C25.635 6.58132 24.8291 5.94453 23.9169 5.38415C24.4166 5.66434 24.9806 5.88403 25.4899 6.16741C25.9992 6.45078 26.4634 6.80101 26.7406 7.31363C26.5955 7.29452 26.4634 7.26268 26.3344 7.22448C27.6141 8.39617 28.6069 9.56786 29.6222 10.6886C29.6835 9.5201 28.1459 9.28449 27.8655 8.14464C28.6133 8.64452 29.258 9.25265 29.8479 9.88626C30.1025 10.1633 30.3604 10.4626 30.6182 10.7809C30.9534 10.4243 31.2919 10.0677 31.6303 9.71432C31.366 9.31951 31.1114 8.94062 30.8793 8.57765C30.3378 7.73709 29.764 6.83285 29.0581 5.94135C29.6964 5.88403 29.9123 6.19606 29.9993 6.55585C30.0928 6.91563 30.067 7.32955 30.283 7.5174C30.9277 8.00136 31.4466 8.48532 32.001 9.08709C32.0397 9.12848 32.0784 9.17305 32.1138 9.21763C32.4942 8.826 32.881 8.43756 33.2646 8.0523C33.1227 7.88674 32.9841 7.72436 32.8423 7.57789C32.5973 7.31999 32.362 7.09712 32.0977 6.87106C31.8334 6.64818 31.5498 6.43486 31.2403 6.23427C29.9155 5.64842 28.6713 4.86199 27.237 4.19336C26.5794 3.62343 25.4222 2.93251 24.8614 2.88794C23.2981 2.90386 21.8121 3.12355 20.4164 3.41329C19.0175 3.69985 17.7056 4.08192 16.4098 4.44489C15.2366 4.65503 14.0504 5.07531 12.9641 5.65161C11.8746 6.22153 10.8819 6.90927 9.95032 7.62247C9.01233 8.33249 8.12914 9.06161 7.19761 9.77482C6.26284 10.488 5.27006 11.1853 4.10645 11.9017C4.42555 11.7871 4.71565 11.6215 4.99608 11.4368C5.28618 11.2585 5.55371 11.0516 5.83737 10.8669C6.39822 10.4944 6.97197 10.176 7.60052 10.1633L7.69077 10.5517C8.14204 10.6663 8.67066 10.383 9.06391 10.3607C9.10581 10.5517 8.91241 10.5644 8.71901 10.5867C8.91241 10.5644 8.91563 10.5676 9.10581 10.5485C8.80926 10.9497 8.13881 11.3891 7.72301 11.8635C7.30075 12.3315 7.13636 12.7741 7.77136 12.9556C8.08402 13.0479 8.37412 13.032 8.65455 12.9556C8.9253 12.876 9.18962 12.7359 9.4507 12.5735C9.96966 12.2487 10.4951 11.8348 11.0366 11.6088C11.043 12.2074 10.7561 12.5512 10.4435 12.9142C10.1308 13.2676 9.76014 13.6274 9.68601 14.0795C10.0277 13.9999 10.4532 14.0827 10.6917 13.9012C11.0011 13.6752 11.3363 13.4841 11.6587 13.309C11.865 13.0638 11.8972 12.6754 12.5838 12.9015L12.6708 12.8696C12.6772 12.7996 12.6063 12.6627 12.6418 12.6149C12.919 12.5226 13.1833 12.7423 13.2284 12.3857C13.2832 12.443 13.3122 12.4939 13.3348 12.5385C13.3316 12.4079 13.5185 12.4334 13.4734 12.236C13.5701 12.3443 13.6668 12.4557 13.7571 12.5353C14.3663 12.3857 14.94 12.2901 15.4719 12.2137C15.633 12.1978 15.7813 12.1628 15.9296 12.15C16.0359 12.0832 16.1552 12.0354 16.2906 12.0291C16.3486 12.0004 16.3228 11.6979 16.3357 11.6183C16.4517 11.6916 16.5613 11.7648 16.6677 11.8285C16.7773 11.8953 16.8869 11.959 16.9933 11.9972C17.0094 11.9144 17.0738 11.8985 17.1158 11.7393C17.1705 11.8508 17.2253 11.9495 17.2769 12.0291C17.5283 12.0163 17.7798 12.0195 18.028 12.0291V11.994C18.2761 11.9335 18.5791 12.045 18.8499 12.0959C19.1271 12.1405 19.3785 12.1055 19.6461 11.7011C19.6815 11.9877 19.7299 12.2074 19.8008 12.3602C20.0554 12.4653 20.3004 12.5799 20.5164 12.7391C20.5808 12.6563 20.6195 12.5226 20.6614 12.4302C20.7259 12.5831 20.7549 12.7836 20.7903 12.9588C20.9483 13.0957 21.1062 13.2676 21.2545 13.465C21.3351 13.4491 21.4285 13.4109 21.5446 13.3568C21.4833 13.4969 21.4479 13.6147 21.4318 13.7134C21.4866 13.7961 21.5381 13.8789 21.5897 13.9713C21.7315 14.2069 22.1119 14.5125 22.5922 14.8914C22.6985 14.85 22.792 14.8118 22.7856 14.8468C22.9016 14.9774 23.0112 15.1175 23.095 15.2703C23.6011 15.6524 24.033 15.9358 24.2973 16.0345C24.5133 16.0472 24.8034 15.6492 25.0419 15.1716C25.2869 14.7004 25.4738 14.1559 25.6672 14.0413C26.4344 13.6752 26.8244 13.7739 27.1661 14.0095C27.2789 14.0891 27.3852 14.1814 27.4981 14.2769C28.0783 13.5892 28.6713 12.9078 29.2741 12.236C29.2096 12.1532 29.1516 12.0673 29.0871 11.9877" fill="#F5A326"/>
<path d="M24.1944 25.2519C24.1106 24.6055 23.7786 24.2839 23.2919 23.9082C22.6924 23.4498 22.0445 23.0486 21.3579 22.727C23.2726 19.5653 25.5869 16.4896 28.1237 13.5509C27.9979 13.5031 27.869 13.4649 27.7401 13.4299C27.4596 13.3566 27.1792 13.3184 26.902 13.3089C25.7126 12.8599 24.4265 12.6148 23.0792 12.6148C21.8382 12.6148 20.652 12.8249 19.5432 13.207C19.2724 12.9555 18.9565 12.6976 18.5794 12.4397C18.3473 12.2868 18.1056 12.1404 17.8574 12.0066C17.606 11.8697 17.2998 11.736 17.0129 11.6214C16.7325 11.5068 16.3908 11.4081 16.0717 11.3253C15.7461 11.2393 15.4173 11.1852 15.0789 11.147C14.3859 11.0642 13.7831 11.0833 13.1288 11.1597C12.4712 11.2457 11.8685 11.4112 11.3624 11.6023C10.7854 11.8061 10.3052 12.048 9.91836 12.2709C9.53478 12.497 9.23179 12.7071 8.99004 12.8886C8.96103 12.9109 8.93847 12.9268 8.91268 12.9459C8.97393 12.8536 9.02872 12.7549 9.09319 12.6625C9.25758 12.4301 9.42197 12.1945 9.58636 11.9748C9.75397 11.7742 9.91514 11.615 10.0602 11.5068C10.2052 11.3953 10.3342 11.3508 10.4083 11.3635C10.4276 11.3635 10.4405 11.3762 10.4534 11.3858C10.3922 11.3125 10.3181 11.2425 10.26 11.1629C10.2794 11.1884 10.2987 11.2107 10.3181 11.2361C10.4341 11.3603 10.3632 11.2903 10.3567 11.2903C10.3374 11.2807 10.3116 11.2807 10.2858 11.2743C10.173 11.2743 10.0054 11.3348 9.82488 11.4399C9.64115 11.5418 9.44131 11.6851 9.23179 11.8347C9.02872 12.0035 8.81921 12.1563 8.60647 12.2868L8.55812 11.6309C8.26802 11.6946 7.91346 11.9939 7.55244 12.3441C7.36549 12.5161 7.21077 12.7167 7.05605 12.9045C6.90133 13.0892 6.75306 13.2643 6.61768 13.4044C6.579 13.1083 6.77885 12.8568 7.00448 12.6211C6.83364 12.7931 6.79819 12.8313 6.56933 13.0637C6.76918 12.4333 7.214 11.7233 7.66848 11.0133C8.14231 10.3255 8.72896 9.77151 9.18989 9.60276C9.30271 9.555 9.41552 9.52635 9.50577 9.50725C9.56057 9.50725 9.61859 9.49769 9.68628 9.50088C9.82166 9.50088 9.96349 9.51998 10.0795 9.52635C10.1923 9.53272 10.2955 9.5168 10.389 9.47222C10.4857 9.42446 10.5985 9.34486 10.6791 9.19203C10.7596 9.03921 10.7725 8.85454 10.6694 8.65395C10.5727 8.45336 10.36 8.24959 10.0344 8.09676C9.87323 8.02034 9.67983 7.96621 9.46387 7.93438C9.25436 7.91209 8.98682 7.91527 8.75474 7.96621C8.27447 8.049 7.77485 8.28143 7.34293 8.59664C6.90456 8.91185 6.53065 9.30666 6.19865 9.72057C5.85698 10.1345 5.60234 10.5611 5.31546 10.9973C5.17686 11.2138 5.03181 11.4335 4.89965 11.6532C4.77717 11.8793 4.65791 12.1053 4.53864 12.3282C4.41616 12.5543 4.29689 12.7772 4.17763 12.9937C4.06159 13.2134 3.97134 13.4394 3.86819 13.6559C3.87142 13.449 3.88753 13.242 3.90687 13.0319C3.93911 12.8249 3.98423 12.6211 4.03258 12.411C4.13895 12.0003 4.23565 11.5704 4.41293 11.1661C4.77394 10.351 5.11562 9.56456 5.81185 8.69534C6.15352 8.27187 6.57578 7.83249 7.13341 7.45678C7.41062 7.26893 7.71683 7.097 8.05528 6.96327C8.22612 6.89322 8.38084 6.84228 8.58391 6.78497C8.79664 6.72766 9.00938 6.68945 9.21245 6.67035C10.0408 6.59393 10.779 6.74039 11.472 7.05242C11.8169 7.20844 12.1521 7.41539 12.4616 7.70195C12.7678 7.98213 13.0579 8.3451 13.2319 8.79404C13.1513 8.34192 12.987 7.98532 12.8 7.651C12.6131 7.33579 12.3906 7.04605 12.1231 6.79771C11.5816 6.30738 10.8757 5.84571 9.58958 5.78521C9.18344 5.76929 8.75152 5.8075 8.3067 5.91257C8.18744 5.93804 8.10041 5.96351 8.0166 5.98898L7.75551 6.06858C7.5879 6.12908 7.41707 6.19276 7.25912 6.2628C6.61768 6.54936 6.06972 6.92506 5.63457 7.30395C4.76105 8.0681 4.20664 8.83862 3.76505 9.48814C3.41693 10.1854 3.10427 10.8509 2.83673 11.5099C2.69168 11.8347 2.52729 12.1499 2.32745 12.4524C2.1405 12.7581 1.93098 13.0605 1.657 13.3535C1.6022 13.4808 1.55063 13.6082 1.49583 13.7355C1.47972 13.8724 1.49261 14.0157 1.49906 14.1526C1.51517 14.2927 1.52806 14.4328 1.49906 14.5665C1.30566 15.1524 1.09936 15.4931 0.941421 15.8656C0.806042 16.2381 0.722236 16.6457 0.773809 17.3398C0.686779 17.3461 0.628759 17.2888 0.583633 17.206C0.628759 17.6295 0.451477 18.2758 0.631983 18.7502C0.470817 18.7693 0.309651 18.7853 0.174272 18.8808C-0.238313 21.9119 0.0550089 25.064 1.00589 28.1429C1.1316 28.6046 1.32177 29.0471 1.49261 29.4929C1.66667 29.9355 1.83428 30.3812 2.05669 30.8047C2.25653 31.1581 2.4596 31.5179 2.6659 31.884C2.87219 32.247 3.11394 32.6036 3.3299 32.9793C3.58132 33.3391 4.05192 33.5015 4.25499 33.6097C4.50319 34.1096 4.75783 34.6127 5.04148 35.1348C5.35737 35.6379 5.71193 36.1505 6.12451 36.695C6.32436 36.7905 6.68215 37.1375 7.25912 37.4241C7.44607 37.7489 7.71361 38.1023 8.1133 38.4716C8.70961 38.8601 9.47032 39.2581 10.389 39.5287C10.5018 39.5637 10.621 39.5924 10.7371 39.6242C10.8531 39.6529 10.9659 39.6815 11.1271 39.7102C11.4301 39.7707 11.7266 39.8089 12.0135 39.8312C12.5937 39.8757 13.1513 39.8566 13.6961 39.7834C14.7823 39.6306 15.8654 39.2867 16.9613 38.5512C17.506 38.1819 18.0508 37.6884 18.5149 37.077C18.689 36.8478 18.8405 36.5963 18.9823 36.3384C19.1145 36.4721 19.2466 36.609 19.3885 36.7364L19.9751 37.2808C20.0525 37.3541 20.2233 37.5005 20.3748 37.6247C20.5295 37.752 20.7036 37.8826 20.8841 38.0163C20.6262 37.7903 20.4038 37.5706 20.2201 37.3636L20.1492 37.284L20.104 37.2235L20.0202 37.1025C19.9687 37.0229 19.9139 36.9433 19.8623 36.8637C19.6624 36.5421 19.4787 36.2301 19.3562 35.9054C19.3111 35.8894 19.266 35.8608 19.2241 35.8417C19.3498 35.5488 19.4626 35.2463 19.5367 34.9374C19.6367 34.5267 19.6786 34.1032 19.6657 33.6798C18.8244 34.2083 17.8896 34.6031 16.9097 34.8642C15.3432 35.2813 13.6574 35.3609 12.0522 35.1189C9.18022 34.6827 6.54999 33.2149 5.28968 30.7824L5.22199 30.655C5.24455 30.7028 5.28323 30.776 5.22199 30.655C4.97379 30.187 4.85453 29.9609 5.12529 29.5056C5.42828 28.9962 5.69904 29.0185 6.22121 29.0662C6.22444 29.0662 6.22766 29.0662 6.39527 29.079C9.62181 29.2955 9.99572 28.7924 11.3302 26.9776C11.6106 26.5955 11.9297 26.1625 12.3584 25.618C12.4422 25.513 12.5002 25.4365 12.5421 25.392C13.9926 23.6567 15.7526 22.8448 17.5673 22.7779C19.3466 22.7111 21.1516 23.3765 22.7439 24.596C23.0244 24.8125 23.2661 24.9749 23.3145 25.3601C23.7174 28.509 22.7729 30.8906 21.1194 32.5399C20.8067 32.8519 20.4651 33.1353 20.104 33.3932C20.9421 33.632 21.8156 33.7753 22.7246 33.8039C22.7246 33.8039 22.7278 33.804 22.731 33.8071C22.9373 33.9472 23.163 34.0873 23.4176 34.221C23.9237 34.4726 24.5683 34.7591 25.4773 34.74C25.9254 34.7273 26.4153 34.6031 26.8118 34.3675C27.2179 34.1383 27.5563 33.7817 27.7465 33.4219C27.9593 33.0334 27.9367 32.9061 27.8916 32.922C27.84 32.9347 27.724 33.0907 27.5402 33.2722C27.363 33.4569 27.089 33.6543 26.8408 33.7435C26.5926 33.8422 26.3927 33.8358 26.3508 33.7785C26.4701 33.6034 26.5861 33.4091 26.6699 33.2022C26.7634 33.1703 26.8537 33.1353 26.9439 33.1003C26.8923 33.1958 26.8343 33.2882 26.7602 33.3709C26.8569 33.285 26.9278 33.1831 26.9923 33.078C29.8449 31.97 32.1045 29.6935 33.1553 26.8407C33.181 26.8661 33.2068 26.9012 33.2294 26.9266C33.4453 26.8661 33.6484 27.0062 33.8321 27.1177C34.0159 27.2323 34.1867 27.3151 34.3318 27.2164C34.1319 26.9839 33.8483 26.6401 33.5098 26.1561C33.4808 26.1147 33.4486 26.067 33.4163 26.0224C33.426 25.9874 33.4357 25.9555 33.4454 25.9205C33.5517 26.0447 33.6549 26.1529 33.7548 26.2548C33.6581 26.1529 33.5549 26.0351 33.4486 25.9078C33.6774 25.0481 33.7999 24.1439 33.7999 23.211C33.7999 22.2781 33.6742 21.3706 33.4454 20.5078C30.5025 22.9149 27.4339 25.0927 24.2879 26.8789C24.2944 26.3408 24.2621 25.7963 24.1912 25.2487M8.92558 26.414C8.92558 26.414 8.91591 26.3885 8.90946 26.3758C8.91591 26.3885 8.91913 26.4013 8.92558 26.414ZM7.43318 19.543C7.72328 18.9222 8.06173 18.2981 8.45175 17.69C8.48398 17.69 8.51622 17.69 8.54845 17.6932C8.11975 18.2822 7.74584 18.8999 7.43318 19.5399M8.41307 23.6981C8.46142 23.0772 8.57101 22.4659 8.73218 21.8641C8.78053 21.8928 8.82565 21.9246 8.87723 21.9501C8.64515 22.5742 8.51299 23.3192 8.51299 24.1216C8.51299 24.9239 8.64837 25.6721 8.88045 26.2994C8.55812 25.4875 8.36794 24.5992 8.41307 23.7013M9.43164 27.9646C9.24469 27.6589 9.05773 27.3533 8.89334 27.0349C8.94492 26.9457 9.06418 27.0635 9.19634 27.2355C9.14476 27.0763 9.11253 26.9107 9.07063 26.7451C9.0674 26.7388 9.06418 26.7292 9.06096 26.7229C9.06096 26.7292 9.0674 26.7324 9.07063 26.7388C9.07063 26.7388 9.07063 26.742 9.07063 26.7451C9.1641 26.9489 9.26403 27.1463 9.37362 27.3405C9.47676 27.5379 9.5928 27.7258 9.71207 27.9136C9.58636 27.7927 9.37039 27.4679 9.19311 27.2355C9.2608 27.4806 9.34461 27.7226 9.42841 27.9646" fill="#FCDD34"/>
<path d="M22.7498 24.596C22.8239 24.6533 22.8948 24.7074 22.9625 24.7647L23.0238 24.6405C23.3268 24.6023 23.6265 24.5609 23.9295 24.5323C23.6684 24.4941 23.4073 24.4463 23.1463 24.3954L23.3042 24.077C23.3816 24.0833 23.4557 24.0993 23.5331 24.1056C23.4557 24.0388 23.3751 23.9751 23.2913 23.9082C22.6918 23.4497 22.0439 23.0486 21.3573 22.727C23.1592 19.75 25.3188 16.8494 27.6815 14.0666C27.6041 14.0316 27.5267 13.9934 27.4494 13.9584C27.5461 13.9711 27.6428 13.9839 27.7395 13.9998C29.5091 11.9207 31.3915 9.91158 33.3319 7.98211C33.2449 7.91207 33.1579 7.83883 33.0709 7.76879C32.7324 7.66372 32.0458 7.26891 31.1465 6.80724C30.2311 6.33601 28.974 5.72469 27.4333 5.3267C25.9248 4.94144 24.3743 4.84274 23.0592 4.93189C21.7441 5.01786 20.6611 5.26939 20.0229 5.41267L19.8037 5.49863C19.1203 5.69604 18.3854 6.01762 17.744 6.45063C17.1219 6.87728 16.5191 7.45676 16.1742 8.06171C15.8906 8.67621 15.7294 9.34166 15.6553 9.98482C15.9679 9.89885 16.2709 9.84791 16.5449 9.83517C16.1646 10.2045 15.8422 10.6375 15.9196 10.9273C15.8519 11.5386 16.0775 11.7678 16.3773 11.8602C16.6803 11.9525 17.0864 11.927 17.5087 12.0098C17.7182 12.0098 17.8955 12.1531 18.0792 12.2804C18.2629 12.4078 18.4596 12.5192 18.6852 12.5033C18.5627 12.6657 18.4982 12.7517 18.3983 12.9332C18.5401 13.0255 18.5659 12.8631 18.6207 12.7294C18.682 12.5988 18.7593 12.5001 18.9463 12.7166C18.7368 12.7994 18.8141 13.0955 18.7335 13.2579C18.9463 13.3311 19.0398 13.2102 19.1461 13.1115C19.2493 13.0096 19.3556 12.93 19.5297 13.0732C19.5458 13.1369 19.3589 13.1433 19.2267 13.1942C19.0881 13.242 19.0172 13.328 19.2525 13.4712C19.3492 13.5286 19.4266 13.3916 19.4717 13.328C19.4491 13.4681 19.4717 13.605 19.5265 13.726C19.4878 13.7451 19.4491 13.761 19.4072 13.7833L19.4298 13.8087C18.5337 14.3468 17.7408 15.0346 17.0896 16.0184C16.7673 16.5119 16.4837 17.0978 16.2999 17.7887C16.1162 18.4732 16.0485 19.2819 16.1742 20.0907C16.2999 20.9185 16.6029 21.6412 16.9414 22.1825C17.0896 22.4181 17.2411 22.6187 17.3862 22.7907C17.4474 22.7875 17.5087 22.7747 17.5731 22.7747C19.3524 22.7079 21.1575 23.3733 22.7498 24.5928M22.2856 19.2374C22.2631 19.231 22.2405 19.2246 22.2212 19.2214C22.2341 19.2214 22.247 19.2246 22.2598 19.2278C22.2695 19.2278 22.276 19.2342 22.2856 19.2374ZM22.2566 19.1132C22.2566 19.1132 22.2405 19.1227 22.2341 19.1259C22.2244 19.1323 22.2212 19.1323 22.2147 19.1355C22.2276 19.1291 22.2437 19.1196 22.2598 19.11M22.1696 19.1578C22.1696 19.1578 22.147 19.1673 22.1374 19.1737C22.147 19.1705 22.1599 19.1641 22.1696 19.1578ZM22.1567 19.2087C22.1406 19.2087 22.1245 19.2055 22.1116 19.2055C22.1245 19.2055 22.1406 19.2055 22.1567 19.2087ZM22.1116 19.1832C22.1116 19.1832 22.1116 19.1832 22.1084 19.1832L22.0374 19.2055C22.0342 19.2055 22.0471 19.2055 22.0536 19.2055C22.0536 19.2055 22.0632 19.2055 22.0665 19.2055C22.0568 19.2055 22.0439 19.2055 22.0374 19.2055L22.1116 19.1832Z" fill="#FDE9F3"/>
<path d="M30.1253 24.0643C29.9513 24.1439 29.6934 24.1757 29.4355 24.2076C29.5161 24.2521 29.8546 24.3922 29.8514 24.4336C29.7901 24.5005 29.7772 24.5801 29.7837 24.6629C29.99 24.4241 30.1415 24.1757 30.2672 23.9242C30.1543 23.9178 30.0286 23.9051 29.8836 23.886C30.0512 23.9751 30.048 24.0197 30.1318 24.0643" fill="#BCD631"/>
<path d="M24.2776 13.9871C23.8747 13.9489 24.1164 13.8788 23.8199 13.8247C23.5685 13.9393 23.4621 14.0444 23.5072 14.1749L23.417 13.9139C23.4911 14.1304 23.4266 14.3692 23.6652 14.6016C23.6974 14.6812 22.4081 14.7735 23.3396 14.885C23.7747 14.5666 24.2776 14.28 24.2808 13.9839" fill="#BCD631"/>
<path d="M24.3069 13.6114C24.3069 13.5827 24.3005 13.5541 24.2908 13.5222C24.236 13.5445 24.265 13.5763 24.3069 13.6114Z" fill="#BCD631"/>
<path d="M25.7088 15.3754C25.841 15.2416 25.957 15.1143 26.0569 14.9933C26.0118 14.9774 25.957 14.9646 25.8796 14.9519C25.4058 15.1015 25.8055 15.2385 25.7088 15.3786" fill="#BCD631"/>
<path d="M27.2597 14.4709C26.8503 14.5696 26.6891 14.6906 26.731 14.8053C26.7987 14.6875 26.9406 14.5728 27.2597 14.4709Z" fill="#BCD631"/>
<path d="M30.4123 23.4848L30.451 23.4976C30.5767 23.1855 30.6863 22.8735 30.8249 22.571C30.7443 22.6315 30.6605 22.692 30.58 22.7557C30.783 23.0423 30.364 23.2365 30.4156 23.488" fill="#BCD631"/>
<path d="M10.2079 35.7781L11.2361 37.628C11.7003 38.4654 12.2611 39.1308 12.8736 39.7166C13.4925 40.2961 14.1726 40.7928 14.9526 41.2131C14.3176 40.8087 13.673 40.3343 13.0541 39.7517C12.4352 39.1658 11.8324 38.4781 11.3264 37.5739L10.3594 35.8482C10.2691 35.6826 10.1918 35.5107 10.1273 35.3324C10.0403 35.0904 9.98549 34.8452 9.9597 34.6C9.90813 34.5809 9.85655 34.5587 9.80176 34.5396C9.85655 34.9598 9.98871 35.3801 10.2111 35.7781" fill="#66CDF2"/>
<path d="M13.6704 36.45L13.3223 36.7079C13.3384 36.7238 13.3577 36.7429 13.3771 36.7588L13.7187 36.5073C13.7026 36.4913 13.6865 36.4691 13.6704 36.45Z" fill="#66CDF2"/>
<path d="M12.2974 41.7032C11.4883 41.9643 11.1209 42.7189 11.1048 43.499C11.0919 44.1867 11.5464 44.9318 12.1104 45.3011C12.6777 45.6736 13.4223 45.7437 14.009 45.4348C14.5602 45.4125 15.0404 45.126 15.2951 44.5943C15.5529 44.0594 15.4691 43.4321 15.208 42.9195C14.673 41.8529 13.4513 41.3275 12.2974 41.7032Z" fill="#66CDF2"/>
<path d="M9.71465 10.3574C9.70176 10.3893 9.69531 10.4052 9.69531 10.4052C9.69531 10.4052 9.70176 10.3924 9.71465 10.3574Z" fill="#FCDD34"/>
<path d="M9.65361 9.90212L9.65039 9.89575L9.66006 9.92122L9.65361 9.90212Z" fill="#FCDD34"/>
<path d="M9.9668 10.7395C10.0216 10.886 10.0377 10.9337 9.9668 10.7395V10.7395Z" fill="#FCDD34"/>
<path d="M10.2439 11.1534C10.2439 11.1534 10.2503 11.163 10.2567 11.1662C10.2439 11.1503 10.2277 11.128 10.2148 11.1152C10.2245 11.128 10.2342 11.1407 10.2471 11.1534" fill="#FCDD34"/>
<path d="M9.90188 10.5708C9.87287 10.4912 9.83097 10.3861 9.78906 10.2715C9.82774 10.3734 9.86642 10.4753 9.90188 10.5708Z" fill="#FCDD34"/>
<path d="M9.77652 10.2395C9.72817 10.1154 9.68949 10.0039 9.66371 9.93388C9.65404 9.90523 9.64759 9.88931 9.64114 9.87657C9.52833 9.57091 9.57345 9.69827 9.66371 9.93388C9.69916 10.0262 9.73784 10.1313 9.77652 10.2395Z" fill="#FCDD34"/>
<path d="M9.9248 10.6343C9.93125 10.6566 9.94092 10.6757 9.94737 10.6948C9.94737 10.6948 9.9377 10.6661 9.9248 10.6343Z" fill="#FCDD34"/>
<path d="M9.72461 10.3384C9.73428 10.3161 9.7504 10.2843 9.76974 10.2556C9.76329 10.2715 9.7504 10.2875 9.74395 10.3002C9.73428 10.3193 9.73428 10.3257 9.72783 10.3384" fill="#FCDD34"/>
<path d="M9.9502 10.698C9.9502 10.698 9.9502 10.6948 9.9502 10.6917C9.9502 10.6917 9.9502 10.6948 9.9502 10.698C9.95664 10.7171 9.95986 10.7267 9.96309 10.7362C9.95986 10.7235 9.95342 10.7139 9.9502 10.698V10.7044V10.6948" fill="#FCDD34"/>
<path d="M9.7666 10.2554C9.7666 10.2554 9.77305 10.2459 9.77627 10.2395C9.77305 10.2459 9.76982 10.2522 9.7666 10.2586" fill="#FCDD34"/>
<path d="M9.95312 10.7107V10.7234C9.95312 10.7234 9.96602 10.7425 9.97569 10.7616C9.96924 10.7489 9.9628 10.733 9.95957 10.7266L9.95312 10.7107Z" fill="#FCDD34"/>
<path d="M10.0924 10.9496C10.1085 10.9751 10.1278 11.0006 10.144 11.0229C10.1085 10.9751 10.0795 10.9305 10.0537 10.8923C10.0666 10.9146 10.0795 10.9337 10.0924 10.9496Z" fill="#FCDD34"/>
<path d="M10.0146 10.8286C10.0275 10.8509 10.0404 10.87 10.0533 10.8923C10.0372 10.8668 10.0243 10.8477 10.0146 10.8286Z" fill="#FCDD34"/>
<path d="M10.0019 10.8062C10.0019 10.8062 10.0115 10.8189 10.0148 10.8253C10.0083 10.8126 10.0019 10.7998 9.99219 10.7871C9.99541 10.7935 9.99863 10.7998 10.0019 10.8062Z" fill="#FCDD34"/>
<path d="M9.65143 9.89675V9.89333L9.64453 9.88306L9.65143 9.89675Z" fill="#FCDD34"/>
<path d="M10.4053 9.69189C10.3763 9.70145 10.2796 9.72692 10.1636 9.81607C10.1475 9.8288 10.1314 9.84472 10.1152 9.85746C10.1539 9.82562 10.1958 9.79378 10.2313 9.77468C10.3248 9.71737 10.3828 9.69826 10.4053 9.69508" fill="#FCDD34"/>
<path d="M10.4053 9.68875C10.4189 9.68539 10.4189 9.68875 10.4053 9.68875V9.68875Z" fill="#FCDD34"/>
<path d="M9.71484 10.3575C9.71484 10.3575 9.72129 10.3447 9.72451 10.3384C9.72451 10.3384 9.72451 10.3447 9.72129 10.3447C9.72129 10.3511 9.72129 10.3511 9.71807 10.3575" fill="#FCDD34"/>
<path d="M9.64482 9.87731C9.63792 9.86019 9.63792 9.86362 9.64482 9.87731V9.87731Z" fill="#FCDD34"/>
<path d="M9.69532 10.0835C9.68565 10.0293 9.67276 9.98159 9.66309 9.93701C9.68887 10.0262 9.71144 10.1503 9.70821 10.2427C9.70821 10.2363 9.70821 10.2331 9.70821 10.2268C9.70821 10.1822 9.70177 10.1312 9.69532 10.0835Z" fill="#FCDD34"/>
<path d="M9.05134 3.75393C9.42524 3.99909 9.91519 4.04685 10.302 3.84308C10.663 3.83035 10.9789 3.63931 11.1497 3.28907C11.3206 2.93566 11.2625 2.52493 11.0917 2.18743C10.7371 1.48378 9.93775 1.13991 9.17705 1.38826C8.6452 1.56019 8.40345 2.0537 8.39378 2.5695C8.38411 3.02162 8.68388 3.51195 9.05456 3.75393" fill="#FCDD34"/>
<path d="M2.80129 5.76293C2.99791 5.89347 3.259 5.91894 3.46529 5.81069C3.65869 5.80432 3.82308 5.70243 3.91334 5.51776C4.00359 5.32991 3.97458 5.1134 3.88433 4.93192C3.69737 4.55939 3.2719 4.37791 2.86898 4.50845C2.58855 4.60078 2.4564 4.86187 2.45317 5.13569C2.44995 5.37448 2.60789 5.63557 2.80451 5.76293" fill="#FCDD34"/>
<path d="M27.5075 24.9049C27.169 25.1278 26.8306 25.3475 26.4889 25.564C26.3987 25.6213 26.3084 25.6754 26.2149 25.7327C25.9474 25.9015 25.6799 26.067 25.4091 26.2294C25.0384 26.4523 24.6645 26.672 24.2906 26.8853C24.2971 26.3472 24.2616 25.8028 24.1939 25.2551C24.1101 24.6088 23.7781 24.2872 23.2914 23.9115C22.6918 23.453 22.044 23.0518 21.3574 22.7303C21.6539 22.2431 21.9602 21.7592 22.276 21.2752C22.3502 21.1606 22.4243 21.0491 22.4984 20.9345C22.7885 20.4919 23.0883 20.0494 23.3945 19.6132C23.4171 19.5781 23.4429 19.5431 23.4654 19.5113C24.1971 18.467 24.9675 17.4354 25.7669 16.4165C25.7443 16.3974 25.725 16.3783 25.7121 16.356C25.7056 16.3719 25.7024 16.391 25.6992 16.4069C25.5864 16.391 25.4703 16.3815 25.3543 16.3815C25.2963 16.3815 25.2415 16.3846 25.1867 16.391C25.2512 16.2286 25.2834 16.0726 25.2608 15.923C24.455 16.1299 25.4252 16.2095 24.7773 16.4292C24.4905 16.2095 24.5678 15.923 24.5453 15.6587C24.5227 15.3881 24.4002 15.1365 23.704 14.885C23.6363 15.076 23.5718 15.2671 23.2205 15.4868C23.2882 15.4454 23.2108 15.4072 23.1528 15.3658C23.1786 15.5027 23.1334 15.6332 23.2011 15.7701C23.1882 15.7701 23.1818 15.7701 23.1721 15.7701C23.1979 15.9898 22.9787 16.235 22.7144 16.4929C22.679 16.4834 22.6467 16.477 22.6113 16.4674C22.3856 16.2541 22.405 16.0089 22.3083 15.7956L22.4308 16.0631C22.3695 15.9293 22.463 15.8052 22.6951 15.6523C22.9981 15.6746 22.7692 15.7765 23.1721 15.767C23.1496 15.5855 22.9723 15.4199 22.5242 15.2543C22.2341 15.092 21.4283 15.1493 21.077 15.2321C21.077 15.2321 21.077 15.2321 21.0705 15.2352C20.9641 15.2607 20.8997 15.2894 20.9061 15.3117C21.0028 15.56 20.8674 15.8179 20.803 16.0694C20.4065 15.9166 20.6902 15.8466 20.3711 15.6874C20.0229 15.837 19.8457 15.9898 19.836 16.2255L19.8521 15.7542C19.8424 16.0153 19.7586 16.2764 19.749 16.5598C19.6168 16.6999 19.4427 16.8304 19.1849 16.9355C19.2848 16.8941 19.2203 16.7986 19.1784 16.7062C19.1526 16.8336 19.1043 16.9514 19.0656 17.0756C19.0334 17.0788 19.0044 17.0851 18.985 17.0947C18.956 16.8559 18.8174 16.5884 18.5273 16.2796C18.2018 15.7956 16.6675 15.5791 16.6642 15.7319C16.6385 16.5152 15.6038 16.9227 16.0873 17.8047C16.5837 18.2982 16.7416 18.7026 16.8963 19.1037C16.7738 19.2088 16.6513 19.3489 16.6449 19.4826C15.5651 20.0653 14.8398 21.1319 14.8398 22.3546C14.8398 22.7271 14.9108 23.0837 15.0332 23.4148C15.4394 23.2174 15.8584 23.0678 16.2807 22.9627C16.2871 22.9627 16.2968 22.9627 16.3032 22.9595C16.5063 22.9117 16.7094 22.8704 16.9157 22.8417C17.1316 22.8099 17.3508 22.7908 17.57 22.7844C19.3493 22.7175 21.1543 23.383 22.7434 24.6024C23.0238 24.8189 23.2656 24.9813 23.3139 25.3666C23.3365 25.5576 23.3558 25.7423 23.372 25.9269C23.3784 26.0097 23.3816 26.0925 23.3849 26.1753C23.3913 26.274 23.3977 26.3695 23.401 26.4682C23.401 26.5765 23.401 26.6815 23.401 26.7866C23.401 26.8535 23.401 26.9203 23.401 26.9872C23.401 27.1082 23.3913 27.2292 23.3849 27.347C23.3849 27.3916 23.3816 27.4393 23.3784 27.4807C23.3687 27.6144 23.3558 27.745 23.3397 27.8723C23.3397 27.901 23.3333 27.9296 23.3301 27.9583C23.3139 28.0984 23.2914 28.2353 23.2688 28.3722C23.2688 28.3881 23.2656 28.4009 23.2624 28.4168C23.2366 28.5601 23.2076 28.7033 23.1753 28.8434C23.1753 28.8498 23.1753 28.853 23.1721 28.8594C23.1367 29.0058 23.1012 29.1491 23.0593 29.2892C23.2946 29.1841 23.5267 29.0568 23.7459 28.9039C23.8039 28.8625 23.8522 28.8052 23.849 28.6906C23.9522 28.8339 24.0553 28.974 24.1585 29.0759C24.6452 28.9453 25.1061 28.7511 25.538 28.5123C25.9538 28.2799 26.3471 27.9965 26.663 27.7131C26.8596 27.5348 27.0175 27.3725 27.1755 27.1942C27.2432 27.0254 27.3334 26.8471 27.4462 26.7134C27.4785 26.6274 27.1916 26.3982 27.1271 26.3217C27.4333 26.239 27.746 26.1403 27.9684 25.9843C27.9297 25.946 27.9168 25.9047 27.8911 25.8537C28.0329 25.7932 28.1747 25.7327 28.3101 25.669C28.3939 25.6277 28.4777 25.5863 28.5615 25.548C28.4809 25.5289 28.3907 25.5035 28.294 25.4748C28.3617 25.3315 28.4229 25.1946 28.4809 25.0641L28.4422 25.0514C28.4358 24.6725 28.9225 24.4942 28.6002 24.1694C28.2488 24.4114 27.8943 24.6502 27.5397 24.8858C27.5268 24.8953 27.5139 24.9017 27.501 24.9113M19.0044 17.3971C19.0044 17.3971 18.9818 17.3876 18.9721 17.3844C18.8271 17.9257 18.0922 18.2918 17.4282 18.658C16.4225 18.1326 17.9471 18.451 17.9503 18.2918C17.7988 17.8111 17.9794 17.429 17.9922 17.0374L17.9761 17.5086C17.9858 17.273 18.1599 17.1265 18.508 16.9832C18.8368 17.152 18.5176 17.2157 18.9721 17.3876C18.9883 17.3303 18.9947 17.2698 18.9947 17.2061C19.0044 17.2157 19.014 17.2252 19.0269 17.2348C19.0173 17.2889 19.0076 17.343 19.0044 17.4003M20.6031 16.9673C20.5741 16.8591 20.5322 16.7444 20.4678 16.6266C20.6031 16.5056 20.7063 16.3751 20.7772 16.2382C20.7643 16.4006 20.8191 16.5534 21.0157 16.6935C20.8707 16.7699 20.7321 16.8622 20.6031 16.9673Z" fill="#BCD631"/>
<path d="M27.2047 25.1023C26.9952 25.2392 26.7857 25.3761 26.5762 25.5098C26.7663 25.4334 26.9533 25.3347 27.1145 25.1946C27.1499 25.166 27.1725 25.131 27.2047 25.1023Z" fill="#FDE9F3"/>
<path d="M33.2196 21.5745C33.1358 21.5999 33.052 21.6254 32.9746 21.6572C33.0584 21.6477 33.1422 21.619 33.2196 21.5745Z" fill="#FDE9F3"/>
<path d="M33.2197 21.5745C33.281 21.5553 33.339 21.5331 33.4035 21.514L33.3325 21.5012L33.31 21.5203C33.281 21.5426 33.252 21.5585 33.2197 21.5745Z" fill="#FDE9F3"/>
<path d="M13.6348 20.0047C14.4922 19.4921 15.1981 19.2979 15.8363 19.1323C15.7815 19.0432 15.6236 18.9668 15.6977 18.8203C15.0724 19.0846 14.4213 19.4062 13.638 20.0047" fill="#FDE9F3"/>
<path d="M25.1389 26.4014C25.1002 26.4173 25.0647 26.4364 25.0261 26.4555C24.7811 26.5988 24.5361 26.7453 24.2879 26.8854C24.2879 26.8694 24.2879 26.8535 24.2879 26.8376C23.9591 27.0318 23.6562 27.2451 23.3822 27.468C23.2307 29.5949 22.3829 31.2824 21.1194 32.54C20.0106 33.6449 18.5891 34.3995 17.0516 34.8325C17.0097 35.0076 16.9742 35.1827 16.9484 35.3578C16.8775 35.2305 16.8292 35.1031 16.8034 34.9758C16.8098 34.9471 16.8163 34.9216 16.8227 34.8962C15.6913 35.1859 14.5019 35.3037 13.3254 35.2496C13.2255 35.5807 13.2739 35.9501 13.5027 36.2525C13.5575 36.3258 13.6155 36.3863 13.6703 36.4499L14.5019 35.8386C14.5148 35.8609 14.5277 35.88 14.5374 35.9023L13.7154 36.5041C14.012 36.8288 14.3085 37.0262 14.5309 37.109C14.7534 37.1854 14.9048 37.1568 14.9854 37.0262C15.0209 37.2555 15.0628 37.4815 15.1144 37.6789C15.1659 37.8795 15.2304 38.0897 15.3013 38.2903C14.6019 37.8477 13.9572 37.3319 13.3738 36.7556L12.6904 37.2555C12.8032 37.3988 12.9322 37.5516 13.0805 37.7076C13.983 38.6278 15.0112 39.3855 16.1587 39.9809C16.1587 39.9809 16.1587 39.9841 16.1619 39.9873C16.2844 40.1656 16.4134 40.3407 16.5487 40.5095C16.6809 40.675 16.8034 40.8088 16.9355 40.9552C17.9799 42.0409 18.9533 42.6363 20.1363 43.1426C20.3748 43.2349 20.6101 43.3209 20.8777 43.4005C21.0034 43.4387 21.1452 43.4801 21.258 43.5087L21.5707 43.582C21.9897 43.6743 22.4055 43.738 22.8084 43.7762C23.6143 43.8526 24.3556 43.8303 24.9809 43.7603C25.6159 43.6934 26.1349 43.582 26.5636 43.4737C26.9955 43.3655 27.263 43.2636 27.5983 43.1553L28.5588 42.8306C28.8747 42.7096 29.1906 42.5758 29.5033 42.4453C30.135 42.197 30.7378 41.8849 31.3373 41.5729C33.7419 40.3152 35.7243 38.6087 37.2843 36.8702C38.2513 35.9596 39.2635 34.8198 40.0435 33.7691C40.8171 32.7183 41.3941 31.7695 41.6455 31.1869C41.7615 30.878 41.8647 30.5787 41.9646 30.2794C42.0677 29.977 42.1709 29.6809 42.2644 29.3879C42.3643 29.0886 42.4642 28.7894 42.5609 28.4901C42.6737 28.1621 42.8188 27.7737 42.967 27.3184C43.2604 26.4237 43.5956 25.1724 43.5247 23.7524C43.4441 22.3323 42.9703 21.0874 42.403 20.1418C42.0162 19.4922 41.6004 18.9732 41.1845 18.5211C41.1684 18.4129 41.1555 18.3078 41.1362 18.1995C40.6205 17.1488 40.0048 16.1682 39.315 15.2544C34.9313 19.4859 30.135 23.4085 25.126 26.3759C25.126 26.3791 25.126 26.3823 25.126 26.3887M14.921 35.6253L14.8146 35.7049C14.8081 35.6794 14.8017 35.6539 14.792 35.6285L14.9242 35.5298C14.9242 35.5616 14.9242 35.5935 14.921 35.6253ZM16.9355 35.4565C16.9194 35.6062 16.9098 35.7558 16.9033 35.9087C16.8388 35.8609 16.7744 35.8163 16.7131 35.7686C16.7131 35.7495 16.7131 35.7304 16.7131 35.7113C16.7164 35.5871 16.7325 35.4597 16.7486 35.326C16.8131 35.361 16.8775 35.3897 16.942 35.4152C16.942 35.4279 16.9355 35.4406 16.9355 35.4565ZM38.7542 30.4132H38.7606C38.5995 30.652 38.4383 30.8939 38.2739 31.1391L38.2352 31.1264C38.4125 30.8876 38.5833 30.652 38.7542 30.4132ZM33.2487 29.5344L32.6685 29.3497C32.6911 29.3083 32.7072 29.2701 32.7201 29.2351L33.3841 29.3657C33.339 29.4198 33.3003 29.4771 33.2487 29.5312M36.63 29.0568L37.2489 29.1396C37.2263 29.1714 37.207 29.2065 37.1844 29.2383C37.1006 29.3879 37.0039 29.5376 36.9137 29.684H36.904L36.9878 29.5344C36.9556 29.5822 36.9169 29.6331 36.8846 29.6809L36.2851 29.6013C36.4011 29.4198 36.5172 29.2383 36.63 29.0568ZM36.0949 29.8942L36.6558 30.0024C36.5365 30.1712 36.4205 30.3399 36.298 30.5055L35.7919 30.3431C35.8951 30.1935 35.995 30.0406 36.0949 29.891M33.8805 28.6938C33.8354 28.7703 33.787 28.8435 33.7451 28.9199C33.6581 29.0218 33.5775 29.1269 33.4969 29.2319L32.7524 29.1332C32.7781 29.0441 32.7814 28.9581 32.7717 28.8912C32.7491 28.7384 32.6976 28.6556 32.5686 28.5187L33.8805 28.6938ZM23.5498 39.2836C23.3306 39.3855 23.0953 39.4747 22.8535 39.5575C22.7053 39.5193 22.5538 39.4779 22.3733 39.411C22.3572 39.4046 22.341 39.3983 22.3249 39.3919C22.744 39.376 23.1598 39.341 23.553 39.2836M21.7447 39.3983C21.922 39.4842 22.1057 39.5638 22.3056 39.6339C22.3539 39.6498 22.3991 39.6657 22.4442 39.6785C22.225 39.7358 21.9994 39.7835 21.7705 39.8217C21.4611 39.6912 21.1774 39.5352 20.9034 39.3537C21.1871 39.3792 21.4675 39.3951 21.748 39.3983M17.3675 38.5768C17.3094 38.4654 17.2579 38.3603 17.2095 38.252C17.2804 38.2903 17.3578 38.3221 17.4287 38.3571C17.4738 38.4526 17.519 38.545 17.5641 38.6309L17.4513 38.6819C17.4513 38.6819 17.4835 38.6946 17.4996 38.701L17.5802 38.666C17.5963 38.6978 17.6157 38.7265 17.6318 38.7551C17.5899 38.736 17.5415 38.7201 17.4996 38.701L17.4513 38.7233C17.4223 38.6723 17.3932 38.6246 17.3642 38.5736M18.0734 39.5543C18.0508 39.5479 18.025 39.5384 18.0025 39.532C17.8219 39.3091 17.6447 39.0544 17.4706 38.7551C17.5415 38.787 17.6157 38.8156 17.6866 38.8475C17.8542 39.1276 18.025 39.3696 18.1991 39.5861C18.1572 39.5734 18.1153 39.567 18.0766 39.5543M26.7602 42.2065L27.869 41.9868C28.2397 41.92 28.6072 41.8149 28.9746 41.7098C29.3389 41.6016 29.7128 41.5092 30.0706 41.3787C29.7386 41.6461 29.3904 41.8404 29.0488 42.0187C28.7071 42.197 28.3654 42.3371 28.027 42.423C27.6885 42.5154 27.3565 42.5854 27.0342 42.6332C26.7376 42.6809 26.3347 42.7128 25.8899 42.7319C24.9938 42.7637 23.8334 42.7032 22.615 42.3753C22.312 42.2957 22.009 42.197 21.7093 42.0855C21.3321 41.9486 20.9872 41.7958 20.6649 41.6302C20.349 41.4647 20.0525 41.2895 19.7624 41.0953C19.8107 41.0985 19.8559 41.1049 19.9042 41.108C20.1234 41.2481 20.3458 41.3819 20.5811 41.5029C20.7906 41.6111 21.0195 41.713 21.2483 41.8053C21.4836 41.8977 21.7608 41.99 21.9413 42.0409C22.3475 42.1619 22.7568 42.2479 23.1469 42.3052C23.9398 42.423 24.6586 42.423 25.2678 42.3816C25.8673 42.3402 26.3799 42.2638 26.7538 42.197" fill="#66CDF2"/>
</g>
<defs>
<linearGradient id="paint0_linear_190_3342" x1="45.4094" y1="20.0933" x2="131.521" y2="41.5543" gradientUnits="userSpaceOnUse">
<stop stop-color="#EE4F9C"/>
<stop offset="0.24" stop-color="#F5A326"/>
<stop offset="0.5" stop-color="#FCDD34"/>
<stop offset="0.75" stop-color="#BCD631"/>
<stop offset="1" stop-color="#66CDF2"/>
</linearGradient>
<linearGradient id="paint1_linear_190_3342" x1="47.9171" y1="10.6426" x2="134.029" y2="32.1036" gradientUnits="userSpaceOnUse">
<stop stop-color="#EE4F9C"/>
<stop offset="0.24" stop-color="#F5A326"/>
<stop offset="0.5" stop-color="#FCDD34"/>
<stop offset="0.75" stop-color="#BCD631"/>
<stop offset="1" stop-color="#66CDF2"/>
</linearGradient>
<linearGradient id="paint2_linear_190_3342" x1="50.9558" y1="-1.42792" x2="137.068" y2="20.0331" gradientUnits="userSpaceOnUse">
<stop stop-color="#EE4F9C"/>
<stop offset="0.24" stop-color="#F5A326"/>
<stop offset="0.5" stop-color="#FCDD34"/>
<stop offset="0.75" stop-color="#BCD631"/>
<stop offset="1" stop-color="#66CDF2"/>
</linearGradient>
<linearGradient id="paint3_linear_190_3342" x1="48.5724" y1="7.68277" x2="134.684" y2="29.1438" gradientUnits="userSpaceOnUse">
<stop stop-color="#EE4F9C"/>
<stop offset="0.24" stop-color="#F5A326"/>
<stop offset="0.5" stop-color="#FCDD34"/>
<stop offset="0.75" stop-color="#BCD631"/>
<stop offset="1" stop-color="#66CDF2"/>
</linearGradient>
<linearGradient id="paint4_linear_190_3342" x1="43.9823" y1="25.9869" x2="130.094" y2="47.4479" gradientUnits="userSpaceOnUse">
<stop stop-color="#EE4F9C"/>
<stop offset="0.24" stop-color="#F5A326"/>
<stop offset="0.5" stop-color="#FCDD34"/>
<stop offset="0.75" stop-color="#BCD631"/>
<stop offset="1" stop-color="#66CDF2"/>
</linearGradient>
<linearGradient id="paint5_linear_190_3342" x1="45.0743" y1="21.2912" x2="131.186" y2="42.7522" gradientUnits="userSpaceOnUse">
<stop stop-color="#EE4F9C"/>
<stop offset="0.24" stop-color="#F5A326"/>
<stop offset="0.5" stop-color="#FCDD34"/>
<stop offset="0.75" stop-color="#BCD631"/>
<stop offset="1" stop-color="#66CDF2"/>
</linearGradient>
<linearGradient id="paint6_linear_190_3342" x1="44.8676" y1="22.7202" x2="130.979" y2="44.1812" gradientUnits="userSpaceOnUse">
<stop stop-color="#EE4F9C"/>
<stop offset="0.24" stop-color="#F5A326"/>
<stop offset="0.5" stop-color="#FCDD34"/>
<stop offset="0.75" stop-color="#BCD631"/>
<stop offset="1" stop-color="#66CDF2"/>
</linearGradient>
<linearGradient id="paint7_linear_190_3342" x1="47.4093" y1="12.7384" x2="133.521" y2="34.1995" gradientUnits="userSpaceOnUse">
<stop stop-color="#EE4F9C"/>
<stop offset="0.24" stop-color="#F5A326"/>
<stop offset="0.5" stop-color="#FCDD34"/>
<stop offset="0.75" stop-color="#BCD631"/>
<stop offset="1" stop-color="#66CDF2"/>
</linearGradient>
<linearGradient id="paint8_linear_190_3342" x1="47.4361" y1="12.0631" x2="133.548" y2="33.5241" gradientUnits="userSpaceOnUse">
<stop stop-color="#EE4F9C"/>
<stop offset="0.24" stop-color="#F5A326"/>
<stop offset="0.5" stop-color="#FCDD34"/>
<stop offset="0.75" stop-color="#BCD631"/>
<stop offset="1" stop-color="#66CDF2"/>
</linearGradient>
<linearGradient id="paint9_linear_190_3342" x1="47.0455" y1="14.0011" x2="133.157" y2="35.4622" gradientUnits="userSpaceOnUse">
<stop stop-color="#EE4F9C"/>
<stop offset="0.24" stop-color="#F5A326"/>
<stop offset="0.5" stop-color="#FCDD34"/>
<stop offset="0.75" stop-color="#BCD631"/>
<stop offset="1" stop-color="#66CDF2"/>
</linearGradient>
<linearGradient id="paint10_linear_190_3342" x1="48.8128" y1="6.35044" x2="134.925" y2="27.8114" gradientUnits="userSpaceOnUse">
<stop stop-color="#EE4F9C"/>
<stop offset="0.24" stop-color="#F5A326"/>
<stop offset="0.5" stop-color="#FCDD34"/>
<stop offset="0.75" stop-color="#BCD631"/>
<stop offset="1" stop-color="#66CDF2"/>
</linearGradient>
<linearGradient id="paint11_linear_190_3342" x1="51.8464" y1="-5.83575" x2="137.958" y2="15.6253" gradientUnits="userSpaceOnUse">
<stop stop-color="#EE4F9C"/>
<stop offset="0.24" stop-color="#F5A326"/>
<stop offset="0.5" stop-color="#FCDD34"/>
<stop offset="0.75" stop-color="#BCD631"/>
<stop offset="1" stop-color="#66CDF2"/>
</linearGradient>
<clipPath id="clip0_190_3342">
<rect width="142" height="53" fill="white"/>
</clipPath>
</defs>
</svg>
