<svg width="28" height="28" viewBox="0 0 28 28" fill="none" xmlns="http://www.w3.org/2000/svg">
<path d="M12.5625 22.75C13.1148 22.75 13.5625 23.1977 13.5625 23.75V25.6875C13.5625 26.2398 13.1148 26.6875 12.5625 26.6875H2.3125C1.76022 26.6875 1.3125 26.2398 1.3125 25.6875V2.3125C1.3125 1.76022 1.76022 1.3125 2.3125 1.3125H12.5625C13.1148 1.3125 13.5625 1.76022 13.5625 2.3125V3.8125C13.5625 4.36478 13.1148 4.8125 12.5625 4.8125H5.8125C5.26022 4.8125 4.8125 5.26022 4.8125 5.8125V21.75C4.8125 22.3023 5.26022 22.75 5.8125 22.75H12.5625Z" fill="#F6A7CD"/>
<path d="M17.9375 6.61147C17.9375 5.68659 19.0852 5.25737 19.6921 5.9553L26.1169 13.3438C26.4441 13.7201 26.4441 14.2799 26.1169 14.6562L19.6921 22.0447C19.0852 22.7426 17.9375 22.3134 17.9375 21.3885V19.719C17.9375 19.0492 17.2918 18.5687 16.6502 18.7612L10.4748 20.6138C9.83324 20.8063 9.1875 20.3258 9.1875 19.656V8.34403C9.1875 7.67417 9.83324 7.19372 10.4748 7.3862L16.6502 9.2388C17.2918 9.43128 17.9375 8.95083 17.9375 8.28097V6.61147Z" fill="#FD44AC"/>
</svg>
