<svg width="247" height="283" viewBox="0 0 247 283" fill="none" xmlns="http://www.w3.org/2000/svg">
<g clip-path="url(#clip0_863_5230)">
<path d="M44.8017 130.746C41.2435 130.721 37.6854 130.746 34.1272 130.647C28.6133 130.491 24.6361 126.51 24.5539 120.974C24.4635 115.496 24.4881 110.019 24.5457 104.541C24.6114 98.5281 28.564 94.5389 34.5792 94.4978C43.1993 94.4402 51.8276 94.3169 60.4395 94.5636C64.0387 94.6705 66.4875 93.4368 68.9856 90.9446C87.3845 72.5698 105.981 54.3841 124.371 35.9929C127.034 33.328 128.628 33.2293 131.331 35.9271C150.018 54.598 168.885 73.0962 187.596 91.7424C189.601 93.7411 191.606 94.5883 194.425 94.5472C203.587 94.3909 212.758 94.4649 221.929 94.506C228.453 94.5389 232.324 98.4376 232.373 104.977C232.406 110.183 232.422 115.389 232.373 120.588C232.299 126.625 228.371 130.54 222.348 130.647C218.658 130.713 214.96 130.737 211.271 130.779C207.893 132.531 204.13 132.004 200.547 132.621C152.261 132.753 103.992 132.744 55.7309 132.637C52.9616 132.818 50.2498 131.692 47.4477 132.251C46.1658 132.506 45.6974 131.247 44.8181 130.746H44.8017Z" fill="black"/>
<path d="M129.326 282.72C111.149 283.107 94.3855 281.922 77.6958 280.072C71.1301 279.34 64.3507 278.6 58.1465 275.795C56.5359 275.063 54.5555 274.388 54.6295 272.266C54.7034 270.07 56.8482 269.758 58.4752 269.124C66.9885 265.818 76.0688 264.823 84.96 264.09C102.644 262.635 120.394 261.574 138.168 262.232C156.181 262.898 174.185 263.679 191.918 267.282C194.573 267.816 197.178 268.828 199.635 269.98C202.207 271.18 202.207 273.072 199.955 274.684C197.942 276.124 195.592 276.987 193.176 277.514C182.345 279.874 171.342 281.264 160.314 281.774C149.549 282.276 138.776 283.551 129.318 282.72H129.326Z" fill="#EEEEEE"/>
<path d="M44.8018 130.746C47.9162 131.034 50.9566 128.426 54.1121 130.524C51.688 134.077 52.0906 137.852 52.7234 141.882C56.3555 165.118 59.9794 188.362 63.5622 211.615C64.236 215.998 65.5179 219.864 70.358 221.435C72.2891 222.06 74.0805 222.134 75.9377 221.378C91.5344 221.764 107.123 221.493 122.711 221.534C141.998 221.583 161.284 221.583 180.57 221.534C188.739 221.509 191.278 219.354 192.568 211.22C195.904 190.27 199.117 169.305 202.347 148.339C202.618 146.579 202.93 144.835 203.357 143.116C204.376 138.773 204.878 134.472 202.002 130.54C205.157 128.196 208.206 129.874 211.279 130.795C207.515 155.256 203.744 179.718 199.972 204.179C199.364 208.094 198.805 212.026 198.09 215.916C196.627 223.886 192.067 227.678 183.866 227.678C149.254 227.703 114.642 227.686 80.03 227.686C77.2935 227.686 74.5571 227.711 71.8207 227.686C64.1785 227.596 59.3466 223.779 58.1305 216.278C54.786 195.625 51.6222 174.947 48.4092 154.269C47.193 146.431 46.0179 138.592 44.8264 130.746H44.8018Z" fill="black"/>
<path d="M247 95.09C246.647 95.6493 246.433 96.406 246.088 96.4636C243.705 96.8995 242.456 98.1333 241.749 100.576C241.281 102.213 239.161 101.588 239.276 100.231C239.596 96.406 234.329 97.7879 234.616 95.09C234.846 92.9104 239.341 93.9303 239.284 90.3359C239.259 88.8966 241.231 88.4113 241.79 90.0316C242.522 92.1619 243.253 93.7576 245.743 93.9714C246.145 94.0043 246.507 94.6212 247.008 95.0818L247 95.09Z" fill="#CACACA"/>
<path d="M204.089 52.6487C207.26 52.6816 210.087 55.5192 210.104 58.6941C210.128 61.8443 207.318 64.7149 204.146 64.7889C200.843 64.8629 197.934 61.9183 197.942 58.5049C197.942 55.4123 200.884 52.6158 204.089 52.6569V52.6487Z" fill="#C5C5C5"/>
<path d="M89.6525 -6.43933e-05C92.8737 -0.10699 95.7498 2.55793 95.9306 5.80684C96.1032 9.02284 93.4818 11.9592 90.2441 12.1813C86.8996 12.4116 83.8099 9.54924 83.7524 6.16874C83.6948 2.93629 86.3984 0.115087 89.6607 0.00816068L89.6525 -6.43933e-05Z" fill="#9F9F9F"/>
<path d="M0.00812798 82.662C0.205347 79.6434 3.22937 77.0032 6.15478 77.2911C8.94871 77.5707 11.4468 80.4988 11.266 83.2789C11.0688 86.3304 8.07766 88.9378 5.11938 88.6417C2.33367 88.362 -0.180873 85.4174 -8.94666e-05 82.6538L0.00812798 82.662Z" fill="#ADADAD"/>
<path d="M63.9315 49.3998C65.5997 50.4938 67.6705 51.4725 67.5554 53.4301C67.4486 55.2479 65.7311 57.0574 63.8 56.9587C62.1483 56.8764 60.4391 55.1985 60.3569 53.4877C60.2583 51.4725 62.3209 50.5513 63.9315 49.3916V49.3998Z" fill="#E3E3E3"/>
<path d="M181.071 15.9648C179.609 17.3384 178.253 19.5921 176.922 19.5756C175.615 19.5592 173.322 17.2479 173.322 15.9484C173.322 14.6488 175.631 12.3376 176.93 12.3293C178.261 12.3293 179.609 14.583 181.071 15.9648Z" fill="#E0E0E0"/>
<path d="M34.5132 98.7008H59.4696C56.1579 102.394 54.8185 108.357 47.9487 107.016C44.9329 106.424 42.065 109.426 41.9335 112.502C41.7856 115.825 43.5113 118.096 46.6504 118.844C49.8634 119.609 52.7559 118.186 53.4791 115.06C55.1801 107.65 61.8691 104.59 66.1914 99.4986C67.1529 98.3636 68.7142 98.5856 70.0701 98.5856C108.528 98.5856 146.985 98.5856 185.443 98.5527C187.801 98.5527 189.626 99.2354 191.269 100.946C193.817 103.619 196.537 106.128 199.215 108.678C200.727 110.117 201.788 111.663 202.223 113.851C202.979 117.577 206.233 119.65 209.43 118.91C212.446 118.219 214.599 115.118 214.147 112.124C213.645 108.768 210.605 106.399 206.948 107.107C204.557 107.567 203.061 106.852 201.516 105.273C199.61 103.323 197.556 101.522 195.838 98.5774C198.739 98.5774 201.631 98.5774 204.532 98.5774C209.874 98.5774 215.207 98.5281 220.548 98.5939C225.807 98.6597 228.149 100.913 228.248 106.029C228.338 110.545 228.363 115.069 228.223 119.592C228.083 124.075 225.758 126.279 221.279 126.534C220.868 126.559 220.458 126.534 220.047 126.534C160.651 126.534 101.255 126.534 41.8514 126.526C40.7584 126.526 39.6655 126.452 38.5726 126.411C37.0113 124.355 36.584 121.953 36.51 119.461C36.4278 116.59 36.2306 113.695 36.5265 110.857C36.962 106.572 35.6554 102.665 34.5132 98.6843V98.7008Z" fill="#EE4F9C"/>
<path d="M184.005 94.2757H70.8921C73.76 91.619 75.8719 89.7683 77.8687 87.8025C93.7448 72.1502 109.629 56.4979 125.431 40.7716C127.206 39.0032 128.225 38.5508 130.255 40.5824C147.47 57.8057 164.809 74.8974 182.099 92.0385C182.649 92.5813 183.11 93.2146 184.005 94.2757Z" fill="#FEFEFE"/>
<path d="M201.985 130.524C205.458 130.721 206.913 132.503 206.348 135.87C205.987 137.976 205.576 140.081 205.19 142.179C203.267 144.564 200.514 144.153 197.975 144.169C181.836 144.251 165.705 144.202 149.566 144.21C124.544 144.21 99.5215 144.21 74.4912 144.21C72.9874 144.21 71.4836 144.153 69.9798 144.276C65.8382 144.63 64.0714 146.406 64.7699 150.404C67.1037 163.745 67.9583 177.283 70.44 190.616C71.6151 196.916 72.519 203.291 73.1681 209.69C73.5379 213.35 74.0721 217.035 75.7484 220.415C76.2661 221.468 76.3565 222.513 75.469 223.451C65.3369 223.977 62.9621 221.88 61.4501 211.919C57.629 186.627 53.6764 161.359 49.7566 136.084C48.9431 130.82 48.9102 130.828 54.0955 130.532C64.885 130.573 75.6663 130.655 86.4558 130.664C123.327 130.68 160.199 130.664 197.071 130.664C198.706 130.664 200.341 130.581 201.977 130.532L201.985 130.524Z" fill="#ECECEC"/>
<path d="M34.5134 98.7009C38.3099 99.2437 39.1809 101.07 38.7454 105.042C38.1126 110.907 38.014 116.936 39.0001 122.85C39.2138 124.1 39.0412 125.268 38.5728 126.419C30.5937 126.748 28.6544 124.889 28.6379 116.845C28.6297 113.169 28.5968 109.484 28.6708 105.807C28.7447 101.933 30.4047 99.2848 34.5134 98.6926V98.7009Z" fill="#FF63AE"/>
<path d="M75.4771 223.434C71.2779 219.132 71.3601 213.375 70.8013 208.078C69.6345 196.925 67.1281 185.993 65.9284 174.848C64.9341 165.612 63.4056 156.441 62.3209 147.212C61.7375 142.22 61.9347 142.178 67.2678 142.178C97.7874 142.178 128.299 142.178 158.818 142.178C174.275 142.178 189.732 142.178 205.189 142.178C203.209 155.569 201.245 168.959 199.232 182.341C197.703 192.483 196.052 202.608 194.531 212.758C193.241 221.386 190.817 223.574 182.23 223.574C148.152 223.574 114.074 223.574 79.9967 223.574C78.4929 223.574 76.9891 223.492 75.4853 223.442L75.4771 223.434Z" fill="#F8F8F8"/>
<path d="M204.097 63.1193C201.344 62.782 199.856 61.1453 199.782 58.5297C199.708 55.8648 201.525 54.5076 203.965 54.5241C206.356 54.5405 208.288 55.8565 208.296 58.4721C208.296 61.063 206.8 62.7491 204.105 63.1275L204.097 63.1193Z" fill="#FCFCFC"/>
<path d="M94.2376 5.83158C93.9007 8.47183 92.6763 10.3965 89.9316 10.4129C87.2692 10.4294 85.5517 8.77615 85.5353 6.08656C85.5189 3.61081 87.0637 1.97402 89.5536 1.80129C92.3147 1.60389 93.7116 3.32293 94.2376 5.8398V5.83158Z" fill="#FAFAFA"/>
<path d="M9.59812 82.8841C9.25299 85.1624 8.0368 86.7499 5.69483 86.8157C3.31999 86.8897 1.83263 85.4256 1.77511 83.0568C1.71759 80.688 3.14742 79.1664 5.51405 79.117C7.88067 79.0594 9.12151 80.6304 9.59812 82.8841Z" fill="#FBFBFB"/>
<path d="M91.7807 174.207C87.8199 174.141 84.5575 170.81 84.5493 166.821C84.5411 162.708 88.1239 159.278 92.2244 159.468C96.1852 159.657 99.39 163.111 99.2503 167.051C99.1106 171.032 95.7251 174.273 91.7807 174.207Z" fill="black"/>
<path d="M164.078 159.468C168.03 159.402 171.449 162.667 171.547 166.615C171.654 170.753 168.219 174.265 164.111 174.207C160.142 174.158 156.871 170.843 156.846 166.854C156.822 162.898 160.109 159.542 164.078 159.476V159.468Z" fill="black"/>
<path d="M128.636 193.108C133.558 193.084 138.053 194.564 142.277 196.999C143.156 197.5 144.142 198.134 143.567 199.178C142.943 200.313 141.874 199.59 141.069 199.129C132.737 194.334 124.412 194.564 116.08 199.104C115.25 199.557 114.173 200.313 113.524 199.302C112.67 197.961 114.05 197.443 114.962 196.925C119.211 194.548 123.73 193.141 128.636 193.108Z" fill="black"/>
</g>
<defs>
<clipPath id="clip0_863_5230">
<rect width="247" height="283" fill="white"/>
</clipPath>
</defs>
</svg>
