<svg width="96" height="96" viewBox="0 0 96 96" fill="none" xmlns="http://www.w3.org/2000/svg">
<g clip-path="url(#clip0_37_11024)">
<path d="M50.6732 3.45463C55.9423 3.59979 61.1969 3.93848 66.3353 5.211C67.2803 5.40795 68.2051 5.69139 69.0981 6.05773C78.3302 10.3411 86.1572 17.1564 91.6695 25.7116C92.9849 27.835 93.9045 30.1792 94.3839 32.6306C96.1064 40.2802 96.2467 48.0121 95.7435 55.7681C95.4542 61.0508 93.8204 66.1721 90.997 70.6464C90.1841 71.9238 89.5455 73.3221 88.8342 74.6575C86.9665 78.0842 84.0569 80.8277 80.5266 82.491C72.0465 86.6062 63.0569 89.5756 53.794 91.3212C48.104 92.4437 42.3269 92.9856 36.4481 92.134C31.9013 91.4888 27.5737 89.7688 23.8246 87.1165C19.7603 84.257 15.7105 81.3539 12.1784 77.7735C5.32228 70.84 1.98858 62.4404 1.02572 52.9279C0.693484 49.6217 0.380596 46.3121 0.0870626 42.9994C-0.333884 38.19 0.769286 33.7289 2.695 29.2969C6.64318 20.2344 13.7509 14.6073 22.3392 10.4994C25.0874 9.18821 27.9373 8.0802 30.7629 6.948C37.1449 4.36426 43.8268 3.39173 50.6732 3.45463ZM92.0469 48.2298C92.3372 43.0962 91.2244 37.9577 90.2761 32.7757C89.9318 30.5853 89.0965 28.5011 87.8326 26.6793C83.8361 21.1392 79.2105 16.2427 73.3414 12.5897C69.4029 10.1317 65.2854 8.33664 60.5921 8.02214C57.8342 7.84151 55.0762 7.62861 52.3183 7.38347C45.5444 6.80285 39.0948 8.09956 32.8725 10.7123C30.5742 11.68 28.2518 12.5897 25.9874 13.6154C22.3208 15.2589 18.8721 17.3505 15.7201 19.8425C11.6365 23.1327 8.86404 27.3712 6.77382 32.1129C5.32228 35.3111 4.29169 38.5964 4.45136 42.1285C4.61103 45.6606 4.75134 49.3233 5.211 52.8844C6.39158 62.0339 9.61884 70.3029 16.6927 76.5929C19.5642 79.1888 22.5871 81.6123 25.7454 83.8506C31.1307 87.6052 37.1304 89.4293 43.7736 88.6649C44.5961 88.5681 45.4332 88.5826 46.2654 88.5536C54.573 88.2342 62.3291 85.7956 69.7755 82.2636C73.2592 80.6185 76.6461 78.7654 80.0572 76.9703C80.8105 76.6228 81.4992 76.15 82.0942 75.572C85.5731 71.7883 88.7036 67.8304 90.247 62.7452C91.6698 58.0463 92.2785 53.1387 92.0469 48.2346V48.2298Z" fill="black"/>
<path d="M91.631 47.9765C91.8569 52.8834 91.2416 57.7926 89.8117 62.4919C88.2682 67.5626 85.1378 71.535 81.6589 75.3187C81.0639 75.8967 80.3751 76.3695 79.6219 76.717C76.235 78.5121 72.8481 80.3652 69.3402 82.0103C61.8938 85.523 54.1377 87.9616 45.8301 88.3003C44.9979 88.3293 44.1608 88.3003 43.3383 88.4116C36.695 89.1761 30.6953 87.352 25.3101 83.5973C22.1518 81.359 19.1289 78.9356 16.2574 76.3396C9.18353 70.0496 5.95627 61.8242 4.77569 52.6311C4.29184 49.07 4.17572 45.4654 4.01605 41.8752C3.85638 38.2851 4.90633 35.053 6.35787 31.8548C8.46744 27.1131 11.2399 22.8746 15.3235 19.5844C18.4694 17.0938 21.9116 15.0022 25.5714 13.3573C27.8358 12.317 30.1583 11.4219 32.4565 10.4542C38.6788 7.84146 45.1285 6.54475 51.9023 7.14472C54.6603 7.3931 57.4182 7.60599 60.1761 7.7834C64.8694 8.0979 68.987 9.89297 72.9255 12.3509C78.7945 16.004 83.4201 20.9005 87.4167 26.4405C88.6785 28.2581 89.5138 30.3371 89.8601 32.5225C90.8084 37.7045 91.9213 42.8429 91.631 47.9765Z" fill="#FD44AC"/>
<mask id="mask0_37_11024" style="mask-type:luminance" maskUnits="userSpaceOnUse" x="35" y="29" width="27" height="38">
<path d="M61.0724 29H35.1301V67H61.0724V29Z" fill="white"/>
</mask>
<g mask="url(#mask0_37_11024)">
<path d="M39.2336 32.0587C39.2149 31.4754 39.1317 30.8961 38.9853 30.3311C38.9127 29.9958 38.7252 29.6962 38.4552 29.4838C38.1853 29.2715 37.8496 29.1596 37.5059 29.1674C36.7919 29.1952 36.2921 29.6331 36.0976 30.4C35.9474 31.0451 35.8603 31.7034 35.8377 32.3653C35.7977 33.1443 35.756 33.9236 35.7125 34.703C35.5802 37.1234 35.4434 39.6264 35.3943 42.0917C35.2927 47.2088 35.2753 52.3664 35.2729 57.178C35.2907 59.9567 35.6461 62.7231 36.3313 65.4166C36.4402 65.7358 36.6177 66.0277 36.8514 66.2714C36.9704 66.4194 37.0956 66.5729 37.2217 66.753C37.2442 66.7852 37.2742 66.8115 37.3092 66.8297C37.3441 66.848 37.3829 66.8575 37.4224 66.8575H37.4278C37.4682 66.8564 37.5076 66.8458 37.5427 66.8257C37.5778 66.806 37.6074 66.7779 37.6289 66.7439C37.7567 66.5418 37.8562 66.4008 37.9305 66.2955C38.0432 66.1698 38.1201 66.0164 38.153 65.8512C38.391 63.3418 38.59 61.125 38.7628 59.0725C39.254 53.2407 39.2893 47.3033 39.3233 41.561C39.3311 40.2614 39.3405 38.9618 39.3516 37.662C39.3683 35.9627 39.3085 34.2371 39.2512 32.5681L39.2336 32.0587Z" fill="black"/>
<path d="M60.0344 30.3853C59.8752 29.9725 59.1402 29.801 58.7819 29.801C58.4104 29.801 57.9603 30.2306 57.8666 30.5686C57.6951 31.21 57.5981 31.869 57.5776 32.5325L57.4736 35.1213C57.2961 39.5302 57.1123 44.0895 56.9879 48.5759C56.8953 51.9125 56.7996 55.3624 57.3335 58.8162C57.6509 60.8703 58.0905 62.8978 58.518 64.7824L58.5313 64.8413C58.6386 65.3246 58.8186 66.1333 60.0841 66.1439H60.0863C60.151 66.1439 60.2131 66.1183 60.259 66.0726C60.305 66.0269 60.3307 65.9648 60.331 65.9002C60.331 65.3712 60.3266 64.8508 60.3226 64.3368C60.3133 63.1852 60.3045 62.0972 60.3417 60.9964C60.3736 60.0535 60.4349 59.094 60.4947 58.1661C60.563 57.105 60.6335 56.0077 60.6613 54.9252C60.7534 51.1846 60.8626 46.2564 60.89 41.3024C60.9038 38.7807 60.8393 36.0736 60.6929 33.026C60.612 32.117 60.3897 31.2261 60.0344 30.3853Z" fill="black"/>
</g>
</g>
<defs>
<clipPath id="clip0_37_11024">
<rect width="96" height="96" fill="white"/>
</clipPath>
</defs>
</svg>
