<svg width="31" height="30" viewBox="0 0 31 30" fill="none" xmlns="http://www.w3.org/2000/svg">
<path d="M3.81313 6.875C3.81313 17.5755 12.5089 26.25 23.2357 26.25C23.7196 26.25 24.1995 26.2324 24.6746 26.1976C25.2198 26.1577 25.4924 26.1379 25.7405 25.9954C25.9461 25.8774 26.141 25.6681 26.244 25.455C26.3683 25.1978 26.3683 24.8976 26.3683 24.2975V20.7759C26.3683 20.2711 26.3683 20.0188 26.2851 19.8025C26.2115 19.6114 26.0921 19.4412 25.9372 19.307C25.7618 19.155 25.5241 19.0687 25.0486 18.8962L21.0302 17.4386C20.477 17.238 20.2004 17.1376 19.938 17.1546C19.7066 17.1696 19.4839 17.2485 19.2947 17.3822C19.0802 17.5339 18.9287 17.7856 18.6259 18.2893L17.5969 20C14.2764 18.4999 11.5845 15.8111 10.0785 12.5L11.7934 11.4735C12.2983 11.1714 12.5506 11.0203 12.7026 10.8063C12.8367 10.6176 12.9158 10.3955 12.9308 10.1646C12.9479 9.90284 12.8472 9.62691 12.6461 9.07506L11.1849 5.06651C11.012 4.5922 10.9255 4.35504 10.7732 4.18012C10.6386 4.02561 10.468 3.90644 10.2765 3.83306C10.0597 3.75 9.80668 3.75 9.30069 3.75H5.77042C5.16883 3.75 4.86796 3.75 4.61008 3.87406C4.39643 3.97683 4.18667 4.17126 4.06838 4.37629C3.92553 4.62384 3.90561 4.89577 3.86564 5.43966C3.8308 5.91357 3.81313 6.39222 3.81313 6.875Z" stroke="black" stroke-width="2" stroke-linecap="round" stroke-linejoin="round"/>
</svg>
