<svg width="96" height="96" viewBox="0 0 96 96" fill="none" xmlns="http://www.w3.org/2000/svg">
<g clip-path="url(#clip0_37_11013)">
<path d="M50.6733 3.45463C55.9424 3.59979 61.197 3.93848 66.3355 5.211C67.2804 5.40795 68.2052 5.69139 69.0982 6.05773C78.3303 10.3411 86.1573 17.1564 91.6697 25.7116C92.985 27.835 93.9046 30.1792 94.384 32.6306C96.1065 40.2802 96.2469 48.0121 95.7437 55.7681C95.4543 61.0508 93.8205 66.1721 90.9971 70.6464C90.1843 71.9238 89.5456 73.3221 88.8343 74.6575C86.9666 78.0842 84.0571 80.8277 80.5267 82.491C72.0466 86.6062 63.057 89.5756 53.7942 91.3212C48.1041 92.4437 42.327 92.9856 36.4483 92.134C31.9014 91.4888 27.5739 89.7688 23.8247 87.1165C19.7604 84.257 15.7106 81.3539 12.1785 77.7735C5.3224 70.84 1.9887 62.4404 1.02585 52.9279C0.693606 49.6217 0.380718 46.3121 0.0871847 42.9994C-0.333762 38.19 0.769409 33.7289 2.69512 29.2969C6.64331 20.2344 13.751 14.6073 22.3393 10.4994C25.0875 9.18821 27.9374 8.0802 30.7631 6.948C37.145 4.36426 43.8269 3.39173 50.6733 3.45463ZM92.0471 48.2298C92.3374 43.0962 91.2245 37.9577 90.2762 32.7757C89.9319 30.5853 89.0966 28.5011 87.8328 26.6793C83.8362 21.1392 79.2106 16.2427 73.3416 12.5897C69.403 10.1317 65.2855 8.33664 60.5922 8.02214C57.8343 7.84151 55.0763 7.62861 52.3184 7.38347C45.5446 6.80285 39.0949 8.09956 32.8726 10.7123C30.5744 11.68 28.2519 12.5897 25.9875 13.6154C22.3209 15.2589 18.8722 17.3505 15.7203 19.8425C11.6366 23.1327 8.86416 27.3712 6.77394 32.1129C5.3224 35.3111 4.29181 38.5964 4.45148 42.1285C4.61115 45.6606 4.75147 49.3233 5.21112 52.8844C6.39171 62.0339 9.61896 70.3029 16.6928 76.5929C19.5644 79.1888 22.5873 81.6123 25.7456 83.8506C31.1308 87.6052 37.1305 89.4293 43.7737 88.6649C44.5962 88.5681 45.4333 88.5826 46.2655 88.5536C54.5731 88.2342 62.3292 85.7956 69.7756 82.2636C73.2593 80.6185 76.6462 78.7654 80.0574 76.9703C80.8106 76.6228 81.4994 76.15 82.0943 75.572C85.5732 71.7883 88.7037 67.8304 90.2472 62.7452C91.6699 58.0463 92.2787 53.1387 92.0471 48.2346V48.2298Z" fill="black"/>
<path d="M92.047 48.2346C92.2729 53.1414 91.6576 58.0507 90.2277 62.75C88.6843 67.8207 85.5538 71.7931 82.0749 75.5768C81.4799 76.1548 80.7912 76.6276 80.0379 76.9751C76.651 78.7701 73.2641 80.6233 69.7562 82.2684C62.3098 85.7811 54.5537 88.2197 46.2461 88.5584C45.4139 88.5874 44.5768 88.5584 43.7543 88.6696C37.1111 89.4341 31.1114 87.61 25.7261 83.8554C22.5678 81.6171 19.5449 79.1936 16.6734 76.5977C9.59954 70.3077 6.37229 62.0823 5.1917 52.8892C4.70786 49.3281 4.59173 45.7234 4.43206 42.1333C4.27239 38.5431 5.32234 35.3111 6.77388 32.1128C8.88345 27.3711 11.6559 23.1326 15.7396 19.8425C18.8855 17.3518 22.3276 15.2602 25.9874 13.6154C28.2518 12.5751 30.5743 11.68 32.8726 10.7123C39.0948 8.09952 45.5445 6.80281 52.3184 7.40278C55.0763 7.65116 57.8342 7.86405 60.5921 8.04146C65.2854 8.35596 69.403 10.151 73.3415 12.609C79.2105 16.262 83.8361 21.1585 87.8327 26.6986C89.0945 28.5162 89.9298 30.5952 90.2761 32.7805C91.2245 37.9625 92.3373 43.101 92.047 48.2346ZM28.9728 53.6924H29.2921C29.1711 57.147 29.0066 60.6017 28.9486 64.0564C28.9782 65.0193 29.141 65.9735 29.4324 66.8917C29.5416 67.4422 29.8472 67.9342 30.2923 68.2761C30.7374 68.6179 31.2916 68.7862 31.8516 68.7497C33.5064 68.6868 35.2386 68.7497 36.7917 68.2997C42.6414 66.6304 48.5444 65.0628 54.2102 62.9193C60.9357 60.3888 67.4676 57.3406 74.0479 54.4327C75.9371 53.5723 77.7555 52.5644 79.4863 51.4183C79.8784 51.1924 80.2173 50.8849 80.48 50.5165C80.7427 50.1481 80.923 49.7275 81.0089 49.2832C81.0947 48.839 81.0839 48.3815 80.9774 47.9417C80.8708 47.502 80.6708 47.0903 80.3911 46.7347C80.0516 46.2999 79.6618 45.9069 79.2299 45.5638C73.4673 40.4979 66.8676 36.7384 60.1131 33.2112C53.0925 29.5823 45.3655 27.7872 37.9336 25.2277C37.0139 24.9189 36.0603 24.7223 35.0934 24.6422C33.25 24.4729 32.2194 25.1648 31.7065 26.9212C31.3808 27.9779 31.1572 29.0635 31.0388 30.1629C30.3227 37.9867 29.655 45.8396 28.9728 53.6924Z" fill="#FD44AC"/>
<path d="M28.9729 53.6924C29.6551 45.8396 30.3228 37.9867 31.0341 30.1387C31.1525 29.0393 31.3761 27.9537 31.7018 26.897C32.2195 25.1406 33.2501 24.4487 35.0887 24.618C36.0582 24.7056 37.0135 24.9103 37.9337 25.2277C45.3656 27.8114 53.0927 29.5823 60.1375 33.2595C66.9113 36.7868 73.4916 40.5463 79.2542 45.6121C79.6861 45.9553 80.0759 46.3483 80.4155 46.7831C80.6952 47.1387 80.8951 47.5504 81.0017 47.9901C81.1083 48.4298 81.119 48.8874 81.0332 49.3316C80.9474 49.7759 80.767 50.1965 80.5043 50.5648C80.2416 50.9332 79.9027 51.2408 79.5107 51.4667C77.7799 52.6128 75.9614 53.6207 74.0722 54.4811C67.4968 57.3841 60.9648 60.4372 54.2345 62.9677C48.5542 65.1112 42.6512 66.6788 36.8161 68.3481C35.2532 68.7932 33.5307 68.7352 31.876 68.7981C31.316 68.8346 30.7617 68.6663 30.3166 68.3245C29.8715 67.9826 29.5659 67.4906 29.4567 66.9401C29.1653 66.0219 29.0025 65.0677 28.9729 64.1048C29.031 60.6501 29.1955 57.1954 29.3164 53.7408L28.9729 53.6924ZM33.4291 64.6612C34.2226 64.8354 34.3968 64.9176 34.4888 64.8838C38.7369 63.6306 43.0141 62.4645 47.2139 61.071C51.2831 59.726 55.3232 58.2696 59.281 56.6342C63.118 55.0568 66.8436 53.2037 70.6031 51.4425C71.7388 50.9328 72.8424 50.3543 73.9077 49.7103C74.5604 49.2011 75.1631 48.6308 75.7076 48.0072C74.2029 46.7685 72.9546 45.6799 71.6433 44.6735C70.6756 43.9138 69.5967 43.2558 68.5709 42.5542C59.4359 36.3078 49.1251 32.6596 38.766 29.1275C37.3144 28.6436 35.8629 28.2421 34.2468 28.7162C33.163 31.3967 33.3566 34.2176 33.3227 36.9174C33.192 46.1589 32.863 55.4149 33.4291 64.6612Z" fill="black"/>
<path d="M33.4291 64.6612C32.863 55.4149 33.192 46.1589 33.3226 36.9175C33.3565 34.2176 33.163 31.3968 34.2468 28.7163C35.8725 28.2324 37.3241 28.6389 38.7659 29.1275C49.1251 32.6596 59.4358 36.3078 68.5709 42.5543C69.5966 43.2559 70.6611 43.9139 71.6433 44.6735C72.9545 45.6799 74.2028 46.7686 75.7076 48.0072C75.1631 48.6308 74.5604 49.2011 73.9077 49.7104C72.8424 50.3544 71.7388 50.9328 70.603 51.4425C66.8435 53.2037 63.1179 55.0569 59.281 56.6342C55.3231 58.2696 51.283 59.726 47.2139 61.0711C43.0141 62.4839 38.7369 63.6306 34.4887 64.9032C34.3532 64.9032 34.2226 64.8354 33.4291 64.6612Z" fill="#FD44AC"/>
</g>
<defs>
<clipPath id="clip0_37_11013">
<rect width="96" height="96" fill="white"/>
</clipPath>
</defs>
</svg>
