<svg width="25" height="25" viewBox="0 0 25 25" fill="none" xmlns="http://www.w3.org/2000/svg">
<path fill-rule="evenodd" clip-rule="evenodd" d="M8.34028 0.694336C8.34032 0.510426 8.41337 0.334055 8.54339 0.203979C8.6734 0.0739028 8.84973 0.000764184 9.03364 0.000634766L15.9668 0.000244141C16.1508 0.000670604 16.327 0.0740118 16.457 0.204192C16.587 0.334373 16.66 0.510772 16.6602 0.694727V2.40942H8.34028V0.694336ZM19.7397 24.007C19.7221 24.2774 19.6017 24.5307 19.4033 24.7153C19.2049 24.8998 18.9435 25.0016 18.6726 24.9997H6.24819C5.97732 24.9989 5.71676 24.8958 5.51882 24.7108C5.32089 24.5259 5.20024 24.273 5.1811 24.0028L4.11792 8.45015H20.8745L19.74 24.0068L19.7397 24.007ZM22.5019 7.04155H2.49902V5.43023C2.49932 5.00287 2.6692 4.5931 2.97135 4.29088C3.2735 3.98866 3.68324 3.8187 4.1106 3.81831L20.8901 3.81777C21.3174 3.81843 21.727 3.98854 22.0291 4.29079C22.3312 4.59305 22.501 5.00276 22.5014 5.43008V7.04141L22.5019 7.04155ZM9.27969 21.2921C9.27969 21.3846 9.2979 21.4761 9.33329 21.5616C9.36868 21.647 9.42055 21.7246 9.48594 21.79C9.55133 21.8554 9.62896 21.9073 9.7144 21.9427C9.79984 21.9781 9.89141 21.9963 9.98389 21.9963C10.0764 21.9963 10.1679 21.9781 10.2534 21.9427C10.3388 21.9073 10.4164 21.8554 10.4818 21.79C10.5472 21.7246 10.5991 21.647 10.6345 21.5616C10.6699 21.4761 10.6881 21.3846 10.6881 21.2921V11.4167C10.6866 11.231 10.6118 11.0534 10.48 10.9226C10.3482 10.7918 10.17 10.7183 9.98425 10.7183C9.79853 10.7182 9.6203 10.7915 9.48838 10.9222C9.35646 11.053 9.28154 11.2305 9.27993 11.4163V21.2921H9.27969ZM14.3041 21.2921C14.3041 21.4789 14.3783 21.658 14.5104 21.7901C14.6425 21.9222 14.8216 21.9964 15.0084 21.9964C15.1952 21.9964 15.3743 21.9222 15.5064 21.7901C15.6385 21.658 15.7127 21.4789 15.7127 21.2921V11.4167C15.7112 11.231 15.6364 11.0534 15.5046 10.9225C15.3727 10.7917 15.1945 10.7182 15.0088 10.7182C14.823 10.7181 14.6448 10.7914 14.5128 10.9222C14.3809 11.0529 14.306 11.2305 14.3043 11.4163L14.3041 21.2921Z" fill="#F27AB5"/>
</svg>
