<svg width="27" height="27" viewBox="0 0 27 27" fill="none" xmlns="http://www.w3.org/2000/svg">
<path d="M23.175 13.725C22.725 12.825 22.05 12.15 21.2625 11.8125C20.25 11.25 19.125 11.25 17.1 11.25H7.2L9.7875 8.6625C10.2375 8.2125 10.2375 7.5375 9.7875 7.0875C9.3375 6.6375 8.6625 6.6375 8.2125 7.0875L3.7125 11.5875C3.6 11.7 3.4875 11.8125 3.4875 11.925C3.375 12.0375 3.375 12.2625 3.375 12.375C3.375 12.4875 3.375 12.7125 3.4875 12.825C3.4875 12.9375 3.6 13.05 3.7125 13.1625L8.2125 17.6625C8.6625 18.1125 9.3375 18.1125 9.7875 17.6625C10.2375 17.2125 10.2375 16.5375 9.7875 16.0875L7.2 13.5H17.1C18.7875 13.5 19.6875 13.5 20.1375 13.725C20.5875 13.95 20.925 14.2875 21.15 14.7375C21.375 15.1875 21.375 16.0875 21.375 17.775V19.125C21.375 19.8 21.825 20.25 22.5 20.25C23.175 20.25 23.625 19.8 23.625 19.125V17.775C23.625 15.75 23.625 14.625 23.175 13.725Z" fill="#FD44AC"/>
</svg>
