
<svg width="24" height="24" viewBox="0 0 24 24" fill="none" xmlns="http://www.w3.org/2000/svg">
<path d="M23.8474 11.5331C23.633 11.2398 18.5244 4.35156 11.9999 4.35156C5.47528 4.35156 0.366464 11.2398 0.152292 11.5328C0.0533293 11.6684 0 11.8319 0 11.9998C0 12.1676 0.0533293 12.3311 0.152292 12.4667C0.366464 12.76 5.47528 19.6482 11.9999 19.6482C18.5244 19.6482 23.633 12.76 23.8474 12.4669C23.9465 12.3314 23.9999 12.1679 23.9999 12C23.9999 11.8321 23.9465 11.6686 23.8474 11.5331ZM11.9999 18.0658C7.19381 18.0658 3.03126 13.494 1.79906 11.9994C3.02967 10.5034 7.18349 5.93397 11.9999 5.93397C16.8057 5.93397 20.9679 10.505 22.2007 12.0004C20.97 13.4963 16.8162 18.0658 11.9999 18.0658Z" fill="black"/>
<path d="M12.0002 7.25269C9.3826 7.25269 7.25293 9.38236 7.25293 12C7.25293 14.6175 9.3826 16.7472 12.0002 16.7472C14.6178 16.7472 16.7475 14.6175 16.7475 12C16.7475 9.38236 14.6178 7.25269 12.0002 7.25269ZM12.0002 15.1648C10.255 15.1648 8.83538 13.7451 8.83538 12C8.83538 10.2548 10.2551 8.83514 12.0002 8.83514C13.7453 8.83514 15.165 10.2548 15.165 12C15.165 13.7451 13.7454 15.1648 12.0002 15.1648Z" fill="black"/>
</svg>
